<?xml version="1.0" standalone="no"?>
<!DOCTYPE svg PUBLIC "-//W3C//DTD SVG 1.1//EN" "http://www.w3.org/Graphics/SVG/1.1/DTD/svg11.dtd" >
<svg xmlns="http://www.w3.org/2000/svg" xmlns:xlink="http://www.w3.org/1999/xlink" version="1.1">
<metadata></metadata>
<defs>
<font id="mysmskaregular" horiz-adv-x="1247" >
<font-face units-per-em="2048" ascent="1638" descent="-410" />
<missing-glyph horiz-adv-x="522" />
<glyph horiz-adv-x="0" />
<glyph unicode="&#xd;" horiz-adv-x="0" />
<glyph unicode=" "  horiz-adv-x="522" />
<glyph unicode="&#x09;" horiz-adv-x="522" />
<glyph unicode="&#xa0;" horiz-adv-x="522" />
<glyph unicode="!" horiz-adv-x="516" d="M188 0v229h140v-229h-140zM188 467v1001h140v-1001h-140z" />
<glyph unicode="&#x22;" horiz-adv-x="598" d="M141 1069v397h121v-397h-121zM336 1069v397h121v-397h-121z" />
<glyph unicode="#" horiz-adv-x="1392" d="M76 424v111h258l96 401h-266v104h293l100 414h119l-103 -414h388l100 414h119l-103 -414h238v-104h-264l-97 -401h275v-111h-301l-103 -424h-118l104 424h-387l-102 -424h-119l104 424h-231zM451 535h387l96 401h-387z" />
<glyph unicode="$" horiz-adv-x="1267" d="M78 199l72 116q76 -82 196.5 -135t261.5 -63v547l-12 4q-133 31 -213 59.5t-133 67.5q-61 43 -90 104.5t-29 147.5q0 186 126 294.5t345 120.5v207h76v-205q256 -10 436 -168l-70 -114q-61 68 -160.5 109.5t-215.5 45.5v-546h8q2 -2 6 -3q131 -27 220 -57.5t149 -73.5 q70 -49 102.5 -114.5t32.5 -161.5q0 -188 -135.5 -288.5t-372.5 -104.5v-199h-76v201q-299 14 -524 209zM279 1067q0 -59 18 -98t61 -70q74 -55 250 -94v530q-166 -8 -247.5 -76.5t-81.5 -191.5zM668 115q178 0 272 64.5t94 187.5q0 61 -22.5 104t-69.5 76q-76 55 -274 104 v-536z" />
<glyph unicode="%" horiz-adv-x="1462" d="M82 1180q0 59 23.5 113.5t66.5 95.5t99.5 63.5t117.5 22.5q125 0 217 -86q88 -84 88 -209q0 -80 -42 -147.5t-111.5 -106.5t-151.5 -39q-61 0 -117.5 22.5t-99.5 63.5q-90 86 -90 207zM133 55l572 697l557 710l71 -61l-571 -696l-559 -713zM186 1180q0 -86 59.5 -149.5 t143.5 -63.5t142.5 63.5t58.5 149.5t-60 151q-27 29 -64.5 45.5t-76.5 16.5q-84 0 -143.5 -63.5t-59.5 -149.5zM770 274q0 123 90 209q90 84 215 84q63 0 119.5 -21.5t97.5 -62.5q43 -41 66.5 -95t23.5 -114q0 -59 -23.5 -113.5t-66.5 -94.5q-43 -41 -99 -63.5t-118 -22.5 q-125 0 -215 86t-90 208zM874 274q0 -86 59.5 -149.5t141.5 -63.5q84 0 142.5 62.5t58.5 150.5q0 86 -59 152q-27 29 -65 45t-77 16q-82 0 -141.5 -64.5t-59.5 -148.5z" />
<glyph unicode="&#x26;" horiz-adv-x="1366" d="M96 375q0 129 75 227t232 205q-113 121 -155.5 194.5t-42.5 151.5q0 68 27.5 126t76.5 101q104 92 260 93q141 0 242 -78q47 -39 72.5 -93.5t25.5 -115.5q0 -104 -75.5 -192.5t-241.5 -198.5l407 -426q88 164 88 360h119q-2 -252 -125 -446l273 -283h-185l-168 176 q-88 -94 -200.5 -145t-239.5 -51q-96 0 -181 28.5t-147 81.5q-68 53 -102.5 126t-34.5 159zM231 371q0 -125 99.5 -202t244.5 -77q206 0 349 166l-441 465q-129 -88 -190.5 -171t-61.5 -181zM334 1157q0 -51 35 -104q47 -74 143 -174q147 98 207.5 162.5t60.5 140.5 q0 80 -59 131t-152 51q-100 0 -167.5 -60.5t-67.5 -146.5z" />
<glyph unicode="'" horiz-adv-x="403" d="M141 1067v399h121v-399h-121z" />
<glyph unicode="(" horiz-adv-x="550" d="M90 709q0 180 70.5 372.5t216.5 431.5l106 -51q-104 -156 -183 -375t-79 -385q0 -158 68.5 -347t191.5 -375l-104 -56q-287 428 -287 785z" />
<glyph unicode=")" horiz-adv-x="548" d="M66 1462l108 51q143 -238 214 -431t71 -373q0 -363 -287 -785l-102 56q125 190 192.5 377.5t67.5 344.5q0 166 -81 389.5t-183 370.5z" />
<glyph unicode="*" horiz-adv-x="657" d="M127 1290l23 74l141 -53v149h76v-149l141 53l22 -74l-139 -45l90 -127l-65 -45l-86 133l-88 -133l-64 45l88 127z" />
<glyph unicode="+" horiz-adv-x="849" d="M106 670v114h254v277h129v-277h254v-114h-254v-277h-129v277h-254z" />
<glyph unicode="," horiz-adv-x="460" d="M164 6v195h135v-195l-51 -172h-72l35 172h-47z" />
<glyph unicode="-" horiz-adv-x="864" d="M133 494v129h598v-129h-598z" />
<glyph unicode="." horiz-adv-x="387" d="M133 0v201h121v-201h-121z" />
<glyph unicode="/" horiz-adv-x="1236" d="M55 0l967 1454h158l-967 -1454h-158z" />
<glyph unicode="0" horiz-adv-x="1253" d="M55 717q0 217 73 383t204 258q125 88 295 88q166 0 296 -88t203 -252q74 -166 74 -389q0 -219 -72.5 -386t-203.5 -255t-297 -88t-294 89t-204 253q-74 164 -74 387zM205 717q0 -184 52 -317.5t151 -206.5q94 -70 219 -70t222 69.5t146 202.5q53 137 54 322 q0 184 -51.5 317t-149.5 207q-94 70 -221 70q-125 0 -222.5 -70t-146.5 -203q-53 -137 -53 -321z" />
<glyph unicode="1" horiz-adv-x="876" d="M18 1303v131h486v-1434h-148v1303h-338z" />
<glyph unicode="2" horiz-adv-x="1067" d="M-8 1241q86 100 216 152.5t292 52.5q219 0 347 -103.5t128 -283.5q0 -119 -52.5 -220.5t-183.5 -228.5l-487 -479h788v-131h-1005v104l596 584q106 104 149 185t43 169q0 127 -87 198t-249 71q-252 0 -391 -160z" />
<glyph unicode="3" horiz-adv-x="1093" d="M18 172l72 117q74 -76 192.5 -121t252.5 -45q176 0 272 76.5t96 212.5q0 137 -98 210.5t-289 73.5h-102v109l397 498h-733v131h921v-105l-405 -510q221 -12 341 -119.5t120 -287.5q0 -125 -59.5 -219.5t-176.5 -149.5t-284 -55q-154 0 -293.5 50t-223.5 134z" />
<glyph unicode="4" horiz-adv-x="1118" d="M-16 377v106l759 951h164l-733 -926h623v332h143v-332h287v-131h-287v-377h-147v377h-809z" />
<glyph unicode="5" horiz-adv-x="1116" d="M45 172l72 117q76 -76 192.5 -121t247.5 -45q176 0 274.5 79t98.5 214q0 154 -114 226.5t-365 72.5h-306l74 719h785v-131h-656l-49 -457h184q596 0 596 -424q0 -129 -59 -225.5t-174 -151.5q-113 -57 -287 -57q-154 0 -292 50t-222 134z" />
<glyph unicode="6" horiz-adv-x="1234" d="M106 705q0 233 81 401t231 256q152 84 344 84q213 0 340 -78l-60 -119q-102 68 -278 68q-242 0 -375 -152.5t-133 -435.5q0 -51 6 -117q53 117 169 181.5t269 64.5q142 0 251.5 -53t170.5 -150q61 -98 62 -227q0 -129 -62.5 -229.5t-175.5 -155.5t-252 -55 q-283 0 -435.5 186t-152.5 531zM309 420q0 -82 45 -151.5t129 -112.5q86 -43 205 -43q156 0 253 85t97 226t-97 225t-263 84q-109 0 -190.5 -40t-131.5 -113q-47 -72 -47 -160z" />
<glyph unicode="7" horiz-adv-x="1095" d="M25 1034v400h1052v-105l-600 -1329h-160l590 1303h-737v-269h-145z" />
<glyph unicode="8" horiz-adv-x="1214" d="M59 399q0 129 71 218.5t206 134.5q-111 43 -168 123.5t-57 191.5q0 115 61 201t176 133q111 45 264 45q152 0 264.5 -46t178.5 -132q63 -82 63 -201q0 -111 -59.5 -191.5t-169.5 -123.5q135 -45 207.5 -135.5t72.5 -217.5q0 -121 -67.5 -214t-192.5 -146 q-121 -51 -297 -51q-258 0 -405.5 110.5t-147.5 300.5zM209 401q0 -135 106.5 -211.5t296.5 -76.5q191 0 298.5 77.5t107.5 210.5t-107.5 210t-298.5 77q-188 0 -295.5 -76.5t-107.5 -210.5zM258 1063q0 -119 94 -188.5t260 -69.5t261.5 69.5t95.5 186.5q0 121 -97.5 190.5 t-259.5 69.5q-164 0 -259 -69.5t-95 -188.5z" />
<glyph unicode="9" horiz-adv-x="1200" d="M63 1006q0 129 63.5 230t176.5 157q117 53 250 53q283 0 435.5 -186.5t152.5 -530.5q0 -233 -81 -401t-231 -254q-147 -86 -344 -86q-213 0 -340 78l60 118q102 -68 278 -67q242 0 375 152.5t133 435.5q0 53 -6 116q-53 -117 -169 -181.5t-269 -64.5q-141 0 -251 53.5 t-171 151.5q-61 96 -62 226zM209 1010q0 -141 97 -225.5t263 -84.5q109 0 191 40t131 114q47 72 47 160q0 82 -45 151.5t-129 112.5q-86 43 -205 43q-156 0 -253 -85t-97 -226z" />
<glyph unicode=":" horiz-adv-x="385" d="M133 0v201h119v-201h-119zM133 860v201h119v-201h-119z" />
<glyph unicode=";" horiz-adv-x="419" d="M143 6v195h136v-195l-52 -172h-71l34 172h-47zM143 860v201h119v-201h-119z" />
<glyph unicode="&#x3c;" horiz-adv-x="1040" d="M68 489v76l858 516v-149l-656 -402l656 -399v-154z" />
<glyph unicode="=" horiz-adv-x="897" d="M139 397v101h619v-101h-619zM139 633v100h619v-100h-619z" />
<glyph unicode="&#x3e;" horiz-adv-x="1040" d="M113 -23v154l655 399l-655 402v149l858 -516v-76z" />
<glyph unicode="?" horiz-adv-x="974" d="M70 1208q59 127 171.5 196t256.5 69q80 0 150.5 -25t125.5 -72q123 -106 123 -295q0 -143 -86 -235q-47 -49 -137 -98q-63 -35 -129 -76q-35 -25 -53 -51q-57 -72 -58 -207h-119q0 133 41 213t133 135l91 51q102 51 148 123t46 154q0 121 -79 193.5t-199 72.5 q-104 0 -192.5 -57.5t-137.5 -151.5zM317 0v219h121v-219h-121z" />
<glyph unicode="@" horiz-adv-x="1714" d="M96 471q0 166 60.5 308.5t171.5 246.5q104 100 241.5 154.5t284.5 54.5q152 0 286 -55.5t238 -159.5q106 -109 163.5 -253t57.5 -312q0 -109 -23.5 -213.5t-74.5 -173.5q-70 -100 -201 -101q-88 0 -123.5 44t-48.5 145q-63 -66 -154 -106t-192 -40q-141 0 -224 75 t-83 200q0 137 105.5 205.5t273.5 68.5q123 0 260 -47q0 166 -59.5 248t-194.5 82q-156 0 -287 -97l-36 80q158 106 335 107q201 0 281 -135q31 -53 42 -120t11 -165v-264q0 -113 22.5 -159t84.5 -46q104 0 158.5 123t54.5 293q0 145 -50.5 275t-142.5 227q-94 98 -218 151 t-263 53q-137 0 -261 -51t-218 -145q-98 -94 -150.5 -222.5t-52.5 -275.5q0 -141 50 -268t142 -228q92 -98 215 -151t265 -53q82 0 156.5 19.5t156.5 57.5l27 -65q-164 -82 -342 -82q-152 0 -286 57.5t-239 161.5q-104 104 -161.5 247.5t-57.5 303.5zM569 289 q0 -86 60.5 -138.5t158.5 -52.5t191 45q74 35 103.5 86.5t29.5 122.5v82q-27 2 -94 25q-63 20 -168 20q-131 0 -206 -47t-75 -143z" />
<glyph unicode="A" horiz-adv-x="1384" d="M25 0l608 1454h121l604 -1454h-152l-188 455h-653l-187 -455h-153zM395 567h590l-293 719z" />
<glyph unicode="B" horiz-adv-x="1363" d="M182 0v1454h701q74 0 135 -30.5t106 -86.5q43 -51 66.5 -118.5t23.5 -135.5q0 -111 -55 -201.5t-153 -136.5q125 -37 197.5 -137t72.5 -233q0 -78 -32 -147.5t-89 -121.5q-55 -51 -129 -78.5t-158 -27.5h-686zM326 125h542q109 0 189 84q35 37 55.5 87t20.5 103 q0 54 -18.5 104t-51.5 89q-37 39 -84 61.5t-96 22.5h-557v-551zM326 793h499q53 0 99.5 21.5t79.5 59.5q69 77 69 184q0 116 -65 193q-72 78 -170 78h-512v-536z" />
<glyph unicode="C" horiz-adv-x="1404" d="M86 737q0 133 47 262t133 232q94 111 224.5 171t285.5 60q188 0 327.5 -85t209.5 -232l-113 -70q-61 127 -177 192.5t-255 65.5q-123 0 -224.5 -50t-174.5 -142q-68 -84 -104 -191.5t-36 -220.5q0 -119 41 -229.5t117 -196.5q76 -88 175.5 -137t211.5 -49q137 0 262 72.5 t187 197.5l118 -61q-43 -100 -134 -177t-206.5 -119t-234.5 -42q-141 0 -268 62.5t-222 174.5q-90 104 -140 238.5t-50 273.5z" />
<glyph unicode="D" horiz-adv-x="1464" d="M182 0v1454h494q166 0 298 -54t224 -159q86 -98 130 -230t44 -282q0 -164 -48 -298t-140 -230q-94 -98 -223.5 -149.5t-284.5 -51.5h-494zM326 127h350q262 0 411 174q70 80 106 189.5t36 238.5t-37 239.5t-107 190.5q-150 168 -409 168h-350v-1200z" />
<glyph unicode="E" d="M182 0v1454h959v-127h-815v-524h710v-121h-710v-555h833v-127h-977z" />
<glyph unicode="F" horiz-adv-x="1206" d="M182 0v1454h955v-127h-811v-534h684v-119h-684v-674h-144z" />
<glyph unicode="G" horiz-adv-x="1466" d="M86 729q0 145 49 277.5t141 236.5q94 106 218 163.5t264 57.5q199 0 338 -82t217 -235l-111 -74q-139 262 -446 262q-115 0 -214.5 -49t-168.5 -137q-70 -86 -107 -195.5t-37 -226.5q0 -121 41 -231.5t117 -194.5q76 -86 177.5 -134t211.5 -48q256 0 457 243v242h-324 v111h445v-715h-121v213q-203 -223 -467 -223q-141 0 -266 60.5t-219 170.5q-92 104 -143.5 236.5t-51.5 271.5z" />
<glyph unicode="H" horiz-adv-x="1511" d="M182 0v1454h144v-647h862v647h141v-1454h-141v680h-862v-680h-144z" />
<glyph unicode="I" horiz-adv-x="507" d="M182 0v1454h144v-1454h-144z" />
<glyph unicode="J" horiz-adv-x="985" d="M29 68l41 114q51 -35 123.5 -55.5t150.5 -20.5q109 0 175.5 39t103.5 119q31 70 43 174.5t12 276.5v739h143v-739q0 -190 -18.5 -318.5t-61.5 -216.5q-51 -102 -147 -152.5t-250 -50.5q-182 0 -315 91z" />
<glyph unicode="K" horiz-adv-x="1316" d="M182 0v1452h144v-844l800 846h158l-594 -639l625 -815h-158l-557 731l-274 -285v-446h-144z" />
<glyph unicode="L" horiz-adv-x="1193" d="M182 0v1454h144v-1327h839v-127h-983z" />
<glyph unicode="M" horiz-adv-x="1796" d="M182 0v1454h148l567 -995l571 995h146v-1454h-144v1194l-530 -924h-84l-530 924v-1194h-144z" />
<glyph unicode="N" horiz-adv-x="1581" d="M182 0v1454h111l962 -1210v1208h144v-1452h-125l-948 1188v-1188h-144z" />
<glyph unicode="O" horiz-adv-x="1538" d="M86 727q0 141 51 275.5t146 238.5q94 106 220 164.5t267 58.5q145 0 272 -61.5t222 -171.5q88 -104 137 -237.5t49 -268.5q0 -141 -51 -274.5t-144 -237.5q-94 -106 -221 -164.5t-266 -58.5q-145 0 -272 59.5t-222 169.5q-90 102 -139 235.5t-49 272.5zM229 727 q0 -119 39 -228.5t111 -193.5q76 -90 174 -138t215 -48t218 50t175 142q70 86 108 194.5t38 221.5q0 119 -40 228.5t-112 193.5q-74 88 -173 136t-214 48q-117 0 -218 -50t-175 -140q-70 -86 -108 -194.5t-38 -221.5z" />
<glyph unicode="P" horiz-adv-x="1273" d="M182 0v1454h602q90 0 169 -38t141 -105q57 -68 90 -149t33 -165q0 -90 -31 -173t-86 -146q-57 -68 -135 -104.5t-168 -36.5h-471v-537h-144zM326 664h465q59 0 112 26.5t92 75.5q78 100 78 231q0 68 -22.5 128.5t-63.5 105.5q-43 45 -96 70.5t-113 25.5h-452v-663z" />
<glyph unicode="Q" horiz-adv-x="1533" d="M86 727q0 141 51 275.5t146 238.5q94 106 220 164.5t267 58.5q145 0 272 -61.5t222 -171.5q88 -104 137 -237.5t49 -268.5q0 -147 -53.5 -282.5t-151.5 -239.5l172 -203h-141l-111 129q-180 -139 -397 -139q-143 0 -270 60.5t-224 168.5q-90 102 -139 235.5t-49 272.5z M229 727q0 -119 39 -228.5t111 -193.5q76 -90 174 -138t215 -48h3q168 0 310 110l-182 217h141l117 -139q72 86 111 195.5t39 224.5q0 119 -40 228.5t-112 193.5q-76 90 -175 138t-212 48q-117 0 -218 -50t-175 -140q-70 -86 -108 -195.5t-38 -222.5z" />
<glyph unicode="R" horiz-adv-x="1337" d="M182 0v1454h615q90 0 168.5 -38t140.5 -105q57 -68 89 -149t32 -165q0 -104 -42 -198t-116 -157.5t-166 -80.5l357 -561h-162l-342 537h-430v-537h-144zM326 664h475q61 0 114.5 26.5t90.5 75.5q77 101 77 228q0 69 -22.5 129.5t-63.5 105.5q-43 45 -97 71.5t-112 26.5 h-462v-663z" />
<glyph unicode="S" horiz-adv-x="1243" d="M66 199l71 116q82 -88 221.5 -144t294.5 -56q178 0 273.5 64.5t95.5 187.5q0 66 -26.5 111.5t-84.5 82.5q-47 29 -119.5 51.5t-207.5 55.5q-133 31 -213 59.5t-133 67.5q-61 43 -90 104.5t-29 147.5q0 98 38 177t107 134q139 106 373 106q272 0 465 -168l-70 -114 q-63 74 -166.5 114.5t-230.5 40.5q-184 0 -276.5 -69.5t-92.5 -200.5q0 -66 23.5 -107.5t72.5 -72.5q43 -27 112 -48.5t196 -50.5q131 -27 220 -57.5t148 -73.5q70 -49 103 -114.5t33 -161.5q0 -188 -139.5 -290.5t-385.5 -102.5q-342 0 -583 211z" />
<glyph unicode="T" horiz-adv-x="1249" d="M35 1327v127h1179v-127h-518v-1327h-143v1327h-518z" />
<glyph unicode="U" horiz-adv-x="1546" d="M162 721v733h141v-733q0 -279 114.5 -440.5t354.5 -161.5t355.5 162.5t115.5 439.5v733h143v-733q0 -334 -154.5 -532.5t-457.5 -198.5q-305 0 -458.5 200.5t-153.5 530.5z" />
<glyph unicode="V" horiz-adv-x="1390" d="M27 1454h149l520 -1276l518 1276h150l-606 -1454h-125z" />
<glyph unicode="W" horiz-adv-x="2142" d="M25 1454h153l529 -1288l276 657l-254 621h135l205 -516l207 516h137l-254 -621l279 -657l526 1288h156l-617 -1454h-127l-305 719l-307 -719h-125z" />
<glyph unicode="X" horiz-adv-x="1294" d="M10 1454h162l477 -635l477 635h158l-559 -737l543 -717h-158l-461 614l-461 -614h-161l542 717z" />
<glyph unicode="Y" horiz-adv-x="1333" d="M33 1454h157l476 -782l479 782h155l-563 -913v-541h-143v545z" />
<glyph unicode="Z" horiz-adv-x="1288" d="M63 0v113l990 1214h-973v127h1139v-113l-977 -1214h975v-127h-1154z" />
<glyph unicode="[" horiz-adv-x="528" d="M180 -82v1598h244v-117h-113v-1364h113v-117h-244z" />
<glyph unicode="\" horiz-adv-x="1163" d="M57 1454h158l891 -1454h-156z" />
<glyph unicode="]" horiz-adv-x="528" d="M102 35h115v1364h-115v117h246v-1598h-246v117z" />
<glyph unicode="^" horiz-adv-x="1103" d="M88 621l406 833h118l404 -833h-123l-340 702l-346 -702h-119z" />
<glyph unicode="_" horiz-adv-x="1046" d="M133 0h780v-127h-780v127z" />
<glyph unicode="`" horiz-adv-x="454" d="M100 1495h146l123 -190l-90 -35z" />
<glyph unicode="a" horiz-adv-x="1116" d="M68 311q0 70 32.5 129.5t92.5 102.5q127 90 321 90q82 0 166 -14.5t149 -40.5v96q0 141 -79.5 224t-221.5 83q-160 0 -342 -127l-49 92q207 139 402 139q201 0 315.5 -112.5t114.5 -310.5v-482q0 -57 51 -57v-123q-33 -6 -53 -6q-53 0 -83 26.5t-32 73.5l-4 84 q-74 -96 -184.5 -147t-241.5 -51q-72 0 -136.5 25.5t-115.5 70.5q-49 45 -75.5 105.5t-26.5 129.5zM201 322q0 -49 19.5 -92.5t53.5 -73.5q72 -70 181 -70q108 0 199 41t139 109q37 37 36 79v174q-143 55 -297 56q-147 0 -239 -61.5t-92 -161.5z" />
<glyph unicode="b" horiz-adv-x="1263" d="M154 0v1495h139v-651q159 241 403 241h2q106 0 196.5 -45t158.5 -127q61 -80 95 -179t34 -204q0 -109 -39 -211t-107 -176q-70 -78 -164 -120.5t-196 -42.5q-123 0 -229.5 61t-167.5 166v-207h-125zM293 365q8 -53 42 -101.5t89 -85.5q49 -35 107.5 -55.5t111.5 -20.5 q86 0 158.5 35t128.5 99q53 59 81.5 136t28.5 158q0 84 -27.5 162t-76.5 139q-51 61 -124 96.5t-153 35.5q-117 0 -216 -74t-150 -193v-331z" />
<glyph unicode="c" horiz-adv-x="1124" d="M119 748.5q39 101.5 110 177.5q74 76 172.5 117.5t212.5 41.5q147 0 262 -67.5t173 -186.5l-136 -43q-45 82 -125.5 128.5t-179.5 46.5q-78 0 -148.5 -32t-125.5 -89q-53 -57 -83 -136t-30 -169q0 -182 115 -308q55 -61 125.5 -94t148.5 -33q104 0 195.5 54.5 t116.5 128.5l137 -41q-49 -119 -169 -191.5t-274 -72.5q-113 0 -211 43t-174 122q-151 161 -151 389q0 113 39 214.5z" />
<glyph unicode="d" horiz-adv-x="1273" d="M82 530q0 111 37 213.5t102 178.5q68 80 156 121.5t192 41.5q125 0 231.5 -66.5t172.5 -174.5v651h139v-1315q0 -57 49 -57v-123q-31 -6 -49 -6q-49 0 -86 31.5t-37 76.5v105q-63 -104 -171.5 -165.5t-225.5 -61.5q-105 0 -201 44t-166 123q-68 76 -105.5 175.5 t-37.5 207.5zM225 530q0 -84 30 -161.5t85 -137.5q55 -61 129 -95t154 -34q51 0 110.5 20.5t108.5 57.5q55 37 89 85t42 102v329q-39 104 -148 189q-51 37 -108.5 57.5t-112.5 20.5q-82 0 -152.5 -35t-121.5 -99q-51 -61 -78 -139t-27 -160z" />
<glyph unicode="e" horiz-adv-x="1202" d="M120 748q40 100 111 176q76 78 173.5 119.5t207.5 41.5q115 0 211.5 -42t169.5 -121q70 -76 109 -175.5t39 -207.5v-33q0 -20 -2 -23h-914q8 -113 63.5 -203t142.5 -142t190 -52q106 0 198 53.5t129 139.5l121 -33q-47 -119 -172 -192.5t-283 -73.5q-114 0 -211.5 43 t-171.5 122q-151 161 -151 389q0 114 40 214zM223 590h785q-6 84 -39 155.5t-86 122.5q-115 109 -269 109t-268 -109q-53 -51 -85 -122.5t-38 -155.5z" />
<glyph unicode="f" horiz-adv-x="675" d="M57 956v111h148v29q0 197 84 308.5t229 111.5q61 0 121.5 -18.5t103.5 -49.5l-43 -100q-29 23 -70.5 35t-84.5 12q-98 0 -149.5 -76t-51.5 -219v-33h295v-111h-295v-956h-139v956h-148z" />
<glyph unicode="g" horiz-adv-x="1265" d="M82 530q0 111 36 212.5t101 177.5q68 80 161 122.5t198 42.5q242 0 409 -241v223h125v-1071q0 -213 -154 -338q-70 -55 -166 -85t-202 -30q-172 0 -288 60.5t-191 181.5l86 68q61 -98 162.5 -148.5t230.5 -50.5q170 0 276.5 90t106.5 252v211q-61 -102 -168 -161.5 t-223 -59.5q-105 0 -197 44t-162 124q-68 76 -104.5 174t-36.5 202zM223 528q0 -84 31 -160.5t86 -138.5q55 -61 128 -94t153 -33q59 0 118.5 22.5t110.5 61.5q47 37 80 84t43 97v329q-47 117 -150.5 192t-218.5 75q-86 0 -156.5 -36t-123.5 -102q-49 -61 -75 -138t-26 -159 z" />
<glyph unicode="h" horiz-adv-x="1193" d="M154 0v1495h139v-670q63 121 176 190.5t244 69.5q170 0 254 -118.5t84 -341.5v-625h-140v596q0 362 -245 362q-78 0 -156 -40.5t-136.5 -110.5t-80.5 -154v-653h-139z" />
<glyph unicode="i" horiz-adv-x="446" d="M154 0v1067h139v-1067h-139zM154 1290v205h139v-205h-139z" />
<glyph unicode="j" horiz-adv-x="460" d="M-240 -291l68 94q55 -49 149 -49q76 0 133.5 56.5t57.5 134.5v1122h139v-1114q0 -137 -96 -234q-45 -43 -101.5 -66.5t-115.5 -23.5q-146 0 -234 80zM168 1290v205h139v-205h-139z" />
<glyph unicode="k" horiz-adv-x="1085" d="M154 0v1495h139v-1016l600 586h158l-437 -436l453 -629h-152l-393 547l-229 -213v-334h-139z" />
<glyph unicode="l" horiz-adv-x="557" d="M160 195v1300h139v-1253q0 -59 33 -93t92 -34q53 0 111 22l24 -112q-35 -16 -91 -26.5t-101 -10.5q-96 0 -151.5 54t-55.5 153z" />
<glyph unicode="m" horiz-adv-x="1882" d="M154 0v1067h127v-242q66 123 172 191.5t235 68.5q133 0 215 -72.5t101 -201.5q152 274 411 274q326 0 326 -460v-625h-139v596q0 362 -236 362q-117 0 -215 -87t-135 -220v-651h-139v596q0 188 -57.5 275t-176.5 87q-121 0 -214 -81.5t-136 -223.5v-653h-139z" />
<glyph unicode="n" horiz-adv-x="1193" d="M154 0v1067h127v-242q68 119 189.5 189.5t262.5 70.5q166 0 242 -115.5t76 -344.5v-625h-140v596q0 188 -56 275t-173 87q-125 0 -236 -86q-121 -96 -153 -219v-653h-139z" />
<glyph unicode="o" horiz-adv-x="1218" d="M80 530q0 111 40 212.5t111 177.5q76 80 171.5 122.5t205.5 42.5q111 0 208 -43t173 -122q72 -76 111 -177.5t39 -212.5t-38 -212t-110 -175q-74 -80 -171 -121.5t-212 -41.5q-110 0 -207.5 41.5t-171.5 121.5q-72 76 -110.5 176.5t-38.5 210.5zM221 528q0 -170 115 -301 q53 -59 123.5 -92t148.5 -33t148.5 33t126.5 94q114 126 114 300q0 89 -30.5 169t-83.5 140q-55 59 -126 92t-149 33q-158 0 -272 -127q-55 -61 -85 -140.5t-30 -167.5z" />
<glyph unicode="p" horiz-adv-x="1263" d="M154 -436v1503h125v-207q70 104 174 164.5t223 60.5q109 0 201 -43t161 -124q68 -80 106 -180.5t38 -205.5q0 -111 -35 -212t-98 -177q-66 -80 -156 -121.5t-195 -41.5q-127 0 -232.5 64.5t-172.5 176.5v-657h-139zM293 371q53 -121 149 -191q102 -78 217 -78 q164 1 279 136q49 59 75.5 136t26.5 158q0 84 -29.5 162t-84.5 140q-55 61 -129 95t-154 34q-53 0 -111.5 -20.5t-107.5 -57.5q-55 -39 -89 -88t-42 -99v-327z" />
<glyph unicode="q" horiz-adv-x="1263" d="M82 532q0 109 39 210.5t108 177.5q70 80 163 122.5t198 42.5q117 0 224.5 -62t170.5 -165v209h125v-1317q0 -57 51 -59v-121l-39 -4h-39q-47 4 -79.5 40t-32.5 85v530q-159 -241 -404 -241h-2q-104 0 -193 44t-157 126q-63 80 -98 177t-35 205zM223 530q0 -84 29 -160.5 t80 -138.5q55 -61 125.5 -95t150.5 -34q113 0 209 69t154 183v330q-14 102 -127 195q-51 39 -111.5 61.5t-116.5 22.5q-82 0 -154.5 -35t-127.5 -99q-53 -61 -82 -139t-29 -160z" />
<glyph unicode="r" horiz-adv-x="718" d="M154 0v1067h131v-256q59 123 159.5 192.5t214.5 69.5q23 0 27 -2v-127q-141 -4 -245.5 -77.5t-147.5 -202.5v-664h-139z" />
<glyph unicode="s" horiz-adv-x="997" d="M59 139l64 94q94 -74 187 -110.5t196 -36.5q131 0 206.5 52t75.5 149q0 43 -19 72.5t-60 54.5q-35 18 -87.5 34.5t-154.5 40.5q-104 27 -166.5 48.5t-103.5 48.5q-88 57 -88 176q0 78 30.5 140.5t87.5 103.5q108 79 277 79h4q121 0 221 -38.5t164 -106.5l-68 -82 q-59 59 -143 91t-178 32q-121 0 -191.5 -51t-70.5 -148q0 -43 14 -69.5t47 -44.5q55 -33 205 -68q117 -27 190.5 -51.5t120.5 -54.5q104 -63 105 -195q0 -147 -113 -233t-303 -86q-129 0 -247 40.5t-202 118.5z" />
<glyph unicode="t" horiz-adv-x="686" d="M51 956v111h148v360h139v-360h246v-111h-246v-725q4 -55 39 -84.5t90 -29.5q47 0 90 14t72 33l37 -113q-47 -25 -110.5 -44t-131.5 -19q-100 0 -162.5 53t-62.5 152v763h-148z" />
<glyph unicode="u" horiz-adv-x="1216" d="M143 440v627h140v-602q0 -362 247 -363q127 0 231.5 81t153.5 212v672h140v-887q0 -57 49 -57v-123l-39 -4h-23q-49 2 -79.5 34.5t-30.5 88.5v123q-68 -123 -187.5 -192.5t-257.5 -69.5h-1q-343 0 -343 460z" />
<glyph unicode="v" horiz-adv-x="1091" d="M39 1067h143l367 -938l369 938h135l-435 -1067h-145z" />
<glyph unicode="w" horiz-adv-x="1665" d="M31 1067h135l389 -924l203 488l-183 434h117l139 -348l140 348h119l-183 -434l203 -488l387 924h137l-458 -1067h-115l-230 545l-227 -545h-115z" />
<glyph unicode="x" horiz-adv-x="1032" d="M31 0l407 530l-407 537h149l320 -418l16 -31l16 31l320 418h149l-407 -537l407 -530h-149l-320 416l-16 28l-16 -28l-320 -416h-149z" />
<glyph unicode="y" horiz-adv-x="1110" d="M31 1067h143l395 -938l367 938h133l-553 -1376q-25 -70 -80 -109t-137 -39q-49 0 -84 6v123l61 -4q41 0 61.5 10.5t39.5 45.5q16 29 78 176l41 100z" />
<glyph unicode="z" horiz-adv-x="1007" d="M63 0v94l721 869h-704v104h856v-94l-719 -869h717v-104h-871z" />
<glyph unicode="{" horiz-adv-x="530" d="M109 686v107q33 0 56 33.5t23 74.5v553q0 39 19 51q25 10 29 11h192v-117h-113v-535q0 -33 -14 -67.5t-41 -59.5q27 -25 41 -59.5t14 -67.5v-557h113v-116h-192q-20 0 -34 15t-14 46v575q0 45 -21.5 77t-57.5 36z" />
<glyph unicode="|" horiz-adv-x="473" d="M176 -266v1853h121v-1853h-121z" />
<glyph unicode="}" horiz-adv-x="530" d="M102 53h113v557q0 35 13.5 69t39.5 58q-27 25 -40 58.5t-13 68.5v535h-113v117h193q4 0 29 -11q18 -12 18 -51v-553q0 -37 21.5 -72.5t56.5 -35.5v-107q-37 -4 -57.5 -36t-20.5 -77v-575q0 -31 -13.5 -46t-33.5 -15h-193v116z" />
<glyph unicode="~" horiz-adv-x="1046" d="M135 494q0 12 12 45q29 78 87.5 122t121.5 44q41 0 79 -14.5t89 -45.5q53 -33 88 -46t72 -13q61 0 111 49q16 18 24 37l6 20h88l-10 -35q-31 -78 -91 -120.5t-130 -42.5q-43 0 -84 14t-92 45q-59 33 -90 46t-62 13q-61 0 -100 -57q-16 -23 -23 -41q-8 -14 -8 -20h-88z " />
<glyph unicode="&#xa2;" horiz-adv-x="1148" d="M88 528q0 104 34 199.5t95 171.5q131 164 348 184v238h76v-238q297 -10 416 -252l-133 -43q-90 162 -283 170v-854q39 2 86 16.5t90 37.5q94 53 115 127l137 -41q-49 -123 -182 -199q-59 -31 -124 -48t-122 -17v-226h-76v228q-98 8 -188 56t-154 128q-63 76 -99 171 t-36 191zM231 528q0 -75 25 -146t70 -126q45 -57 106.5 -95t132.5 -50v843q-154 -14 -246 -145q-43 -59 -65.5 -133t-22.5 -148z" />
<glyph unicode="&#xa3;" horiz-adv-x="1021" d="M106 651v111h193q-6 10 -16.5 30.5t-30.5 55.5q-55 88 -78 172q-14 41 -14 94q0 72 28.5 134.5t79.5 113.5q109 102 262 102q111 0 210.5 -57t160.5 -158l-82 -86q-49 86 -128 135.5t-165 49.5q-49 0 -93 -18.5t-75 -51.5q-33 -33 -51 -78t-18 -94q0 -68 49 -170 q8 -18 45 -84q16 -29 27.5 -51.5t19.5 -38.5h365v-111h-324q16 -70 16 -123q0 -104 -48 -199.5t-163 -217.5q74 18 150 18q53 0 99 -9t53 -9l69 -13q35 -6 70 -6q72 0 182 37l35 -106q-113 -53 -223 -54q-76 0 -170 25t-172 24q-106 0 -222 -34l-36 102q139 139 196.5 236.5 t57.5 197.5q0 76 -21 131h-238z" />
<glyph unicode="&#xa5;" horiz-adv-x="1384" d="M59 1454h156l475 -782l479 782h158l-442 -704h172v-99h-228l-67 -110v-56h297v-98h-297v-387h-144v387h-292v98h292v60l-63 106h-229v99h176z" />
<glyph unicode="&#xa8;" horiz-adv-x="673" d="M125 1296v193h119v-193h-119zM430 1296v193h119v-193h-119z" />
<glyph unicode="&#xa9;" horiz-adv-x="1703" d="M98 727q0 156 55.5 291t157.5 235q104 100 242.5 155.5t296.5 55.5q160 0 300 -55t241 -156q104 -100 159.5 -236t55.5 -290t-56.5 -291t-158.5 -237q-100 -100 -241.5 -156.5t-299.5 -56.5t-298 56t-241 157q-102 100 -157.5 235t-55.5 293zM170 725q0 -141 50 -264 t145 -215q92 -92 216 -142.5t269 -50.5q139 0 265 49.5t220 137.5q94 92 146.5 216t52.5 267q0 141 -50 265t-145 216q-94 92 -219 142.5t-270 50.5q-141 0 -267 -49.5t-218 -141.5t-143.5 -216t-51.5 -265zM387 727q0 88 29.5 174t85.5 152q61 74 151 113.5t201 39.5 q137 0 241.5 -59.5t151.5 -167.5l-135 -43q-33 76 -104.5 111.5t-153.5 35.5q-150 0 -242 -112q-39 -49 -60.5 -114.5t-21.5 -129.5q0 -80 29 -146.5t80 -115.5q47 -43 105.5 -67.5t113.5 -24.5q82 0 158 43t110 112l136 -39q-14 -37 -50 -78.5t-86 -76.5q-113 -82 -260 -82 q-94 0 -180 33.5t-151 95.5q-70 63 -109 152.5t-39 193.5z" />
<glyph unicode="&#xab;" horiz-adv-x="1173" d="M84 489v76l508 365v-121l-395 -279l395 -274v-121zM535 489v76l509 365v-121l-395 -279l395 -274v-121z" />
<glyph unicode="&#xad;" horiz-adv-x="864" d="M133 494v129h598v-129h-598z" />
<glyph unicode="&#xae;" horiz-adv-x="1703" d="M98 727q0 154 55.5 290t159.5 236q106 102 243.5 156.5t295.5 54.5t296 -55t243 -156q104 -100 159.5 -236t55.5 -290t-56.5 -291t-158.5 -237q-100 -100 -240.5 -156.5t-298.5 -56.5q-160 0 -297 54t-242 159q-104 100 -159.5 235t-55.5 293zM172 727q0 -141 50 -265 t143 -216q92 -94 217 -144.5t270 -50.5q139 0 264 49.5t219 137.5q94 92 145.5 216t51.5 271q0 141 -50 264t-143 215q-94 94 -218 143.5t-269 49.5t-270 -50.5t-217 -142.5t-142.5 -215t-50.5 -262zM539 260v928h391q55 0 107.5 -24.5t90.5 -67.5q78 -90 78 -201 q0 -100 -59.5 -179t-151.5 -98l228 -358h-119l-217 344h-240v-344h-108zM647 698h283q80 0 125 53.5t45 143.5q0 86 -50.5 140.5t-127.5 54.5h-275v-392z" />
<glyph unicode="&#xb4;" horiz-adv-x="454" d="M100 1305l121 190h148l-176 -225z" />
<glyph unicode="&#xb8;" horiz-adv-x="579" d="M45 -322l35 64q37 -16 85 -26.5t95 -10.5q117 0 117 72q0 74 -103 73q-43 0 -90 -8t-73 -20l116 215l68 -27l-72 -114q29 12 78 12q74 0 115 -32t41 -93q0 -70 -53.5 -106.5t-155.5 -36.5q-111 0 -203 38z" />
<glyph unicode="&#xbb;" horiz-adv-x="1173" d="M129 135v121l395 274l-395 279v121l510 -365v-76zM582 135v121l395 274l-395 279v121l508 -365v-76z" />
<glyph unicode="&#x2c6;" horiz-adv-x="675" d="M86 1321l201 174h102l203 -174l-80 -43l-174 129l-174 -129z" />
<glyph unicode="&#x2da;" horiz-adv-x="507" d="M102 1362q0 59 42 96t110 37t110 -37t42 -96q0 -61 -42 -98t-110 -37t-110 36.5t-42 98.5zM172 1362q0 -35 23.5 -57.5t58.5 -22.5q33 0 58.5 22.5t25.5 57.5t-23.5 56.5t-60.5 21.5q-35 0 -58.5 -21.5t-23.5 -56.5z" />
<glyph unicode="&#x2dc;" horiz-adv-x="831" d="M90 1290q0 20 9.5 50t25.5 57q53 84 151 84q35 0 64 -10.5t72 -32.5q39 -25 65.5 -34t61.5 -9q68 0 98 47q12 18 16 35l2 18h86q0 -18 -10 -48t-26 -56q-27 -39 -68 -61.5t-96 -22.5q-41 0 -71 9t-73 32q-10 8 -33.5 18t-41.5 16q-20 6 -43 7q-57 0 -84 -46 q-12 -20 -15 -32l-4 -21h-86z" />
<glyph unicode="&#x400;" d="M184 0v1454h959v-127h-815v-524h710v-121h-710v-555h833v-127h-977zM502 1878h145l123 -190l-90 -35z" />
<glyph unicode="&#x401;" d="M184 0v1454h959v-127h-815v-524h710v-121h-710v-555h833v-127h-977zM481 1679v193h119v-193h-119zM786 1679v193h119v-193h-119z" />
<glyph unicode="&#x402;" horiz-adv-x="1435" d="M35 1327v127h1089v-127h-565v-545q137 131 369 131q217 0 333.5 -121.5t116.5 -353.5q0 -223 -109.5 -340.5t-322.5 -117.5q-121 0 -229 45l43 125q53 -29 94 -38.5t92 -9.5q283 0 283 338q0 344 -320 344q-199 0 -350 -145v-639h-141v1327h-383z" />
<glyph unicode="&#x403;" horiz-adv-x="1062" d="M186 0v1454h838v-127h-696v-1327h-142zM528 1688l121 190h148l-176 -225z" />
<glyph unicode="&#x404;" horiz-adv-x="1433" d="M86 737q0 133 47 262t135 232q96 111 228.5 171t296.5 60q197 0 336 -83t214 -234l-114 -70q-66 129 -183.5 193.5t-261.5 64.5q-242 0 -393 -164q-68 -74 -107.5 -169t-47.5 -197h741v-121h-746q8 -115 51.5 -216t116.5 -179q76 -82 177.5 -126t214.5 -44 q143 0 270 71.5t192 198.5l119 -61q-72 -158 -230.5 -248t-359.5 -90q-152 0 -280.5 62.5t-225.5 174.5q-92 104 -141 237.5t-49 274.5z" />
<glyph unicode="&#x405;" horiz-adv-x="1243" d="M66 199l71 116q82 -88 221.5 -144t294.5 -56q178 0 273.5 64.5t95.5 187.5q0 66 -26.5 111.5t-84.5 82.5q-47 29 -119.5 51.5t-207.5 55.5q-133 31 -213 59.5t-133 67.5q-61 43 -90 104.5t-29 147.5q0 98 38 177t107 134q139 106 373 106q272 0 465 -168l-70 -114 q-63 74 -166.5 114.5t-230.5 40.5q-184 0 -276.5 -69.5t-92.5 -200.5q0 -66 23.5 -107.5t72.5 -72.5q43 -27 112 -48.5t196 -50.5q131 -27 220 -57.5t148 -73.5q70 -49 103 -114.5t33 -161.5q0 -188 -139.5 -290.5t-385.5 -102.5q-342 0 -583 211z" />
<glyph unicode="&#x406;" horiz-adv-x="512" d="M184 0v1454h144v-1454h-144z" />
<glyph unicode="&#x407;" horiz-adv-x="512" d="M45 1679v193h119v-193h-119zM184 0v1454h144v-1454h-144zM350 1679v193h119v-193h-119z" />
<glyph unicode="&#x408;" horiz-adv-x="989" d="M29 68l41 114q51 -35 123.5 -55.5t150.5 -20.5q109 0 175.5 39t103.5 119q31 70 43 174.5t12 276.5v739h143v-739q0 -190 -18.5 -318.5t-61.5 -216.5q-51 -102 -147 -152.5t-250 -50.5q-182 0 -315 91z" />
<glyph unicode="&#x409;" horiz-adv-x="2043" d="M12 127q88 2 152 70q74 78 123 276q51 211 86 608l30 373h740v-616h409q199 0 316 -112t117 -304q0 -193 -121 -309q-57 -55 -136 -84t-174 -29h-553v1327h-466l-21 -258q-49 -582 -156 -827q-57 -129 -136 -190.5t-185 -61.5zM1143 125h411q135 0 211 81t76 216 q0 137 -72.5 214t-216.5 77h-409v-588z" />
<glyph unicode="&#x40a;" horiz-adv-x="2129" d="M186 0v1454h142v-616h747v616h142v-616h421q199 0 316 -112t117 -304q0 -193 -121 -309q-57 -55 -136 -84t-174 -29h-565v711h-747v-711h-142zM1217 125h423q135 0 211 81t76 216q0 137 -72.5 214t-216.5 77h-421v-588z" />
<glyph unicode="&#x40b;" horiz-adv-x="1449" d="M35 1327v127h1089v-127h-565v-539q80 55 180.5 86t208.5 31q418 0 418 -422v-483h-139v455q0 174 -67.5 248.5t-221.5 74.5q-104 0 -201.5 -33.5t-177.5 -95.5v-649h-141v1327h-383z" />
<glyph unicode="&#x40c;" horiz-adv-x="1236" d="M186 0v1454h142v-645h221l475 645h164l-510 -700l563 -754h-164l-516 682h-233v-682h-142zM580 1688l120 190h148l-176 -225z" />
<glyph unicode="&#x40d;" horiz-adv-x="1497" d="M186 0v1454h142v-1239l901 1239h119v-1454h-144v1219l-887 -1219h-131zM571 1878h146l123 -190l-90 -35z" />
<glyph unicode="&#x40e;" horiz-adv-x="1273" d="M43 1454h152l452 -948l438 948h152l-526 -1112q-96 -201 -176 -276q-43 -43 -89.5 -61.5t-103.5 -18.5q-103 -1 -160 32v125q66 -33 150 -32q76 0 132 53t116 186zM348 1876h88q0 -55 61.5 -95t151.5 -40q88 0 146.5 38t66.5 97h86q-2 -98 -81 -156.5t-218 -58.5 t-219 58.5t-82 156.5z" />
<glyph unicode="&#x40f;" horiz-adv-x="1421" d="M186 0v1454h144v-1327h762v1327h143v-1454h-455v-379h-141v379h-453z" />
<glyph unicode="&#x410;" horiz-adv-x="1384" d="M25 0l608 1454h121l604 -1454h-152l-188 455h-653l-187 -455h-153zM395 567h590l-293 719z" />
<glyph unicode="&#x411;" horiz-adv-x="1337" d="M186 0v1454h992v-127h-850v-489h501q199 0 317 -113t118 -303t-118 -306t-315 -116h-645zM328 125h503q137 0 213 81t76 216q0 139 -72.5 215t-218.5 76h-501v-588z" />
<glyph unicode="&#x412;" horiz-adv-x="1368" d="M156 0v1454h700q74 0 135.5 -30.5t106.5 -86.5q43 -51 66.5 -118.5t23.5 -135.5q0 -111 -55.5 -201.5t-153.5 -136.5q125 -37 197.5 -137t72.5 -233q0 -78 -31.5 -147.5t-89.5 -121.5q-55 -51 -128.5 -78.5t-157.5 -27.5h-686zM299 125h543q109 0 188 84q35 37 55.5 87 t20.5 103q0 54 -18.5 104t-51.5 89q-37 39 -84 61.5t-96 22.5h-557v-551zM299 793h500q53 0 99 21.5t79 59.5q70 78 70 187q0 113 -66 190q-72 78 -170 78h-512v-536z" />
<glyph unicode="&#x413;" horiz-adv-x="1062" d="M186 0v1454h838v-127h-696v-1327h-142z" />
<glyph unicode="&#x414;" horiz-adv-x="1445" d="M35 127h33q47 4 81.5 21.5t63.5 52.5q66 80 111 272q47 219 79 608l31 373h762v-1327h207v-508h-127v381h-1112v-381h-129v508zM299 127h756v1200h-490l-20 -258q-33 -410 -88 -635q-57 -223 -158 -307z" />
<glyph unicode="&#x415;" d="M184 0v1454h959v-127h-815v-524h710v-121h-710v-555h833v-127h-977z" />
<glyph unicode="&#x416;" horiz-adv-x="1935" d="M6 0l488 754l-435 700h164l393 -645h273v645h158v-645h272l391 645h166l-436 -700l489 -754h-166l-424 682h-292v-682h-158v682h-293l-424 -682h-166z" />
<glyph unicode="&#x417;" horiz-adv-x="1071" d="M51 221l115 86q49 -88 136 -137t198 -49q74 0 136 21.5t107 60.5t71 95t26 122q0 145 -111 228t-307 83h-100v129h100q170 0 263 66.5t93 187.5q0 109 -73.5 167t-202.5 58q-100 0 -181 -38.5t-124 -106.5l-97 88q63 88 165 135t235 47q199 0 308.5 -88t109.5 -254 q0 -127 -63.5 -213t-182.5 -114q145 -20 228 -118.5t83 -248.5q0 -188 -137 -313q-66 -59 -158 -92t-196 -33q-145 0 -262 62.5t-179 168.5z" />
<glyph unicode="&#x418;" horiz-adv-x="1531" d="M186 0v1454h142v-1239l901 1239h119v-1454h-144v1219l-887 -1219h-131z" />
<glyph unicode="&#x419;" horiz-adv-x="1531" d="M186 0v1454h142v-1239l901 1239h119v-1454h-144v1219l-887 -1219h-131zM483 1876h88q0 -27 16.5 -51.5t45.5 -42.5q66 -41 153 -41q88 0 146.5 38t66.5 97h86q-4 -100 -83.5 -157.5t-217.5 -57.5q-137 0 -217 57.5t-84 157.5z" />
<glyph unicode="&#x41a;" horiz-adv-x="1236" d="M186 0v1454h142v-645h221l475 645h164l-510 -700l563 -754h-164l-516 682h-233v-682h-142z" />
<glyph unicode="&#x41b;" horiz-adv-x="1331" d="M12 127q88 2 152 70q74 78 123 276q51 211 86 608l30 373h740v-1454h-142v1327h-466l-21 -258q-49 -582 -156 -827q-57 -129 -136 -190.5t-185 -61.5z" />
<glyph unicode="&#x41c;" horiz-adv-x="1802" d="M184 0v1454h148l567 -995l571 995h146v-1454h-143v1194l-531 -924h-84l-530 924v-1194h-144z" />
<glyph unicode="&#x41d;" horiz-adv-x="1517" d="M184 0v1454h144v-647h862v647h141v-1454h-141v680h-862v-680h-144z" />
<glyph unicode="&#x41e;" horiz-adv-x="1538" d="M88 727q0 141 51 275.5t146 238.5q94 106 220 164.5t267 58.5q145 0 272 -61.5t222 -171.5q88 -104 137 -237.5t49 -268.5q0 -141 -51 -274.5t-144 -237.5q-94 -106 -221 -164.5t-266 -58.5q-145 0 -272 59.5t-222 169.5q-90 102 -139 235.5t-49 272.5zM231 727 q0 -119 39 -228.5t111 -193.5q76 -90 174 -138t215 -48t218.5 50t174.5 142q70 86 108 194.5t38 221.5q0 119 -40 228.5t-112 193.5q-74 88 -173 136t-214 48q-117 0 -218 -50t-175 -140q-70 -86 -108 -194.5t-38 -221.5z" />
<glyph unicode="&#x41f;" horiz-adv-x="1492" d="M186 0v1454h1123v-1454h-144v1327h-837v-1327h-142z" />
<glyph unicode="&#x420;" horiz-adv-x="1275" d="M184 0v1454h602q90 0 169 -38t141 -105q57 -68 90 -149t33 -165q0 -90 -31 -173t-86 -146q-57 -68 -135 -104.5t-168 -36.5h-471v-537h-144zM328 664h465q59 0 112 26.5t92 75.5q78 100 78 231q0 68 -22.5 128.5t-63.5 105.5q-43 45 -96 70.5t-113 25.5h-452v-663z" />
<glyph unicode="&#x421;" horiz-adv-x="1404" d="M86 737q0 133 47 262t133 232q94 111 224.5 171t285.5 60q188 0 327.5 -85t209.5 -232l-113 -70q-61 127 -177 192.5t-255 65.5q-123 0 -224.5 -50t-174.5 -142q-68 -84 -104 -191.5t-36 -220.5q0 -119 41 -229.5t117 -196.5q76 -88 175.5 -137t211.5 -49q137 0 262 72.5 t187 197.5l118 -61q-43 -100 -134 -177t-206.5 -119t-234.5 -42q-141 0 -268 62.5t-222 174.5q-90 104 -140 238.5t-50 273.5z" />
<glyph unicode="&#x422;" d="M35 1327v127h1179v-127h-518v-1327h-143v1327h-518z" />
<glyph unicode="&#x423;" horiz-adv-x="1273" d="M43 1454h152l452 -948l438 948h152l-526 -1112q-96 -201 -176 -276q-43 -43 -89.5 -61.5t-103.5 -18.5q-103 -1 -160 32v125q66 -33 150 -32q76 0 134 54t114 185z" />
<glyph unicode="&#x424;" horiz-adv-x="1517" d="M68 754q0 135 43 247.5t125 194.5q164 166 456 188v197h144v-197q285 -20 448 -188q80 -82 121 -194.5t41 -247.5q0 -180 -75 -317.5t-213 -217.5t-322 -88v-207h-144v207q-141 8 -258 55t-196 127q-170 166 -170 441zM213 760q0 -221 126 -351t353 -147v989 q-229 -16 -354 -143t-125 -348zM836 262q221 18 344 147.5t123 350.5t-122 348t-345 143v-989z" />
<glyph unicode="&#x425;" horiz-adv-x="1294" d="M10 1454h162l477 -635l477 635h158l-559 -737l543 -717h-158l-461 614l-461 -614h-161l542 717z" />
<glyph unicode="&#x426;" horiz-adv-x="1482" d="M186 0v1454h144v-1327h762v1327h143v-1327h207v-508h-127v381h-1129z" />
<glyph unicode="&#x427;" horiz-adv-x="1251" d="M92 1067v387h144v-360q0 -213 75 -308q37 -47 101.5 -68.5t158.5 -21.5q113 0 207 23.5t146 60.5v674h143v-1454h-143v633q-84 -33 -171 -49.5t-200 -16.5q-461 0 -461 500z" />
<glyph unicode="&#x428;" horiz-adv-x="1908" d="M186 0v1454h142v-1327h555v1327h143v-1327h555v1327h141v-1454h-1536z" />
<glyph unicode="&#x429;" horiz-adv-x="1972" d="M186 0v1454h144v-1327h555v1327h141v-1327h557v1327h141v-1327h207v-508h-127v381h-1618z" />
<glyph unicode="&#x42a;" horiz-adv-x="1507" d="M33 1327v127h596v-555h342q106 0 194 -29.5t152 -87.5q63 -57 97 -142t34 -189q0 -207 -135 -330q-63 -59 -149.5 -90t-190.5 -31h-488v1327h-452zM629 125h344q162 0 247 87t85 239t-85 237.5t-249 85.5h-342v-649z" />
<glyph unicode="&#x42b;" horiz-adv-x="1677" d="M186 0v1454h142v-555h344q215 0 344 -117q63 -57 97 -142t34 -189q0 -100 -35 -184.5t-98 -145.5q-127 -121 -342 -121h-486zM328 125h344q162 0 247 87t85 239t-85 237.5t-247 85.5h-344v-649zM1348 0v1452h143v-1452h-143z" />
<glyph unicode="&#x42c;" horiz-adv-x="1206" d="M186 0v1454h142v-555h344q215 0 344 -117q63 -57 97 -142t34 -189q0 -100 -35 -184.5t-98 -145.5q-127 -121 -342 -121h-486zM328 125h344q162 0 247 87t85 239t-85 237.5t-247 85.5h-344v-649z" />
<glyph unicode="&#x42d;" horiz-adv-x="1433" d="M61 326l119 61q66 -127 193 -198.5t270 -71.5q113 0 213 44t176 126q74 78 117 179t51 216h-743v121h741q-10 104 -50 198.5t-106 167.5q-154 164 -393 164q-143 0 -262 -64.5t-184 -193.5l-113 70q76 152 215 234.5t336 82.5q164 0 297 -60.5t229 -170.5 q86 -98 132.5 -228.5t46.5 -265.5q0 -139 -49.5 -273t-139.5 -239q-98 -113 -227 -175t-279 -62q-198 0 -358 90t-232 248z" />
<glyph unicode="&#x42e;" horiz-adv-x="2002" d="M186 0v1454h144v-659h280q10 152 62.5 276.5t138.5 212.5q86 86 199.5 133t242.5 47q145 0 267 -54t211 -155q88 -104 135 -239t47 -291q0 -164 -48 -300t-141 -235q-90 -96 -212.5 -148t-262.5 -52q-133 0 -246.5 48t-199.5 140t-135.5 217t-57.5 273h-280v-668h-144z M752 727q0 -280 139 -444q66 -80 158 -122t202 -42q117 0 214.5 44t164.5 126q68 80 103.5 191.5t35.5 246.5q0 137 -37.5 250t-107.5 194q-70 78 -165 120t-208 42q-227 0 -364 -168q-66 -80 -100.5 -191.5t-34.5 -246.5z" />
<glyph unicode="&#x42f;" horiz-adv-x="1294" d="M61 0l373 606q-135 47 -216 161t-81 255q0 82 33 160t92 139q63 63 147.5 98t178.5 35h522v-1454h-143v584h-385l-353 -584h-168zM283 1022q0 -61 20.5 -117.5t58.5 -99.5q80 -94 220 -94h385v616h-373q-133 0 -221 -88q-90 -90 -90 -217z" />
<glyph unicode="&#x430;" horiz-adv-x="1118" d="M68 311q0 70 32.5 129.5t92.5 102.5q127 90 321 90q82 0 166 -14.5t149 -40.5v96q0 141 -79.5 224t-221.5 83q-160 0 -342 -127l-49 92q207 139 402 139q201 0 315.5 -112.5t114.5 -310.5v-482q0 -57 51 -57v-123q-33 -6 -53 -6q-53 0 -83 26.5t-32 73.5l-4 84 q-74 -96 -184.5 -147t-241.5 -51q-72 0 -136.5 25.5t-115.5 70.5q-49 45 -75.5 105.5t-26.5 129.5zM201 322q0 -49 19.5 -92.5t53.5 -73.5q72 -70 181 -70q108 0 199 41t139 109q37 37 36 79v174q-143 55 -297 56q-147 0 -239 -61.5t-92 -161.5z" />
<glyph unicode="&#x431;" horiz-adv-x="1189" d="M117 616q0 356 138 560t413 268l319 74l27 -117l-338 -80q-186 -43 -288.5 -167t-129.5 -341q63 100 158.5 152.5t216.5 52.5q201 0 340 -146q61 -70 95 -166t34 -210q0 -115 -35 -210.5t-100 -162.5q-137 -143 -369 -143q-233 0 -357 164.5t-124 471.5zM260 502 q0 -86 24.5 -161t71.5 -128q94 -117 254 -117q158 0 254.5 110.5t96.5 287.5q0 182 -96.5 288.5t-260.5 106.5q-76 0 -139.5 -26.5t-108.5 -76.5q-96 -109 -96 -284z" />
<glyph unicode="&#x432;" horiz-adv-x="1071" d="M160 0v1067h522q113 0 190 -76q74 -78 74 -186q0 -78 -40 -148.5t-111 -101.5q90 -25 141 -94.5t51 -167.5q0 -129 -89 -211t-224 -82h-514zM295 104h364q82 0 137.5 59.5t55.5 137.5q0 80 -52 134t-136 54h-369v-385zM295 596h332q84 0 133 53t49 135q0 80 -44 129.5 t-124 49.5h-346v-367z" />
<glyph unicode="&#x433;" horiz-adv-x="849" d="M156 0v1067h651v-106h-514v-961h-137z" />
<glyph unicode="&#x434;" horiz-adv-x="1181" d="M37 121h61q49 10 82 48t58 110q25 68 45 182t45 317l32 289h625v-946h131v-451h-123v330h-839v-330h-117v451zM289 121h561v835h-361l-30 -237q-35 -254 -74 -397q-41 -143 -96 -201z" />
<glyph unicode="&#x435;" horiz-adv-x="1202" d="M80 537q0 111 40 211t111 176q76 78 173.5 119.5t207.5 41.5q115 0 211.5 -42t169.5 -121q70 -76 109 -175.5t39 -207.5v-33q0 -20 -2 -23h-914q8 -113 63.5 -203t142.5 -142t190 -52q106 0 198 53.5t129 139.5l121 -33q-47 -119 -172 -192.5t-283 -73.5 q-114 0 -211.5 43t-171.5 122q-152 162 -151 392zM223 590h785q-6 84 -39 155.5t-86 122.5q-115 109 -269 109t-268 -109q-53 -51 -85 -122.5t-38 -155.5z" />
<glyph unicode="&#x436;" horiz-adv-x="1540" d="M27 0l350 551l-316 516h158l279 -479h204v479h140v-479h205l278 479h154l-316 -516l353 -551h-158l-291 481h-225v-481h-140v481h-227l-291 -481h-157z" />
<glyph unicode="&#x437;" horiz-adv-x="837" d="M59 135l78 96q49 -68 108.5 -98.5t145.5 -30.5q111 0 172.5 55.5t61.5 153.5q0 106 -74 163.5t-211 57.5h-72v109h72q111 0 171 46t60 132q0 72 -49 113t-135 41q-63 0 -116.5 -22.5t-106.5 -76.5l-70 80q113 131 301 131q141 0 223 -69.5t82 -186.5q0 -94 -50 -157.5 t-136 -77.5q115 -16 180.5 -93t65.5 -192q0 -147 -103.5 -238t-271.5 -91q-104 0 -184 37.5t-142 117.5z" />
<glyph unicode="&#x438;" horiz-adv-x="1200" d="M156 0v1067h137v-870l637 870h112v-1067h-137v854l-624 -854h-125z" />
<glyph unicode="&#x439;" horiz-adv-x="1198" d="M156 0v1067h137v-870l637 870h112v-1067h-137v854l-624 -854h-125zM328 1466h88q4 -68 51 -96.5t147 -28.5t146.5 29t52.5 96h86q-4 -96 -79 -146t-206 -50q-133 0 -206.5 50t-79.5 146z" />
<glyph unicode="&#x43a;" horiz-adv-x="991" d="M156 0v1067h137v-471h139l354 471h156l-403 -516l438 -551h-156l-377 487h-151v-487h-137z" />
<glyph unicode="&#x43b;" horiz-adv-x="1101" d="M12 117q63 4 104.5 34.5t71.5 98.5q29 68 51.5 188.5t49.5 339.5l30 289h627v-1067h-137v956h-360l-29 -237q-49 -408 -135 -572q-43 -78 -102.5 -114.5t-147.5 -40.5z" />
<glyph unicode="&#x43c;" horiz-adv-x="1384" d="M156 0v1067h139l399 -719l400 719h135v-1067h-135v819l-359 -641h-82l-360 641v-819h-137z" />
<glyph unicode="&#x43d;" horiz-adv-x="1183" d="M156 0v1067h137v-461h598v461h137v-1067h-137v489h-598v-489h-137z" />
<glyph unicode="&#x43e;" horiz-adv-x="1218" d="M80 530q0 111 40 212.5t111 177.5q76 80 171.5 122.5t205.5 42.5q111 0 208 -43t173 -122q72 -76 111 -177.5t39 -212.5t-38 -212t-110 -175q-74 -80 -171 -121.5t-212 -41.5q-110 0 -207.5 41.5t-171.5 121.5q-72 76 -110.5 176.5t-38.5 210.5zM221 528q0 -170 115 -301 q53 -59 123.5 -92t148.5 -33t148.5 33t126.5 94q115 127 114 303q0 86 -30.5 166t-83.5 140q-55 59 -126 92t-149 33q-158 0 -272 -127q-55 -61 -85 -140.5t-30 -167.5z" />
<glyph unicode="&#x43f;" horiz-adv-x="1153" d="M156 0v1067h839v-1067h-135v946h-567v-946h-137z" />
<glyph unicode="&#x440;" horiz-adv-x="1267" d="M156 -436v1503h125v-207q70 104 174 164.5t223 60.5q109 0 201 -43t161 -124q68 -80 106 -180.5t38 -205.5q0 -111 -35 -212t-98 -177q-66 -80 -156 -121.5t-195 -41.5q-127 0 -232.5 64.5t-172.5 176.5v-657h-139zM295 371q53 -121 149 -191q102 -78 218 -78 q163 1 278 136q49 59 75.5 136t26.5 158q0 84 -29.5 162t-84.5 140q-55 61 -129 95t-154 34q-53 0 -111.5 -20.5t-107.5 -57.5q-55 -39 -89 -88t-42 -99v-327z" />
<glyph unicode="&#x441;" horiz-adv-x="1124" d="M80 537q0 110 39 211.5t110 177.5q74 76 172.5 117.5t212.5 41.5q147 0 262 -67.5t173 -186.5l-136 -43q-45 82 -125.5 128.5t-179.5 46.5q-78 0 -148.5 -32t-125.5 -89q-53 -57 -83 -136t-30 -169q0 -182 115 -308q55 -61 125.5 -94t148.5 -33q104 0 195.5 54.5 t116.5 128.5l137 -41q-49 -119 -169 -191.5t-274 -72.5q-113 0 -211 43t-174 122q-152 162 -151 392z" />
<glyph unicode="&#x442;" horiz-adv-x="970" d="M43 946v121h885v-121h-375v-946h-135v946h-375z" />
<glyph unicode="&#x443;" horiz-adv-x="1110" d="M31 1067h143l395 -938l367 938h133l-498 -1243q-59 -154 -123.5 -216.5t-158.5 -62.5q-92 0 -142 49l7 123q29 -29 57.5 -39t69.5 -10q59 0 104 70q49 70 111 262z" />
<glyph unicode="&#x444;" horiz-adv-x="1388" d="M80 528q0 152 66.5 273t190.5 194.5t290 85.5v414h139v-416q125 -10 226.5 -54t170.5 -116q145 -158 146 -381q0 -233 -144.5 -377.5t-398.5 -166.5v-420h-139v418q-164 8 -288 79.5t-191.5 192.5t-67.5 274zM223 535q0 -184 106.5 -296t297.5 -128v837 q-195 -16 -299.5 -122.5t-104.5 -290.5zM766 111q190 18 294.5 128.5t104.5 295.5q0 182 -104.5 289.5t-294.5 123.5v-837z" />
<glyph unicode="&#x445;" horiz-adv-x="1032" d="M31 0l407 530l-407 537h149l320 -418l16 -31l16 31l320 418h149l-407 -537l407 -530h-149l-320 416l-16 28l-16 -28l-320 -416h-149z" />
<glyph unicode="&#x446;" horiz-adv-x="1165" d="M156 0v1067h137v-946h522v946h135v-946h178v-451h-120v330h-852z" />
<glyph unicode="&#x447;" horiz-adv-x="983" d="M86 778v289h137v-264q0 -145 56.5 -211t173.5 -66q80 0 141 16.5t94 43.5v481h139v-1067h-139v444q-59 -20 -115.5 -29t-144.5 -9q-174 0 -258 96t-84 276z" />
<glyph unicode="&#x448;" horiz-adv-x="1525" d="M156 0v1067h137v-946h401v946h137v-946h402v946h137v-1067h-1214z" />
<glyph unicode="&#x449;" horiz-adv-x="1583" d="M156 0v1067h137v-946h401v946h137v-946h402v946h137v-946h178v-451h-121v330h-1271z" />
<glyph unicode="&#x44a;" horiz-adv-x="1175" d="M43 946v121h479v-379h232q74 0 139 -22.5t115 -65.5q106 -92 106 -256q0 -162 -106 -256q-49 -43 -115 -65.5t-139 -22.5h-367v946h-344zM522 119h232q109 0 166 59.5t57 165.5q0 104 -59.5 164.5t-163.5 60.5h-232v-450z" />
<glyph unicode="&#x44b;" horiz-adv-x="1308" d="M156 0v1067h137v-379h231q74 0 139.5 -22.5t114.5 -65.5q106 -92 107 -256q0 -162 -107 -256q-49 -43 -114.5 -65.5t-139.5 -22.5h-368zM293 119h231q104 0 164 60.5t60 164.5t-59.5 164.5t-164.5 60.5h-231v-450zM1018 0v1067h135v-1067h-135z" />
<glyph unicode="&#x44c;" horiz-adv-x="944" d="M156 0v1067h137v-379h231q74 0 139.5 -22.5t114.5 -65.5q106 -92 107 -256q0 -162 -107 -256q-49 -43 -114.5 -65.5t-139.5 -22.5h-368zM293 119h231q104 0 164 60.5t60 164.5t-59.5 164.5t-164.5 60.5h-231v-450z" />
<glyph unicode="&#x44d;" horiz-adv-x="1107" d="M59 240l107 47q47 -90 140 -142.5t196 -52.5q74 0 143.5 30t122.5 83q113 113 125 282h-547v113h543q-20 160 -121 262q-51 53 -119.5 83t-148.5 30q-102 0 -189.5 -47t-136.5 -137l-96 55q59 113 166.5 177t251.5 64q119 0 219 -44t174 -125q68 -74 103.5 -174.5 t35.5 -206.5t-37 -206t-104 -177q-74 -82 -173.5 -127t-215.5 -45q-152 0 -270.5 68.5t-168.5 189.5z" />
<glyph unicode="&#x44e;" horiz-adv-x="1521" d="M156 0v1067h135v-469h176q8 106 48 199.5t103 156.5t147.5 98t180.5 35q109 0 200 -40.5t159 -116.5q66 -76 100.5 -179.5t34.5 -220.5q0 -248 -142 -401q-68 -72 -158.5 -110.5t-195.5 -38.5q-201 0 -332 137q-129 137 -145 358h-176v-475h-135zM602 532q0 -200 92 -315 t252 -115q82 0 148.5 31t111.5 88q94 115 94 311q0 199 -96 315t-258 116q-158 0 -251 -117t-93 -314z" />
<glyph unicode="&#x44f;" horiz-adv-x="1013" d="M61 0l289 424q-106 31 -165.5 110.5t-59.5 200.5q0 70 26.5 132.5t73.5 107.5q98 92 252 92h381v-1067h-137v406h-232l-270 -406h-158zM262 735q0 -94 56.5 -151.5t148.5 -57.5h254v420h-238q-94 0 -157.5 -59.5t-63.5 -151.5z" />
<glyph unicode="&#x450;" horiz-adv-x="1202" d="M80 537q0 111 40 211t111 176q76 78 173.5 119.5t207.5 41.5q115 0 211.5 -42t169.5 -121q70 -76 109 -175.5t39 -207.5v-33q0 -20 -2 -23h-914q8 -113 63.5 -203t142.5 -142t190 -52q106 0 198 53.5t129 139.5l121 -33q-47 -119 -172 -192.5t-283 -73.5 q-114 0 -211.5 43t-171.5 122q-152 162 -151 392zM223 590h785q-6 84 -39 155.5t-86 122.5q-115 109 -269 109t-268 -109q-53 -51 -85 -122.5t-38 -155.5zM418 1495h145l123 -190l-90 -35z" />
<glyph unicode="&#x451;" horiz-adv-x="1202" d="M80 537q0 111 40 211t111 176q76 78 173.5 119.5t207.5 41.5q115 0 211.5 -42t169.5 -121q70 -76 109 -175.5t39 -207.5v-33q0 -20 -2 -23h-914q8 -113 63.5 -203t142.5 -142t190 -52q106 0 198 53.5t129 139.5l121 -33q-47 -119 -172 -192.5t-283 -73.5 q-114 0 -211.5 43t-171.5 122q-152 162 -151 392zM223 590h785q-6 84 -39 155.5t-86 122.5q-115 109 -269 109t-268 -109q-53 -51 -85 -122.5t-38 -155.5zM395 1296v193h119v-193h-119zM700 1296v193h119v-193h-119z" />
<glyph unicode="&#x452;" horiz-adv-x="1198" d="M6 1212v105h150v178h139v-178h475v-105h-475v-491q53 139 163.5 219t252.5 80q344 0 344 -461v-606q0 -68 -24.5 -127t-69.5 -105q-45 -43 -103.5 -67.5t-124.5 -24.5q-143 0 -227 80l69 94q49 -49 144 -49q39 0 74.5 14.5t62.5 41.5q59 55 59 135v585q0 362 -249 363 q-129 0 -230.5 -99.5t-140.5 -258.5v-535h-139v1212h-150z" />
<glyph unicode="&#x453;" horiz-adv-x="851" d="M156 0v1067h651v-106h-514v-961h-137zM383 1305l121 190h147l-176 -225z" />
<glyph unicode="&#x454;" horiz-adv-x="1107" d="M80 537q0 106 37 205.5t104 175.5q70 82 170.5 125.5t218.5 43.5q145 0 252 -64.5t166 -176.5l-94 -55q-51 92 -137 138t-189 46q-156 0 -261 -104.5t-130 -270.5h545v-113h-549q6 -84 39 -155.5t88 -126.5q53 -53 121.5 -83t142.5 -30q106 0 198.5 51.5t139.5 143.5 l107 -47q-53 -121 -171 -189.5t-270 -68.5q-116 0 -216.5 45t-170.5 127q-68 78 -104.5 177t-36.5 206z" />
<glyph unicode="&#x455;" horiz-adv-x="997" d="M59 139l64 94q94 -74 187 -110.5t196 -36.5q131 0 206.5 52t75.5 149q0 43 -19 72.5t-60 54.5q-35 18 -87.5 34.5t-154.5 40.5q-104 27 -166.5 48.5t-103.5 48.5q-88 57 -88 176q0 78 30.5 140.5t87.5 103.5q109 80 281 79q121 0 221 -38.5t164 -106.5l-68 -82 q-59 59 -143 91t-178 32q-121 0 -191.5 -51t-70.5 -148q0 -43 14 -69.5t47 -44.5q55 -33 205 -68q117 -27 190.5 -51.5t120.5 -54.5q104 -63 105 -195q0 -147 -113 -233t-303 -86q-129 0 -247 40.5t-202 118.5z" />
<glyph unicode="&#x456;" horiz-adv-x="450" d="M156 0v1067h139v-1067h-139zM156 1290v205h139v-205h-139z" />
<glyph unicode="&#x457;" horiz-adv-x="450" d="M14 1296v193h119v-193h-119zM156 0v1067h139v-1067h-139zM319 1296v193h119v-193h-119z" />
<glyph unicode="&#x458;" horiz-adv-x="464" d="M-238 -291l68 94q55 -49 150 -49q76 0 133 56.5t57 134.5v1122h139v-1114q0 -137 -96 -234q-45 -43 -101.5 -66.5t-115.5 -23.5q-146 0 -234 80zM170 1290v205h139v-205h-139z" />
<glyph unicode="&#x459;" horiz-adv-x="1634" d="M12 117q63 4 104.5 34.5t71.5 98.5q29 68 51.5 188.5t49.5 339.5l30 289h627v-426h301q141 0 229.5 -87t88.5 -235q0 -145 -88 -232t-230 -87h-438v956h-360l-29 -237q-49 -408 -135 -572q-43 -78 -102.5 -114.5t-147.5 -40.5zM946 119h301q86 0 133 53t47 147t-47 148.5 t-133 54.5h-301v-403z" />
<glyph unicode="&#x45a;" horiz-adv-x="1638" d="M156 0v1067h137v-426h520v426h137v-426h301q141 0 229.5 -87t88.5 -235q0 -145 -88 -232t-230 -87h-438v520h-520v-520h-137zM950 119h301q86 0 133.5 53t47.5 147t-47.5 148.5t-133.5 54.5h-301v-403z" />
<glyph unicode="&#x45b;" horiz-adv-x="1198" d="M4 1212v105h152v178h139v-178h475v-105h-475v-485q49 135 159.5 214t256.5 79q344 0 344 -461v-559h-140v530q0 362 -251 363q-129 0 -230.5 -98.5t-138.5 -253.5v-541h-139v1212h-152z" />
<glyph unicode="&#x45c;" horiz-adv-x="991" d="M156 0v1067h137v-471h139l354 471h156l-403 -516l438 -551h-156l-377 487h-151v-487h-137zM424 1305l121 190h147l-176 -225z" />
<glyph unicode="&#x45d;" horiz-adv-x="1165" d="M156 0v1067h137v-870l637 870h112v-1067h-137v854l-624 -854h-125zM379 1495h145l123 -190l-90 -35z" />
<glyph unicode="&#x45e;" horiz-adv-x="1110" d="M31 1067h143l395 -938l367 938h133l-555 -1376q-29 -74 -77 -109t-124 -37q-68 0 -102 9v120q33 -6 59 -6q47 0 66.5 11.5t40.5 44.5q23 35 49 98q35 80 70 178zM283 1466h88q4 -68 51 -96.5t147 -28.5t146.5 29t52.5 96h86q-4 -96 -79 -146t-206 -50q-133 0 -206.5 50 t-79.5 146z" />
<glyph unicode="&#x45f;" horiz-adv-x="1107" d="M156 0v1069h137v-948h522v948h135v-1069h-329v-330h-136v330h-329z" />
<glyph unicode="&#x490;" horiz-adv-x="1062" d="M186 0v1454h715l14 348h109v-475h-694v-1327h-144z" />
<glyph unicode="&#x491;" horiz-adv-x="870" d="M156 0v1067h563l14 330h92v-441h-532v-956h-137z" />
<glyph unicode="&#x4b0;" horiz-adv-x="1269" d="M4 1454h158l475 -782l477 782h154l-561 -907v-62h297v-98h-297v-387h-144v387h-295v98h295v60z" />
<glyph unicode="&#x4b1;" horiz-adv-x="1122" d="M14 1067h158l389 -834l393 834h154l-479 -961v-8h280v-98h-280v-436h-142v436h-276v98h276v8z" />
<glyph unicode="&#x2000;" horiz-adv-x="939" />
<glyph unicode="&#x2001;" horiz-adv-x="1878" />
<glyph unicode="&#x2002;" horiz-adv-x="939" />
<glyph unicode="&#x2003;" horiz-adv-x="1878" />
<glyph unicode="&#x2004;" horiz-adv-x="626" />
<glyph unicode="&#x2005;" horiz-adv-x="469" />
<glyph unicode="&#x2006;" horiz-adv-x="313" />
<glyph unicode="&#x2007;" horiz-adv-x="313" />
<glyph unicode="&#x2008;" horiz-adv-x="234" />
<glyph unicode="&#x2009;" horiz-adv-x="375" />
<glyph unicode="&#x200a;" horiz-adv-x="104" />
<glyph unicode="&#x2010;" horiz-adv-x="864" d="M133 494v129h598v-129h-598z" />
<glyph unicode="&#x2011;" horiz-adv-x="864" d="M133 494v129h598v-129h-598z" />
<glyph unicode="&#x2012;" horiz-adv-x="864" d="M133 494v129h598v-129h-598z" />
<glyph unicode="&#x2013;" horiz-adv-x="1167" d="M133 494v129h899v-129h-899z" />
<glyph unicode="&#x2014;" horiz-adv-x="1845" d="M133 494v129h1579v-129h-1579z" />
<glyph unicode="&#x2018;" horiz-adv-x="401" d="M131 1067v211l51 217h72l-35 -217h49v-211h-137z" />
<glyph unicode="&#x2019;" horiz-adv-x="389" d="M131 1284v211h137v-211l-51 -217h-72l35 217h-49z" />
<glyph unicode="&#x201a;" horiz-adv-x="460" d="M164 0v209h135v-209l-51 -213h-72l35 213h-47z" />
<glyph unicode="&#x201c;" horiz-adv-x="647" d="M131 1067v211l51 217h72l-35 -217h49v-211h-137zM379 1067v211l51 217h72l-35 -217h49v-211h-137z" />
<glyph unicode="&#x201d;" horiz-adv-x="636" d="M131 1284v211h137v-211l-51 -217h-72l35 217h-49zM379 1284v211h137v-211l-51 -217h-72l35 217h-49z" />
<glyph unicode="&#x201e;" horiz-adv-x="702" d="M164 0v209h135v-209l-51 -213h-72l35 213h-47zM406 0v209h135v-209l-52 -213h-71l35 213h-47z" />
<glyph unicode="&#x2022;" horiz-adv-x="718" d="M176 709q0 74 55 129q25 25 59 39t70 14q37 0 71 -14.5t58 -38.5q53 -59 54 -129q0 -78 -53.5 -131.5t-129.5 -53.5t-130 53.5t-54 131.5z" />
<glyph unicode="&#x2026;" horiz-adv-x="935" d="M133 0v201h121v-201h-121zM410 0v201h116v-201h-116zM684 0v201h119v-201h-119z" />
<glyph unicode="&#x202f;" horiz-adv-x="375" />
<glyph unicode="&#x2039;" horiz-adv-x="720" d="M84 489v76l508 365v-121l-395 -279l395 -274v-121z" />
<glyph unicode="&#x203a;" horiz-adv-x="720" d="M129 135v121l395 274l-395 279v121l510 -365v-76z" />
<glyph unicode="&#x205f;" horiz-adv-x="469" />
<glyph unicode="&#x20ac;" horiz-adv-x="1640" d="M68 549l36 88h181q-6 49 -6 100v27h-152l37 88h123q18 119 72.5 228.5t140.5 193.5q188 188 469 188q188 0 327.5 -85t208.5 -232l-112 -70q-61 127 -177 192.5t-255 65.5q-213 0 -359 -145q-66 -66 -109.5 -153t-60.5 -183h692l-37 -88h-665v-35q0 -45 6 -92h623 l-39 -88h-566q33 -121 110 -220.5t184.5 -155.5t226.5 -56q137 0 262 72.5t186 197.5l119 -61q-43 -100 -134 -177t-207 -119t-235 -42t-226 44t-197 126q-84 76 -144.5 176t-89.5 215h-233z" />
<glyph unicode="&#x2122;" horiz-adv-x="1488" d="M127 1360v98h487v-98h-194v-492h-98v492h-195zM709 868v586h135l174 -383l176 383h137v-586h-98v445l-172 -359h-82l-172 359v-445h-98z" />
<glyph unicode="&#x25fc;" horiz-adv-x="1064" d="M0 0v1065h1065v-1065h-1065z" />
</font>
</defs>
</svg>
