<?xml version="1.0" standalone="no"?>
<!DOCTYPE svg PUBLIC "-//W3C//DTD SVG 1.1//EN" "http://www.w3.org/Graphics/SVG/1.1/DTD/svg11.dtd" >
<svg xmlns="http://www.w3.org/2000/svg" xmlns:xlink="http://www.w3.org/1999/xlink" version="1.1">
<metadata></metadata>
<defs>
<font id="mysmskalight" horiz-adv-x="1253" >
<font-face units-per-em="2048" ascent="1638" descent="-410" />
<missing-glyph horiz-adv-x="526" />
<glyph horiz-adv-x="0" />
<glyph unicode="&#xd;" horiz-adv-x="0" />
<glyph unicode=" "  horiz-adv-x="526" />
<glyph unicode="&#x09;" horiz-adv-x="526" />
<glyph unicode="&#xa0;" horiz-adv-x="526" />
<glyph unicode="!" horiz-adv-x="497" d="M197 0v209h104v-209h-104zM197 446v1022h104v-1022h-104z" />
<glyph unicode="&#x22;" horiz-adv-x="540" d="M143 1106v356h93v-356h-93zM305 1106v356h90v-356h-90z" />
<glyph unicode="#" horiz-adv-x="1370" d="M78 434v84h250l106 436h-272v80h293l100 420h90l-102 -420h426l100 420h90l-102 -420h235v-80h-256l-104 -436h274v-84h-295l-106 -434h-90l108 434h-426l-106 -434h-90l108 434h-231zM416 518h428l104 436h-426z" />
<glyph unicode="$" horiz-adv-x="1263" d="M86 205l55 84q86 -90 206 -144.5t263 -64.5v604q-135 27 -217 55.5t-135 67.5q-61 43 -91 103.5t-30 146.5q0 90 34 164.5t95 126.5q61 51 148.5 80.5t191.5 33.5v207h64v-205q135 -4 241.5 -46t192.5 -124l-53 -82q-139 156 -387 158v-596h6q258 -53 374 -129 q137 -90 138 -272q0 -184 -137.5 -284.5t-374.5 -100.5v-191h-64v193q-305 16 -520 215zM244 1071q0 -65 20.5 -109t65.5 -75q88 -61 280 -101v582q-182 -8 -274 -85t-92 -212zM664 80h2q197 0 301 70.5t104 209.5q0 113 -61.5 170.5t-157.5 92.5q-59 20 -188 51v-594z" />
<glyph unicode="%" horiz-adv-x="1429" d="M88 1184q0 119 88 207q84 84 209 84q127 0 211 -84q86 -86 86 -207q0 -59 -22.5 -112.5t-63.5 -92.5q-43 -39 -97.5 -61.5t-113.5 -22.5t-112.5 22.5t-96.5 61.5q-41 39 -64.5 92t-23.5 113zM121 43l571 705l561 712l58 -47l-572 -706l-563 -713zM170 1184q0 -92 63 -158 q29 -31 69 -48t83 -17t83 18t71 49q29 31 46 72t17 84q0 92 -65.5 158.5t-151.5 66.5t-152 -68q-31 -31 -47 -71.5t-16 -85.5zM748 270q0 59 23.5 112.5t64.5 92.5q43 39 96 61.5t112 22.5t113.5 -22.5t97.5 -61.5q41 -39 63.5 -92t22.5 -113q0 -119 -86 -204 q-86 -86 -211 -86q-122 0 -208 86q-88 88 -88 204zM829 270q0 -96 62.5 -160.5t152.5 -64.5q43 0 83 18.5t71 49.5q29 31 46.5 72.5t17.5 84.5q0 45 -17.5 86t-48.5 72q-66 66 -152 66t-151 -68q-31 -31 -47.5 -72t-16.5 -84z" />
<glyph unicode="&#x26;" horiz-adv-x="1341" d="M100 365q0 133 79 233t243 207q-117 125 -163 203.5t-46 152.5q0 61 26.5 118.5t75.5 100.5t116 68t138 25q137 0 234 -80q43 -37 67.5 -88.5t24.5 -110.5q0 -115 -98 -217q-41 -41 -93.5 -82t-140.5 -100l438 -455q94 168 95 373h90q-4 -246 -123 -439l264 -274h-137 l-186 195q-88 -104 -202 -159.5t-245 -55.5q-90 0 -173 26.5t-146 77.5q-137 106 -138 281zM201 360q0 -139 118 -221q49 -37 116 -56.5t134 -19.5q111 0 206 50.5t169 142.5l-463 485q-150 -102 -215 -186t-65 -195zM309 1163q0 -53 37 -114q47 -78 156 -191 q164 104 231.5 177t67.5 155q0 86 -65.5 142.5t-168.5 56.5q-106 0 -184 -68q-35 -31 -54.5 -72t-19.5 -86z" />
<glyph unicode="'" horiz-adv-x="378" d="M143 1104v358h93v-358h-93z" />
<glyph unicode="(" horiz-adv-x="524" d="M94 707q0 188 84 405q31 84 76 172t121 219l80 -41q-113 -166 -189 -378t-76 -384q0 -158 70 -347t195 -376l-78 -45q-283 416 -283 775z" />
<glyph unicode=")" horiz-adv-x="522" d="M68 1462l79 41q152 -262 216.5 -436t64.5 -360q0 -361 -281 -775l-77 45q125 188 193.5 377t68.5 346q0 170 -78 386.5t-186 375.5z" />
<glyph unicode="*" horiz-adv-x="643" d="M131 1300l19 60l139 -49v147h63v-147l142 49l18 -60l-139 -45l88 -122l-53 -37l-86 125l-86 -125l-52 37l86 122z" />
<glyph unicode="+" horiz-adv-x="847" d="M109 684v86h268v289h94v-289h266v-86h-266v-289h-94v289h-268z" />
<glyph unicode="," horiz-adv-x="487" d="M193 -4v178h104v-178l-43 -162h-55l30 162h-36z" />
<glyph unicode="-" horiz-adv-x="864" d="M137 510v94h590v-94h-590z" />
<glyph unicode="." horiz-adv-x="362" d="M137 0v174h90v-174h-90z" />
<glyph unicode="/" horiz-adv-x="1185" d="M55 0l955 1454h118l-956 -1454h-117z" />
<glyph unicode="0" horiz-adv-x="1251" d="M63 727q0 217 70 382t201 257q125 88 291 88t294 -89t197 -253q70 -158 70 -385q0 -219 -69.5 -383t-198.5 -254q-133 -90 -293 -90q-164 0 -292 89t-198 253q-72 168 -72 385zM168 727q0 -190 57.5 -332.5t161.5 -222.5q100 -76 238 -76q135 0 238.5 76t160.5 217 q57 135 57 338q0 197 -56 340t-161 217q-104 74 -239 74t-238.5 -75t-161.5 -216q-57 -139 -57 -340z" />
<glyph unicode="1" horiz-adv-x="835" d="M18 1339v95h455v-1434h-104v1339h-351z" />
<glyph unicode="2" horiz-adv-x="1040" d="M-8 1247q82 94 209 145.5t284 51.5q211 0 336 -102.5t125 -276.5q0 -117 -52 -217t-181 -227l-529 -527h832v-94h-985v74l606 602q113 113 158 197.5t45 181.5q0 137 -95.5 215t-267.5 78q-135 0 -236.5 -41t-174.5 -125z" />
<glyph unicode="3" horiz-adv-x="1083" d="M27 182l53 80q70 -80 191.5 -128t260.5 -48q188 0 292 84t104 233q0 154 -107.5 236t-310.5 82h-90v76l424 542h-764v95h899v-74l-430 -551q231 -6 358 -113.5t127 -292.5q0 -123 -57 -215t-170 -145q-119 -53 -275 -53t-293 52t-212 140z" />
<glyph unicode="4" horiz-adv-x="1097" d="M-33 397v76l778 961h117l-764 -945h688v351h101v-351h301v-92h-301v-397h-103v397h-817z" />
<glyph unicode="5" horiz-adv-x="1110" d="M53 182l53 80q70 -80 190 -128t259 -48q188 0 293.5 87t105.5 237q0 168 -122.5 248.5t-391.5 80.5h-290l75 695h760v-95h-672l-55 -505h205q303 0 449.5 -105.5t146.5 -314.5q0 -125 -57.5 -219.5t-167.5 -149.5q-113 -55 -277 -55q-154 0 -291 53t-213 139z" />
<glyph unicode="6" horiz-adv-x="1228" d="M113 709q0 233 76.5 399t224.5 252q145 84 336 84q203 0 325 -74l-43 -84q-102 66 -282 66q-252 0 -392.5 -163t-140.5 -464q0 -94 12 -172q43 139 166 217t291 78q141 0 251 -52.5t169 -148.5q59 -102 59 -225q0 -127 -60.5 -226.5t-170.5 -152.5q-113 -53 -246 -53 q-276 0 -425.5 187.5t-149.5 531.5zM274 416q0 -88 49.5 -165t139.5 -124q98 -47 221 -47q168 0 272.5 93t104.5 247t-105.5 246t-283.5 92q-115 0 -206 -45t-140 -123q-51 -76 -52 -174z" />
<glyph unicode="7" horiz-adv-x="1095" d="M70 1065v369h1028v-74l-617 -1360h-114l610 1339h-805v-274h-102z" />
<glyph unicode="8" horiz-adv-x="1206" d="M61 393q0 135 79 226.5t227 130.5q-123 41 -188.5 123.5t-65.5 199.5q0 172 133 271.5t356 99.5q147 0 259 -45t173 -129q61 -82 62 -197q0 -117 -66.5 -199.5t-191.5 -123.5q147 -39 228 -131.5t81 -225.5q0 -188 -145.5 -295.5t-399.5 -107.5q-252 0 -396.5 107.5 t-144.5 295.5zM166 393q0 -147 114.5 -230t321.5 -83t323.5 84t116.5 229q0 143 -116.5 227.5t-323.5 84.5q-203 0 -319.5 -84t-116.5 -228zM217 1071q0 -129 101.5 -204.5t283.5 -75.5t285.5 74.5t103.5 203.5q0 131 -105.5 208t-283.5 77t-281.5 -76t-103.5 -207z" />
<glyph unicode="9" horiz-adv-x="1193" d="M76 1012q0 127 60.5 226t170.5 153q113 53 246 53q276 0 425.5 -187.5t149.5 -531.5q0 -233 -76.5 -400t-224.5 -251q-145 -84 -335 -84q-203 0 -326 73l43 84q102 -66 283 -65q252 0 392 163t140 464q0 96 -12 172q-43 -139 -166 -217t-291 -78q-141 0 -250.5 52 t-169.5 150q-59 96 -59 224zM180 1014q0 -154 105.5 -246t283.5 -92q115 0 206 44t143 124q49 78 49 174q0 90 -50.5 168t-138.5 121q-98 47 -221 47q-168 0 -272.5 -93.5t-104.5 -246.5z" />
<glyph unicode=":" horiz-adv-x="362" d="M137 0v174h88v-174h-88zM137 885v174h88v-174h-88z" />
<glyph unicode=";" horiz-adv-x="391" d="M143 -4v178h105v-178l-41 -162h-55l28 162h-37zM145 885v174h91v-174h-91z" />
<glyph unicode="&#x3c;" horiz-adv-x="1036" d="M70 498v61l856 514v-110l-709 -433l709 -432v-112z" />
<glyph unicode="=" horiz-adv-x="894" d="M141 426v78h613v-78h-613zM141 627v78h613v-78h-613z" />
<glyph unicode="&#x3e;" horiz-adv-x="1036" d="M111 -14v112l706 432l-706 433v110l856 -514v-61z" />
<glyph unicode="?" horiz-adv-x="968" d="M72 1208q49 121 166.5 193t259.5 72q76 0 146.5 -25t125.5 -72q121 -109 121 -291q0 -154 -92 -245q-37 -35 -84 -63.5t-119 -61.5q-51 -25 -80 -46.5t-47 -52.5q-45 -72 -45 -221h-90q0 147 41 226t133 137l94 51q111 53 154 122.5t43 160.5q0 135 -86 213.5t-215 78.5 q-115 0 -209 -60t-144 -161zM336 0v201h90v-201h-90z" />
<glyph unicode="@" horiz-adv-x="1708" d="M98 471q0 166 59.5 307.5t170.5 245.5q104 100 240.5 155.5t283.5 55.5t282.5 -57.5t239.5 -161.5q104 -106 160.5 -250.5t56.5 -310.5q0 -109 -23.5 -214.5t-74.5 -172.5q-70 -100 -197 -101q-92 0 -129 58q-16 20 -23 49.5t-14 87.5q-61 -66 -152 -106t-192 -40 q-139 0 -222 75t-83 194q0 70 33 124t90 87q100 57 254 57q129 0 266 -47q0 178 -59 264t-201 86q-78 0 -152.5 -25.5t-136.5 -72.5l-32 63q162 106 329 107q184 0 255 -105.5t71 -312.5v-283q0 -111 21.5 -153.5t85.5 -42.5q109 0 167 128t58 298q0 147 -51.5 279 t-145.5 231q-94 100 -219 154.5t-264 54.5q-135 0 -260 -52.5t-223 -146.5q-98 -98 -152.5 -228.5t-54.5 -277.5q0 -145 51 -275t145 -229q94 -98 220 -152.5t266 -54.5q162 0 313 78l25 -55q-162 -82 -338 -82q-152 0 -286 57.5t-239 163.5q-104 104 -161.5 246.5 t-57.5 302.5zM557 289q0 -90 66.5 -146.5t167.5 -56.5q98 0 192 45q80 35 109.5 88t29.5 135v86l-37 11q-88 23 -135 29.5t-98 6.5q-133 0 -214 -49t-81 -149z" />
<glyph unicode="A" horiz-adv-x="1382" d="M29 0l618 1454h90l615 -1454h-111l-203 479h-694l-203 -479h-112zM369 565h641l-318 762z" />
<glyph unicode="B" horiz-adv-x="1355" d="M190 0v1454h678q74 0 135.5 -30.5t106.5 -86.5q43 -51 66.5 -118.5t23.5 -135.5q0 -113 -56.5 -204t-152.5 -134q123 -37 197 -138t74 -230q0 -78 -30 -147.5t-85 -120.5t-127 -80t-150 -29h-680zM295 94h575q59 0 112.5 24.5t92.5 67.5t60.5 96.5t21.5 108.5 q0 58 -20.5 112t-57.5 97t-88 66.5t-106 23.5h-590v-596zM295 778h532q111 0 195 90q37 43 56.5 94.5t19.5 106.5q0 121 -72 205q-74 86 -186 86h-545v-582z" />
<glyph unicode="C" horiz-adv-x="1413" d="M90 737q0 133 47 262t133 232q94 111 223.5 171t284.5 60q186 0 326.5 -85t210.5 -232l-86 -49q-70 135 -192 202.5t-267 67.5q-262 0 -426 -203q-72 -90 -110.5 -202.5t-38.5 -229.5q0 -127 44 -242.5t123 -207.5q80 -92 188.5 -144.5t225.5 -52.5q152 0 282 76t197 209 l91 -43q-70 -156 -232 -247t-346 -91q-141 0 -266 62.5t-221 174.5q-90 104 -140.5 238.5t-50.5 273.5z" />
<glyph unicode="D" horiz-adv-x="1460" d="M190 0v1454h484q166 0 298 -54t220 -159q84 -96 128 -227t44 -285q0 -332 -186 -528q-92 -98 -221.5 -149.5t-282.5 -51.5h-484zM295 94h379q139 0 249.5 47t186.5 135q74 86 112 202t38 251q0 137 -39 253t-113 200q-160 178 -434 178h-379v-1266z" />
<glyph unicode="E" d="M190 0v1454h951v-94h-846v-572h739v-90h-739v-604h864v-94h-969z" />
<glyph unicode="F" horiz-adv-x="1216" d="M190 0v1454h947v-94h-842v-578h715v-90h-715v-692h-105z" />
<glyph unicode="G" horiz-adv-x="1468" d="M90 729q0 141 50 274.5t141 237.5q94 106 215.5 164.5t263.5 58.5q199 0 338 -82t217 -235l-86 -51q-141 272 -471 272q-123 0 -229.5 -53t-182.5 -148q-74 -90 -112.5 -203.5t-38.5 -236.5q0 -127 45 -243.5t125 -204.5q80 -92 188.5 -142.5t224.5 -50.5q270 0 484 256 v281h-330v84h420v-707h-90v227q-212 -237 -488 -237h-2q-141 0 -268 60.5t-221 170.5q-90 104 -141.5 237.5t-51.5 270.5z" />
<glyph unicode="H" horiz-adv-x="1505" d="M190 0v1454h105v-663h917v663h105v-1454h-105v696h-917v-696h-105z" />
<glyph unicode="I" horiz-adv-x="485" d="M190 0v1454h105v-1454h-105z" />
<glyph unicode="J" horiz-adv-x="978" d="M33 68l33 84q113 -78 282 -78q115 0 185.5 41t109.5 127q35 72 47 182.5t12 290.5v739h105v-739q0 -197 -16.5 -323t-59.5 -212q-51 -102 -144 -152.5t-239 -50.5q-182 0 -315 91z" />
<glyph unicode="K" horiz-adv-x="1300" d="M190 0v1454h105v-883l848 883h121l-605 -637l635 -817h-118l-584 754l-297 -305v-449h-105z" />
<glyph unicode="L" horiz-adv-x="1189" d="M190 0v1454h105v-1360h868v-94h-973z" />
<glyph unicode="M" horiz-adv-x="1802" d="M190 0v1454h105l606 -1040l606 1040h105v-1454h-105v1257l-573 -981h-66l-573 981v-1257h-105z" />
<glyph unicode="N" horiz-adv-x="1583" d="M190 0v1454h80l1020 -1280v1280h105v-1454h-97l-1003 1257v-1257h-105z" />
<glyph unicode="O" horiz-adv-x="1542" d="M90 727q0 141 51.5 275.5t145.5 238.5q94 106 219 164.5t266 58.5q145 0 272 -61.5t222 -171.5q88 -104 137 -236.5t49 -267.5q0 -145 -51 -277.5t-144 -236.5q-94 -106 -221 -164.5t-266 -58.5q-143 0 -269 60.5t-222 168.5q-90 102 -139.5 235.5t-49.5 272.5zM195 727 q0 -123 42 -238.5t119 -205.5q82 -94 188.5 -145.5t227.5 -51.5q125 0 231.5 52t186.5 151q74 90 115 204.5t41 233.5q0 125 -42 240.5t-120 206.5q-82 94 -186.5 144t-225.5 50q-125 0 -232.5 -52t-187.5 -149q-76 -92 -116.5 -206.5t-40.5 -233.5z" />
<glyph unicode="P" horiz-adv-x="1271" d="M190 0v1454h598q88 0 166 -37t140 -104q55 -68 86.5 -149t31.5 -160q0 -88 -29.5 -170t-82.5 -146q-121 -139 -299 -139h-506v-549h-105zM295 645h502q70 0 128 28.5t99 82.5q39 49 60.5 114.5t21.5 133.5q0 70 -24.5 134t-69.5 115t-103.5 79t-124.5 28h-489v-715z" />
<glyph unicode="Q" horiz-adv-x="1540" d="M90 727q0 141 51.5 275.5t145.5 238.5q94 106 219 164.5t266 58.5q145 0 272 -61.5t222 -171.5q88 -104 137 -236.5t49 -267.5q0 -152 -55.5 -289t-155.5 -243l162 -195h-109l-114 137q-184 -147 -410 -147q-143 0 -269 60.5t-222 168.5q-90 102 -139.5 235.5 t-49.5 272.5zM195 727q0 -123 42 -238.5t119 -205.5q82 -94 188.5 -145.5t227.5 -51.5q194 0 344 127l-172 209h109l123 -150q82 92 126 211t44 244t-42 240.5t-120 206.5q-82 94 -186.5 144t-225.5 50q-125 0 -232.5 -52t-187.5 -149q-76 -92 -116.5 -206.5t-40.5 -233.5z " />
<glyph unicode="R" horiz-adv-x="1329" d="M190 0v1454h605q88 0 165.5 -37t139.5 -104q55 -68 87 -149t32 -160q0 -160 -95 -289q-45 -59 -108.5 -98t-138.5 -52l362 -565h-121l-352 549h-471v-549h-105zM295 645h510q135 0 225 113q41 49 62.5 112.5t21.5 133.5q0 68 -25.5 133t-68.5 114q-102 109 -229 109h-496 v-715z" />
<glyph unicode="S" horiz-adv-x="1239" d="M72 205l55 84q94 -100 229.5 -154.5t294.5 -54.5q197 0 301.5 70.5t104.5 209.5q0 135 -113 209q-51 35 -133 61.5t-211 53.5q-137 27 -219 54.5t-135 68.5q-63 43 -93 103.5t-30 146.5q0 190 138 298.5t376 108.5q141 0 251.5 -42t201.5 -128l-54 -82q-141 158 -399 158 q-203 0 -305.5 -78t-102.5 -221q0 -68 25 -115t78 -79q45 -29 113.5 -49.5t209.5 -53.5q258 -53 375 -129q137 -90 137 -272q0 -184 -139 -284.5t-381 -100.5q-340 0 -575 217z" />
<glyph unicode="T" horiz-adv-x="1241" d="M37 1360v94h1169v-94h-532v-1360h-105v1360h-532z" />
<glyph unicode="U" horiz-adv-x="1548" d="M168 723v731h104v-731q0 -291 124 -464t378 -173q260 0 381 173t121 464v731h104v-731q0 -336 -151.5 -534.5t-452.5 -198.5q-307 0 -457.5 200.5t-150.5 532.5z" />
<glyph unicode="V" horiz-adv-x="1390" d="M31 1454h110l553 -1323l553 1323h111l-615 -1454h-96z" />
<glyph unicode="W" horiz-adv-x="2136" d="M31 1454h112l559 -1331l302 708l-256 613h102l217 -529l217 529h102l-256 -613l306 -708l557 1331h114l-622 -1454h-96l-320 748l-321 -748h-97z" />
<glyph unicode="X" horiz-adv-x="1286" d="M14 1454h121l510 -661l508 661h119l-572 -737l555 -717h-118l-492 641l-493 -641h-121l555 717z" />
<glyph unicode="Y" horiz-adv-x="1325" d="M39 1454h115l508 -805l509 805h117l-573 -905v-549h-105v553z" />
<glyph unicode="Z" horiz-adv-x="1284" d="M61 0v86l1035 1274h-1020v94h1143v-86l-1026 -1274h1021v-94h-1153z" />
<glyph unicode="[" horiz-adv-x="505" d="M186 -82v1598h207v-89h-108v-1421h108v-88h-207z" />
<glyph unicode="\" horiz-adv-x="1122" d="M55 1454h121l891 -1454h-119z" />
<glyph unicode="]" horiz-adv-x="505" d="M111 6h110v1421h-110v89h206v-1598h-206v88z" />
<glyph unicode="^" horiz-adv-x="1077" d="M90 621l406 833h88l403 -833h-94l-352 729l-361 -729h-90z" />
<glyph unicode="_" horiz-adv-x="1062" d="M135 0h791v-94h-791v94z" />
<glyph unicode="`" horiz-adv-x="436" d="M100 1495h117l127 -174l-70 -33z" />
<glyph unicode="a" horiz-adv-x="1099" d="M72 309q0 90 57 162t158.5 113t228.5 41q84 0 172 -15.5t158 -42.5v105q0 152 -86 240.5t-234 88.5q-154 0 -342 -127l-39 70q207 139 390 139q193 0 303 -111.5t110 -307.5v-521q0 -51 45 -51v-92l-41 -4q-39 0 -64.5 26.5t-29.5 67.5v88q-74 -96 -187.5 -147 t-248.5 -51q-146 0 -248 96q-49 43 -75.5 103.5t-26.5 129.5zM170 315q0 -109 78 -180q37 -35 88 -54.5t106 -19.5q115 0 215.5 45.5t155.5 118.5q33 39 33 82v189q-141 57 -320 57q-158 0 -257 -64.5t-99 -173.5z" />
<glyph unicode="b" d="M160 0v1495h102v-661q169 249 416 249h2q106 0 198.5 -46t159.5 -128q61 -80 95 -179t34 -202q0 -109 -37.5 -208t-107.5 -175q-74 -80 -167 -122.5t-198 -42.5q-120 0 -230 63t-173 170v-213h-94zM262 356q6 -55 44 -108t95 -92q53 -39 117 -61.5t119 -22.5 q90 0 168 36.5t139 106.5q55 68 87 148.5t32 164.5q0 90 -29.5 172t-83.5 150q-57 68 -133 104.5t-162 36.5q-121 0 -227 -78.5t-166 -203.5v-353z" />
<glyph unicode="c" horiz-adv-x="1116" d="M86 537q0 110 39 211.5t108 175.5q74 76 170.5 117.5t206.5 41.5q145 0 256 -65.5t166 -181.5l-100 -33q-47 88 -134 138t-192 50q-86 0 -162.5 -34.5t-132.5 -96.5q-57 -63 -90 -147t-33 -176t34 -178.5t91 -149.5q55 -63 133 -100t162 -37q104 0 211 59q47 27 80 62.5 t45 74.5l100 -28q-43 -113 -162.5 -186.5t-269.5 -73.5q-109 0 -205 43t-169 122q-74 80 -113 180.5t-39 211.5z" />
<glyph unicode="d" horiz-adv-x="1259" d="M86 530q0 111 37 211.5t102 176.5q68 80 158 122.5t192 42.5q127 0 237 -67.5t179 -181.5v661h103v-1352q0 -51 43 -51v-92l-37 -4q-41 0 -70 29.5t-29 68.5v119q-66 -106 -175 -169.5t-228 -63.5q-109 0 -203 44t-164 126q-70 80 -107.5 178t-37.5 202zM190 528 q0 -90 33 -173t92 -146q125 -137 301 -137q56 0 119.5 22.5t118.5 63.5q129 96 137 200v351q-23 57 -64.5 109t-95.5 91q-57 37 -118.5 59.5t-114.5 22.5q-90 0 -166 -36.5t-131 -106.5q-53 -61 -82 -146.5t-29 -173.5z" />
<glyph unicode="e" horiz-adv-x="1193" d="M86 537q0 109 40 210t110 177t166 117.5t204 41.5q109 0 205 -42t170 -119q70 -76 108.5 -176.5t38.5 -208.5v-25q0 -18 -2 -20h-933q12 -182 137 -308q57 -57 132 -90t154 -33q111 0 208.5 56.5t138.5 148.5l90 -24q-47 -117 -168 -189.5t-273 -72.5q-108 0 -204.5 43 t-169.5 122q-74 80 -113 180.5t-39 211.5zM190 573h840q-12 180 -133 308q-57 57 -132 87.5t-157 30.5q-168 0 -286 -118q-57 -57 -91 -136t-41 -172z" />
<glyph unicode="f" horiz-adv-x="651" d="M57 981v84h150v35q0 197 80 306.5t221 109.5q61 0 118.5 -18.5t94.5 -49.5l-37 -74q-29 23 -72 37t-86 14q-104 0 -160.5 -82.5t-56.5 -240.5v-37h303v-84h-303v-981h-102v981h-150z" />
<glyph unicode="g" d="M86 530q0 109 36 210.5t101 177.5q68 80 159 122.5t200 42.5q246 0 417 -249v231h95v-1085q0 -102 -39 -185.5t-111 -140.5q-68 -55 -158 -83t-194 -28q-174 0 -288 61.5t-185 184.5l69 47q59 -102 166 -155.5t238 -53.5q82 0 154.5 22.5t127.5 67.5q117 94 117 263v233 q-66 -104 -174 -166.5t-227 -62.5q-105 0 -199 45t-162 125t-105.5 177t-37.5 199zM190 528q0 -90 33 -173t90 -146t137 -100t164 -37q66 0 130.5 24.5t119.5 67.5q53 41 86 92t41 102v351q-51 127 -160.5 204.5t-232.5 77.5q-180 0 -299 -147q-51 -68 -80 -150t-29 -166z " />
<glyph unicode="h" horiz-adv-x="1179" d="M160 0v1495h102v-684q66 125 181.5 198.5t248.5 73.5q168 0 253 -120.5t85 -350.5v-612h-102v594q0 395 -264 395q-131 0 -244 -94q-55 -45 -96 -106.5t-62 -129.5v-659h-102z" />
<glyph unicode="i" horiz-adv-x="423" d="M160 0v1065h102v-1065h-102zM160 1307v188h102v-188h-102z" />
<glyph unicode="j" horiz-adv-x="438" d="M-244 -287l56 68q59 -49 157 -49q80 0 143.5 61.5t63.5 145.5v1126h103v-1122q0 -131 -95 -219q-43 -41 -96 -63.5t-108 -22.5h-4q-139 0 -220 75zM176 1307v188h103v-188h-103z" />
<glyph unicode="k" horiz-adv-x="1069" d="M160 0v1495h102v-1044l647 612h119l-444 -432l458 -631h-112l-416 569l-252 -231v-338h-102z" />
<glyph unicode="l" horiz-adv-x="530" d="M168 180v1315h104v-1284q0 -59 34 -94t93 -35q66 0 113 20l20 -82q-35 -14 -86 -23t-88 -9q-86 0 -138 52t-52 140z" />
<glyph unicode="m" horiz-adv-x="1873" d="M160 0v1065h96v-254q66 129 172.5 200.5t235.5 71.5q133 0 218 -78.5t101 -209.5q149 288 416 288h2q166 0 244.5 -117.5t78.5 -353.5v-612h-102v594q0 203 -62.5 299t-191.5 96t-231.5 -91t-143.5 -241v-657h-102v594q0 205 -61.5 300t-190.5 95t-233.5 -93t-143.5 -237 v-659h-102z" />
<glyph unicode="n" horiz-adv-x="1179" d="M160 0v1065h96v-254q66 123 190.5 197.5t266.5 74.5q166 0 241.5 -116.5t75.5 -354.5v-612h-102v594q0 207 -58.5 301t-185.5 94q-68 0 -134.5 -24.5t-123.5 -69.5t-100 -106.5t-64 -129.5v-659h-102z" />
<glyph unicode="o" horiz-adv-x="1212" d="M86 530q0 109 40 211.5t110 178.5q74 80 168 121.5t202 41.5q109 0 203 -42t168 -121q72 -76 110.5 -177.5t38.5 -212.5q0 -109 -39.5 -210t-109.5 -177q-74 -80 -168 -121.5t-203 -41.5q-108 0 -203.5 41.5t-169.5 121.5q-70 76 -108.5 177.5t-38.5 209.5zM188 526 q0 -90 33 -174t90 -147t133 -98t160 -35t161 35.5t134 99.5q59 68 91 150.5t32 174.5q0 90 -33 175.5t-90 148.5q-129 135 -293 135q-82 0 -158.5 -36.5t-134.5 -100.5q-57 -63 -91 -150.5t-34 -177.5z" />
<glyph unicode="p" d="M160 -436v1501h94v-213q68 106 176.5 168.5t226.5 62.5q109 0 203 -44t164 -126q68 -78 105.5 -178t37.5 -205q0 -111 -34.5 -211t-98.5 -176q-66 -78 -158 -120.5t-196 -42.5q-127 0 -236.5 67.5t-181.5 181.5v-665h-102zM262 354q51 -121 160.5 -201.5t232.5 -80.5 q90 0 166 36.5t131 106.5q53 61 82 144t29 171q0 92 -32 175t-91 147q-59 66 -138 102.5t-165 36.5q-55 0 -117.5 -22.5t-118.5 -63.5q-127 -96 -139 -200v-351z" />
<glyph unicode="q" d="M86 530q0 109 40 210.5t110 177.5q70 80 163 122.5t197 42.5q121 0 230.5 -64.5t172.5 -168.5v215h95v-1354q0 -51 43 -53v-90q-4 -2 -19 -2h-16q-49 0 -80 29.5t-31 78.5v555q-169 -249 -416 -249h-2q-104 0 -193 44t-159 126q-66 78 -100.5 176t-34.5 204zM190 528 q0 -92 31 -174t86 -145q55 -66 130 -101.5t163 -35.5q121 0 222.5 73.5t168.5 200.5v348q-16 115 -135 207q-57 43 -120.5 66.5t-123.5 23.5q-90 0 -167.5 -38t-135.5 -105q-55 -61 -87 -147.5t-32 -172.5z" />
<glyph unicode="r" horiz-adv-x="698" d="M160 0v1065h98v-262q55 113 146.5 183.5t195.5 80.5q10 2 37 2h27v-96q-143 -4 -251 -86t-151 -221v-666h-102z" />
<glyph unicode="s" horiz-adv-x="985" d="M66 143l51 70q86 -78 178 -115t203 -37q141 0 225 59.5t84 162.5q0 49 -21.5 82.5t-64.5 58.5q-70 35 -254 80q-102 25 -163.5 45t-102.5 45q-43 31 -64.5 73t-21.5 101q0 150 109.5 232.5t281.5 82.5q119 0 216 -39.5t155 -109.5l-58 -55q-53 59 -137 90.5t-182 31.5 q-131 0 -209 -56t-78 -163q0 -47 15.5 -75.5t50.5 -49.5q29 -16 83 -32.5t130 -36.5q135 -33 199.5 -54.5t109.5 -48.5q55 -33 80.5 -79t25.5 -113q0 -143 -111.5 -228t-297.5 -85q-125 0 -236.5 41.5t-195.5 121.5z" />
<glyph unicode="t" horiz-adv-x="655" d="M53 981v84h150v365h102v-365h248v-84h-248v-778q0 -55 38 -87t95 -32q59 0 111 22l55 27l31 -82l-12 -6q-2 -2 -5.5 -4t-9.5 -4q-39 -25 -93 -37t-103 -12q-90 0 -149.5 51t-59.5 139v803h-150z" />
<glyph unicode="u" horiz-adv-x="1202" d="M150 451v614h102v-600q0 -393 268 -393q135 0 250 88t164 233v672h102v-922q0 -51 43 -51v-92q-4 -2 -18 -2h-12q-43 0 -74 26.5t-31 67.5v160q-68 -127 -189.5 -199.5t-265.5 -72.5q-339 0 -339 471z" />
<glyph unicode="v" horiz-adv-x="1081" d="M43 1065h107l393 -963l395 963h100l-444 -1065h-107z" />
<glyph unicode="w" horiz-adv-x="1650" d="M39 1065h100l408 -952l223 524l-180 426h88l147 -352l146 352h90l-180 -426l223 -524l405 952h103l-461 -1065h-86l-240 563l-239 -563h-86z" />
<glyph unicode="x" horiz-adv-x="1015" d="M35 1065h112l345 -440l16 -29l16 29l342 440h115l-414 -535l412 -530h-113l-342 438l-16 27l-16 -27l-342 -438h-113l412 530z" />
<glyph unicode="y" horiz-adv-x="1105" d="M35 1065h106l424 -965l396 965h100l-584 -1401q-49 -121 -209 -121h-16q-16 0 -21 2v95q4 -2 31 -2q45 0 72 12q12 4 22 18q6 6 29 45q16 29 47 103l78 184z" />
<glyph unicode="z" horiz-adv-x="1003" d="M66 0v74l753 911h-741v80h856v-74l-752 -911h748v-80h-864z" />
<glyph unicode="{" horiz-adv-x="507" d="M121 698v82q18 0 33.5 11.5t23.5 29.5q14 29 15 62v571q0 43 18 51q25 10 29 11h161v-89h-112v-567q0 -78 -51 -123q27 -25 39 -58.5t12 -64.5v-589h112v-88h-161q-20 0 -33.5 15t-13.5 46v594q0 43 -18.5 72.5t-53.5 33.5z" />
<glyph unicode="|" horiz-adv-x="456" d="M182 -266v1853h92v-1853h-92z" />
<glyph unicode="}" horiz-adv-x="507" d="M106 25h113v589q0 31 12.5 65t38.5 58q-51 45 -51 123v567h-113v89h162l29 -11q18 -8 18 -51v-571q0 -37 18.5 -70t53.5 -33v-82q-35 -4 -53.5 -33.5t-18.5 -72.5v-594q0 -31 -13 -46t-34 -15h-162v88z" />
<glyph unicode="~" horiz-adv-x="1009" d="M139 502l11 39q31 82 98 129q33 27 92 26q37 0 75 -14t89 -47q63 -37 93 -49.5t62 -12.5q66 0 111 52q16 18 25 37q8 14 8 20h69l-10 -31q-29 -76 -82 -112.5t-121 -36.5q-80 0 -174 61q-55 33 -85.5 46.5t-59.5 13.5q-57 0 -100 -60q-16 -23 -23 -41q-8 -14 -8 -20h-70z " />
<glyph unicode="&#xa2;" horiz-adv-x="1134" d="M90 528q0 104 34 200.5t97 172.5q63 80 151.5 126t192.5 54v240h64v-240q295 -10 407 -245l-98 -33q-96 176 -309 186v-915q43 0 96 14t96 41q104 55 129 139l101 -28q-43 -121 -179 -195q-127 -66 -243 -65v-226h-64v228q-98 8 -186 56t-156 128q-63 76 -98 170t-35 192 zM195 528q0 -84 27.5 -160.5t78.5 -138.5q49 -61 116.5 -101t147.5 -50v907q-84 -6 -153.5 -46t-118.5 -108q-49 -61 -73.5 -140t-24.5 -163z" />
<glyph unicode="&#xa3;" horiz-adv-x="997" d="M102 674v84h205l-49 88q-63 106 -84 176q-14 41 -14 96q0 143 106 244q49 49 113.5 75.5t138.5 26.5q109 0 202 -57t154 -158l-65 -63q-49 88 -129 139t-166 51q-68 0 -127 -35.5t-94 -96t-35 -130.5q0 -84 51 -178q23 -43 49 -86q27 -45 50 -92h360v-84h-326 q27 -78 27 -158q0 -106 -47 -198.5t-176 -233.5q88 16 147 16q57 0 101 -8l55 -10q94 -20 141 -21q74 0 189 39l26 -82q-106 -49 -221 -49q-63 0 -112.5 11.5t-51.5 11.5l-59 12q-57 10 -107 10q-92 0 -211 -28l-30 75q143 143 202.5 245t59.5 204q0 82 -31 164h-242z" />
<glyph unicode="&#xa5;" horiz-adv-x="1366" d="M57 1454h117l508 -805l510 805h115l-463 -723h180v-78h-225l-66 -104v-53h291v-76h-291v-420h-104v420h-289v76h289v57l-62 100h-227v78h182z" />
<glyph unicode="&#xa8;" horiz-adv-x="602" d="M117 1311v180h90v-180h-90zM395 1311v180h90v-180h-90z" />
<glyph unicode="&#xa9;" horiz-adv-x="1697" d="M100 727q0 156 55.5 291t157.5 235q104 100 241.5 155.5t293.5 55.5t294 -55t242 -156q102 -100 157.5 -235t55.5 -291q0 -158 -55 -293t-158 -235q-104 -104 -240 -158.5t-296 -54.5q-156 0 -295 56t-240 157q-102 100 -157.5 235t-55.5 293zM162 725q0 -143 50 -268 t144 -217q94 -94 220 -145.5t272 -51.5q145 0 271 49t218 139q96 96 147.5 220t51.5 270q0 145 -50 271t-145 220q-94 94 -220 144.5t-273 50.5q-145 0 -271 -50t-219 -143q-94 -94 -145 -220t-51 -269zM395 727q0 86 29 171t82 153q127 154 344 153q133 0 233.5 -57 t141.5 -162l-99 -33q-39 84 -112.5 122t-163.5 38q-170 0 -264 -125q-43 -53 -64.5 -120.5t-21.5 -139.5q0 -86 31.5 -156.5t89.5 -124.5q49 -49 111.5 -74.5t123.5 -25.5q88 0 170 46t117 122l98 -29q-25 -76 -125 -149q-113 -82 -254 -82q-88 0 -172 32.5t-149 94.5 q-70 63 -108 152.5t-38 193.5z" />
<glyph unicode="&#xab;" horiz-adv-x="1130" d="M84 498v61l500 359v-93l-414 -295l414 -292v-93zM498 498v61l499 359v-93l-413 -295l413 -292v-93z" />
<glyph unicode="&#xad;" horiz-adv-x="864" d="M137 510v94h590v-94h-590z" />
<glyph unicode="&#xae;" horiz-adv-x="1697" d="M100 727q0 156 55.5 291t157.5 235q104 100 241.5 155.5t293.5 55.5t294 -55t242 -156q102 -100 157.5 -235t55.5 -291q0 -158 -55 -293t-158 -235q-104 -104 -240 -158.5t-296 -54.5q-156 0 -295 56t-240 157q-102 100 -157.5 235t-55.5 293zM164 727q0 -145 50 -270 t144 -217q92 -94 218 -145.5t272 -51.5q145 0 271 49t218 139q94 94 146.5 221.5t52.5 274.5q0 141 -50 266t-145 219q-94 92 -221 143.5t-272 51.5t-271 -51t-219 -144q-94 -94 -144 -219t-50 -266zM543 256v934h389q111 0 194 -92q76 -92 76 -199q0 -106 -62.5 -186 t-158.5 -92l231 -365h-92l-225 354h-270v-354h-82zM625 684h309q86 0 137 60.5t51 154.5q0 92 -55 152.5t-141 60.5h-301v-428z" />
<glyph unicode="&#xb4;" horiz-adv-x="436" d="M100 1321l125 174h119l-172 -207z" />
<glyph unicode="&#xb8;" horiz-adv-x="555" d="M47 -311l29 55q33 -16 81 -27.5t97 -11.5q119 0 119 76q0 74 -101 74q-55 0 -166 -29l115 205l55 -25l-69 -115q29 12 82 13q70 0 108.5 -31t38.5 -90q0 -66 -49 -99.5t-141 -33.5q-113 0 -199 39z" />
<glyph unicode="&#xbb;" horiz-adv-x="1130" d="M133 145v93l416 292l-416 295v93l502 -359v-61zM547 145v93l414 292l-414 295v93l500 -359v-61z" />
<glyph unicode="&#x2c6;" horiz-adv-x="655" d="M92 1329l197 166h76l198 -166l-61 -35l-174 129l-174 -129z" />
<glyph unicode="&#x2da;" horiz-adv-x="499" d="M111 1368q0 55 39.5 91t99.5 36q59 0 99 -36t40 -91q0 -57 -40 -93t-99 -36t-99 36t-40 93zM168 1368q0 -35 23.5 -58.5t58.5 -23.5q33 0 58.5 23.5t25.5 58.5q0 37 -23.5 58.5t-60.5 21.5t-59.5 -21.5t-22.5 -58.5z" />
<glyph unicode="&#x2dc;" horiz-adv-x="813" d="M96 1309q0 14 9.5 41.5t23.5 52.5q45 76 141 76q35 0 62.5 -9.5t70.5 -31.5q53 -25 75 -33t52 -8q70 0 101 47q10 18 14 33l2 18h70q0 -16 -8.5 -43t-24.5 -51q-51 -76 -156 -76q-65 0 -143 41q-45 25 -67.5 33t-47.5 8q-59 0 -86 -45l-14 -33l-4 -20h-70z" />
<glyph unicode="&#x400;" d="M193 0v1454h950v-94h-846v-572h739v-90h-739v-604h864v-94h-968zM524 1880h117l127 -174l-70 -33z" />
<glyph unicode="&#x401;" d="M193 0v1454h950v-94h-846v-572h739v-90h-739v-604h864v-94h-968zM512 1696v180h90v-180h-90zM791 1696v180h90v-180h-90z" />
<glyph unicode="&#x402;" horiz-adv-x="1417" d="M33 1360v94h1059v-94h-568v-588q141 135 373 135q223 0 342 -119.5t119 -347.5q0 -225 -112.5 -342.5t-330.5 -117.5q-119 0 -217 45l33 94q53 -29 92 -38t92 -9q164 0 248 94t84 274q0 182 -91 276.5t-271 94.5q-106 0 -194.5 -36t-166.5 -113v-662h-104v1360h-387z" />
<glyph unicode="&#x403;" horiz-adv-x="1073" d="M193 0v1454h837v-94h-733v-1360h-104zM530 1704l125 174h119l-172 -207z" />
<glyph unicode="&#x404;" horiz-adv-x="1431" d="M90 737q0 133 47 262t133 232q94 111 225.5 171t292.5 60q193 0 332.5 -84t212.5 -233l-86 -49q-70 135 -194.5 202.5t-272.5 67.5q-254 0 -418 -180q-72 -80 -113.5 -183.5t-49.5 -214.5h759v-90h-761q6 -123 52 -234.5t124 -195.5q82 -88 188.5 -136t224.5 -48 q152 0 286 74.5t202 210.5l90 -43q-72 -158 -231.5 -248t-354.5 -90q-145 0 -273 62.5t-224 174.5q-92 104 -141.5 237.5t-49.5 274.5z" />
<glyph unicode="&#x405;" horiz-adv-x="1239" d="M72 205l55 84q94 -100 229.5 -154.5t294.5 -54.5q197 0 301.5 70.5t104.5 209.5q0 135 -113 209q-51 35 -133 61.5t-211 53.5q-137 27 -219 54.5t-135 68.5q-63 43 -93 103.5t-30 146.5q0 190 138 298.5t376 108.5q141 0 251.5 -42t201.5 -128l-54 -82q-141 158 -399 158 q-203 0 -305.5 -78t-102.5 -221q0 -68 25 -115t78 -79q45 -29 113.5 -49.5t209.5 -53.5q258 -53 375 -129q137 -90 137 -272q0 -184 -139 -284.5t-381 -100.5q-340 0 -575 217z" />
<glyph unicode="&#x406;" horiz-adv-x="487" d="M193 0v1454h104v-1454h-104z" />
<glyph unicode="&#x407;" horiz-adv-x="487" d="M59 1696v180h91v-180h-91zM193 0v1454h104v-1454h-104zM338 1696v180h90v-180h-90z" />
<glyph unicode="&#x408;" horiz-adv-x="980" d="M33 68l33 84q113 -78 282 -78q115 0 185.5 41t109.5 127q35 72 47 182.5t12 290.5v739h105v-739q0 -197 -16.5 -323t-59.5 -212q-51 -102 -144 -152.5t-239 -50.5q-182 0 -315 91z" />
<glyph unicode="&#x409;" horiz-adv-x="2035" d="M12 94q68 2 119 44t98 141q106 236 152 823l29 352h714v-633h412q209 0 324.5 -107.5t115.5 -297.5q0 -184 -116 -299q-57 -55 -139.5 -86t-180.5 -31h-520v1360h-514l-23 -273q-49 -588 -153 -841q-55 -129 -130 -190.5t-173 -61.5zM1124 94h416q162 0 247 87t85 235 q0 147 -83 230t-253 83h-412v-635z" />
<glyph unicode="&#x40a;" horiz-adv-x="2127" d="M193 0v1454h104v-633h790v633h105v-633h436q209 0 324.5 -107.5t115.5 -297.5q0 -184 -116 -299q-57 -55 -139 -86t-181 -31h-545v727h-790v-727h-104zM1192 94h440q162 0 246 87t84 235q0 147 -81 230t-253 83h-436v-635z" />
<glyph unicode="&#x40b;" horiz-adv-x="1431" d="M33 1360v94h1059v-94h-568v-574q80 51 180.5 79t204.5 28q223 0 331 -109.5t108 -341.5v-442h-101v422q0 201 -78.5 289t-257.5 88q-109 0 -211 -31t-176 -84v-684h-104v1360h-387z" />
<glyph unicode="&#x40c;" horiz-adv-x="1204" d="M193 0v1454h104v-655h254l471 655h123l-504 -698l563 -756h-123l-524 702h-260v-702h-104zM573 1704l125 174h119l-172 -207z" />
<glyph unicode="&#x40d;" horiz-adv-x="1509" d="M193 0v1454h104v-1298l954 1298h88v-1454h-104v1278l-942 -1278h-100zM600 1880h117l127 -174l-70 -33z" />
<glyph unicode="&#x40e;" horiz-adv-x="1269" d="M45 1454h113l485 -995l475 995h113l-541 -1118q-66 -135 -120 -211t-109 -108.5t-125 -32.5q-93 -1 -152 36v97q57 -39 144 -39q55 0 95 23.5t79 79t90 161.5zM354 1876h70q0 -55 62.5 -93t158.5 -38q92 0 154.5 37t66.5 94h68q0 -88 -77 -141.5t-212 -53.5 q-137 0 -214 53.5t-77 141.5z" />
<glyph unicode="&#x40f;" horiz-adv-x="1415" d="M193 0v1454h104v-1360h821v1360h105v-1454h-463v-381h-105v381h-462z" />
<glyph unicode="&#x410;" horiz-adv-x="1382" d="M29 0l618 1454h90l615 -1454h-111l-203 479h-694l-203 -479h-112zM369 565h641l-318 762z" />
<glyph unicode="&#x411;" horiz-adv-x="1329" d="M193 0v1454h964v-94h-860v-539h518q209 0 324.5 -107.5t115.5 -297.5q0 -123 -53 -217.5t-152.5 -146.5t-232.5 -52h-624zM297 94h520q162 0 247 87t85 235q0 147 -81 230t-253 83h-518v-635z" />
<glyph unicode="&#x412;" horiz-adv-x="1357" d="M174 0v1454h678q74 0 135.5 -30.5t106.5 -86.5q43 -51 66.5 -118.5t23.5 -135.5q0 -113 -56.5 -204t-152.5 -134q123 -37 196.5 -138t73.5 -230q0 -78 -29.5 -147.5t-85.5 -120.5q-55 -51 -126.5 -80t-149.5 -29h-680zM279 94h575q59 0 112.5 24.5t92.5 67.5t60.5 96.5 t21.5 108.5q0 58 -20.5 112t-57.5 97t-88 66.5t-107 23.5h-589v-596zM279 778h532q111 0 195 90q37 43 56 94.5t19 106.5q0 121 -71 205q-74 86 -187 86h-544v-582z" />
<glyph unicode="&#x413;" horiz-adv-x="1073" d="M193 0v1454h837v-94h-733v-1360h-104z" />
<glyph unicode="&#x414;" horiz-adv-x="1425" d="M35 94h43q86 16 137 80q59 78 104 287q45 211 82 641l31 352h756v-1360h190v-473h-94v379h-1155v-379h-94v473zM254 94h829v1266h-555l-22 -273q-37 -461 -92 -688q-57 -233 -160 -305z" />
<glyph unicode="&#x415;" d="M193 0v1454h950v-94h-846v-572h739v-90h-739v-604h864v-94h-968z" />
<glyph unicode="&#x416;" horiz-adv-x="1886" d="M8 0l492 756l-432 698h122l398 -655h299v655h112v-655h299l398 655h123l-435 -698l492 -756h-123l-444 702h-310v-702h-112v702h-309l-447 -702h-123z" />
<glyph unicode="&#x417;" horiz-adv-x="1079" d="M57 225l84 66q49 -92 150.5 -148.5t224.5 -56.5q164 0 264.5 89t100.5 237q0 160 -117 251t-326 91h-88v94h88q184 0 282.5 71.5t98.5 202.5q0 121 -80 184.5t-225 63.5q-106 0 -194.5 -41t-133.5 -110l-71 65q57 82 162.5 131t234.5 49q195 0 302.5 -88t107.5 -250 q0 -129 -64.5 -213t-191.5 -114q152 -25 235.5 -127.5t83.5 -255.5q0 -92 -35 -172t-98 -135q-63 -57 -151.5 -88t-192.5 -31q-150 0 -269.5 63.5t-181.5 171.5z" />
<glyph unicode="&#x418;" horiz-adv-x="1531" d="M193 0v1454h104v-1298l954 1298h88v-1454h-104v1278l-942 -1278h-100z" />
<glyph unicode="&#x419;" horiz-adv-x="1531" d="M193 0v1454h104v-1298l954 1298h88v-1454h-104v1278l-942 -1278h-100zM479 1876h70q0 -53 64.5 -92t156.5 -39q94 0 156.5 37t66.5 94h68q-2 -88 -79 -141.5t-212 -53.5t-212 53.5t-79 141.5z" />
<glyph unicode="&#x41a;" horiz-adv-x="1204" d="M193 0v1454h104v-655h254l471 655h123l-504 -698l563 -756h-123l-524 702h-260v-702h-104z" />
<glyph unicode="&#x41b;" horiz-adv-x="1316" d="M12 94q68 2 119 44t98 141q106 236 152 823l29 352h714v-1454h-104v1360h-514l-23 -273q-49 -588 -153 -841q-55 -129 -130 -190.5t-173 -61.5z" />
<glyph unicode="&#x41c;" horiz-adv-x="1804" d="M193 0v1454h104l606 -1040l606 1040h105v-1454h-105v1257l-573 -981h-66l-573 981v-1257h-104z" />
<glyph unicode="&#x41d;" horiz-adv-x="1509" d="M193 0v1454h104v-663h917v663h105v-1454h-105v696h-917v-696h-104z" />
<glyph unicode="&#x41e;" horiz-adv-x="1542" d="M90 727q0 141 51.5 275.5t145.5 238.5q94 106 219 164.5t266 58.5q145 0 272 -61.5t222 -171.5q88 -104 137 -236.5t49 -267.5q0 -145 -51 -277.5t-144 -236.5q-94 -106 -221 -164.5t-266 -58.5q-143 0 -269 60.5t-222 168.5q-90 102 -139.5 235.5t-49.5 272.5zM195 727 q0 -123 42 -238.5t119 -205.5q82 -94 188.5 -145.5t227.5 -51.5q125 0 231.5 52t186.5 151q74 90 115 204.5t41 233.5q0 125 -42 240.5t-120 206.5q-82 94 -186.5 144t-225.5 50q-125 0 -232.5 -52t-187.5 -149q-76 -92 -116.5 -206.5t-40.5 -233.5z" />
<glyph unicode="&#x41f;" horiz-adv-x="1474" d="M193 0v1454h1089v-1454h-104v1360h-881v-1360h-104z" />
<glyph unicode="&#x420;" horiz-adv-x="1273" d="M193 0v1454h598q88 0 165.5 -37t139.5 -104q55 -68 86.5 -149t31.5 -160q0 -88 -29.5 -170t-82.5 -146q-121 -139 -299 -139h-506v-549h-104zM297 645h502q70 0 128 28.5t99 82.5q39 49 60.5 114.5t21.5 133.5q0 70 -24.5 134t-69.5 115t-103.5 79t-124.5 28h-489v-715z " />
<glyph unicode="&#x421;" horiz-adv-x="1413" d="M90 737q0 133 47 262t133 232q94 111 223.5 171t284.5 60q186 0 326.5 -85t210.5 -232l-86 -49q-70 135 -192 202.5t-267 67.5q-262 0 -426 -203q-72 -90 -110.5 -202.5t-38.5 -229.5q0 -127 44 -242.5t123 -207.5q80 -92 188.5 -144.5t225.5 -52.5q152 0 282 76t197 209 l91 -43q-70 -156 -232 -247t-346 -91q-141 0 -266 62.5t-221 174.5q-90 104 -140.5 238.5t-50.5 273.5z" />
<glyph unicode="&#x422;" horiz-adv-x="1239" d="M35 1360v94h1169v-94h-532v-1360h-105v1360h-532z" />
<glyph unicode="&#x423;" horiz-adv-x="1269" d="M45 1454h113l485 -995l475 995h113l-541 -1118q-66 -135 -120 -211t-109 -108.5t-125 -32.5q-93 -1 -152 36v97q57 -39 146 -39q78 0 134 56t128 208z" />
<glyph unicode="&#x424;" horiz-adv-x="1509" d="M68 768q0 133 44 245.5t128 194.5q172 168 465 185v209h104v-209q139 -6 257 -53.5t204 -129.5q84 -82 127 -194.5t43 -247.5q0 -276 -172 -440q-86 -80 -203 -126t-256 -52v-220h-104v220q-190 8 -335 85.5t-223.5 214t-78.5 318.5zM174 772q0 -231 143.5 -372.5 t387.5 -153.5v1046q-250 -12 -390.5 -150t-140.5 -370zM809 246q119 6 216 45t167 106q141 141 141 375q0 233 -139 370.5t-385 149.5v-1046z" />
<glyph unicode="&#x425;" horiz-adv-x="1286" d="M14 1454h121l510 -661l508 661h119l-572 -737l555 -717h-118l-492 641l-493 -641h-121l555 717z" />
<glyph unicode="&#x426;" horiz-adv-x="1462" d="M193 0v1454h104v-1360h821v1360h105v-1360h192v-473h-96v379h-1126z" />
<glyph unicode="&#x427;" horiz-adv-x="1245" d="M94 1073v381h105v-364q0 -154 36.5 -245t116.5 -133t213 -42q115 0 220.5 24.5t162.5 63.5v696h105v-1454h-105v649q-88 -39 -181 -57.5t-208 -18.5q-242 0 -353.5 124t-111.5 376z" />
<glyph unicode="&#x428;" horiz-adv-x="1882" d="M193 0v1454h104v-1360h592v1360h104v-1360h594v1360h103v-1454h-1497z" />
<glyph unicode="&#x429;" horiz-adv-x="1929" d="M193 0v1454h104v-1360h594v1360h102v-1360h594v1360h105v-1360h190v-473h-94v379h-1595z" />
<glyph unicode="&#x42a;" horiz-adv-x="1482" d="M33 1360v94h549v-571h372q219 0 343 -118t124 -323q0 -199 -125 -317q-131 -125 -340 -125h-479v1360h-444zM582 94h374q174 0 266.5 95.5t92.5 252.5q0 162 -90 255.5t-271 93.5h-372v-697z" />
<glyph unicode="&#x42b;" horiz-adv-x="1660" d="M193 0v1454h104v-571h371q219 0 343 -118t124 -323q0 -199 -125 -317q-61 -61 -147.5 -93t-190.5 -32h-479zM297 94h375q174 0 266 95.5t92 252.5q0 162 -90 255.5t-272 93.5h-371v-697zM1364 0v1452h104v-1452h-104z" />
<glyph unicode="&#x42c;" horiz-adv-x="1196" d="M193 0v1454h104v-571h371q219 0 343 -118t124 -323q0 -199 -125 -317q-61 -61 -147.5 -93t-190.5 -32h-479zM297 94h375q174 0 266 95.5t92 252.5q0 162 -90 255.5t-272 93.5h-371v-697z" />
<glyph unicode="&#x42d;" horiz-adv-x="1431" d="M68 326l88 43q72 -135 205 -210t284 -75q119 0 224.5 48t187.5 136q78 84 124 195.5t52 234.5h-760v90h758q-8 111 -50 214.5t-114 183.5q-162 180 -416 180q-147 0 -272 -67.5t-195 -202.5l-86 49q74 150 213.5 233.5t331.5 83.5q158 0 290 -60.5t228 -170.5 q86 -98 132 -228.5t46 -265.5q0 -139 -49 -273t-139 -239q-96 -113 -224 -175t-274 -62q-194 0 -354 90t-231 248z" />
<glyph unicode="&#x42e;" horiz-adv-x="1988" d="M193 0v1454h104v-676h299q8 154 58.5 283t138.5 219q86 90 199.5 137t244.5 47q143 0 265 -54t210 -155q88 -100 135 -235t47 -293q0 -166 -48 -303t-140 -236q-88 -96 -209 -147t-262 -51q-135 0 -251 50t-202 144q-86 92 -134 219t-54 279h-297v-682h-104zM700 727 q0 -141 39 -261t113 -206q72 -84 170 -129t213 -45q123 0 226.5 47t176.5 133q74 86 113 204t39 257q0 143 -41 263t-117 206q-74 84 -176 128t-221 44q-121 0 -220.5 -46t-168.5 -132q-70 -86 -108 -205t-38 -258z" />
<glyph unicode="&#x42f;" horiz-adv-x="1286" d="M66 0l380 623q-137 43 -216.5 154.5t-79.5 256.5q0 82 32.5 159t91.5 134q63 61 148.5 94t185.5 33h486v-1454h-105v602h-436l-363 -602h-124zM256 1034q0 -68 22.5 -129t65.5 -106q96 -102 254 -103h391v664h-377q-154 0 -256 -92q-49 -45 -74.5 -105.5t-25.5 -128.5z " />
<glyph unicode="&#x430;" horiz-adv-x="1101" d="M72 309q0 90 57 162t158.5 113t228.5 41q84 0 172 -15.5t158 -42.5v105q0 152 -86 240.5t-234 88.5q-154 0 -342 -127l-39 70q207 139 390 139q193 0 303 -111.5t110 -307.5v-521q0 -51 45 -51v-92l-41 -4q-39 0 -64.5 26.5t-29.5 67.5v88q-74 -96 -187.5 -147 t-248.5 -51q-146 0 -248 96q-49 43 -75.5 103.5t-26.5 129.5zM170 315q0 -109 78 -180q37 -35 88 -54.5t106 -19.5q115 0 215.5 45.5t155.5 118.5q33 39 33 82v189q-141 57 -320 57q-158 0 -257 -64.5t-99 -173.5z" />
<glyph unicode="&#x431;" horiz-adv-x="1171" d="M121 582q0 383 142.5 593.5t420.5 274.5l301 68l21 -88l-320 -74q-205 -45 -319.5 -187.5t-139.5 -390.5q121 231 389 232q207 0 336 -142q61 -68 93 -164t32 -210q0 -111 -33.5 -206t-95.5 -163q-133 -145 -362 -145q-221 0 -343 158.5t-122 443.5zM227 498 q0 -191 101.5 -310.5t269.5 -119.5q172 0 276 122q49 57 75 135t26 169q0 199 -99.5 309t-279.5 110q-168 0 -268.5 -112.5t-100.5 -302.5z" />
<glyph unicode="&#x432;" horiz-adv-x="1062" d="M164 0v1065h510q113 0 186 -78q33 -37 51.5 -86t18.5 -98q0 -82 -40 -149.5t-112 -102.5q90 -25 142.5 -95.5t52.5 -168.5q0 -125 -84 -205q-43 -39 -98.5 -60.5t-116.5 -21.5h-510zM264 80h402q90 0 151 65q57 59 57 148q0 82 -55 143q-27 29 -65.5 46.5t-81.5 17.5 h-408v-420zM264 580h369q86 0 141 61t55 147t-50 141.5t-134 55.5h-381v-405z" />
<glyph unicode="&#x433;" horiz-adv-x="831" d="M162 0v1065h624v-80h-524v-985h-100z" />
<glyph unicode="&#x434;" horiz-adv-x="1155" d="M37 90h63q88 16 138 164q51 150 96 530l33 281h589v-975h134v-416h-93v326h-872v-326h-88v416zM246 90h610v891h-393l-31 -242q-37 -297 -82 -442q-47 -158 -104 -207z" />
<glyph unicode="&#x435;" horiz-adv-x="1193" d="M86 537q0 109 40 210t110 177t166 117.5t204 41.5q109 0 205 -42t170 -119q70 -76 108.5 -176.5t38.5 -208.5v-25q0 -18 -2 -20h-933q12 -182 137 -308q57 -57 132 -90t154 -33q111 0 208.5 56.5t138.5 148.5l90 -24q-47 -117 -168 -189.5t-273 -72.5q-108 0 -204.5 43 t-169.5 122q-74 80 -113 180.5t-39 211.5zM190 573h840q-12 180 -133 308q-57 57 -132 87.5t-157 30.5q-168 0 -286 -118q-57 -57 -91 -136t-41 -172z" />
<glyph unicode="&#x436;" horiz-adv-x="1525" d="M29 0l360 553l-319 514h116l291 -485h236v483h102v-483h236l288 485h117l-319 -514l360 -553h-117l-315 502h-250v-502h-102v502h-250l-318 -502h-116z" />
<glyph unicode="&#x437;" horiz-adv-x="837" d="M66 133l59 74q51 -70 113.5 -102.5t152.5 -32.5q123 0 192.5 63.5t69.5 173.5q0 115 -77.5 177.5t-219.5 62.5h-71v82h71q117 0 180.5 50t63.5 144q0 80 -54 126t-153 46q-135 0 -237 -104l-56 59q53 66 130 98.5t169 32.5q135 0 216 -68.5t81 -180.5q0 -96 -49 -160 t-135 -80q111 -16 176.5 -96t65.5 -193q0 -145 -101 -233q-49 -43 -118.5 -67.5t-147.5 -24.5q-207 0 -321 153z" />
<glyph unicode="&#x438;" horiz-adv-x="1196" d="M162 0v1065h100v-922l686 922h86v-1065h-102v905l-674 -905h-96z" />
<glyph unicode="&#x439;" horiz-adv-x="1196" d="M162 0v1065h100v-922l686 922h86v-1065h-102v905l-674 -905h-96zM344 1440h68q2 -113 194 -113q98 0 141.5 25.5t51.5 87.5h67q-4 -82 -70.5 -126t-189.5 -44t-190.5 45t-71.5 125z" />
<glyph unicode="&#x43a;" horiz-adv-x="960" d="M162 0v1065h100v-477h170l352 477h119l-391 -512l430 -553h-117l-385 506h-178v-506h-100z" />
<glyph unicode="&#x43b;" horiz-adv-x="1077" d="M16 88q57 2 98.5 35t71.5 104q66 160 109 557l29 281h591v-1065h-102v981h-393l-29 -242q-27 -219 -58.5 -360t-74.5 -225q-43 -82 -97.5 -119t-129.5 -39z" />
<glyph unicode="&#x43c;" horiz-adv-x="1388" d="M162 0v1065h100l432 -756l434 756h99v-1065h-101v879l-399 -697h-63l-402 697v-879h-100z" />
<glyph unicode="&#x43d;" horiz-adv-x="1175" d="M162 0v1065h100v-475h651v475h101v-1065h-101v502h-651v-502h-100z" />
<glyph unicode="&#x43e;" horiz-adv-x="1212" d="M86 530q0 109 40 211.5t110 178.5q74 80 168 121.5t202 41.5q109 0 203 -42t168 -121q72 -76 110.5 -177.5t38.5 -212.5q0 -109 -39.5 -210t-109.5 -177q-74 -80 -168 -121.5t-203 -41.5q-108 0 -203.5 41.5t-169.5 121.5q-70 76 -108.5 177.5t-38.5 209.5zM188 526 q0 -90 33 -174t90 -147t133 -98t160 -35t161 35.5t134 99.5q59 68 91 150.5t32 174.5q0 90 -33 175.5t-90 148.5q-129 135 -293 135q-82 0 -158.5 -36.5t-134.5 -100.5q-57 -63 -91 -150.5t-34 -177.5z" />
<glyph unicode="&#x43f;" horiz-adv-x="1144" d="M162 0v1065h819v-1065h-100v975h-619v-975h-100z" />
<glyph unicode="&#x440;" horiz-adv-x="1255" d="M162 -436v1501h94v-213q68 106 176.5 168.5t226.5 62.5q109 0 203 -44t164 -126q68 -78 105.5 -178t37.5 -205q0 -111 -34.5 -211t-98.5 -176q-66 -78 -158 -120.5t-196 -42.5q-127 0 -236.5 67.5t-181.5 181.5v-665h-102zM264 354q51 -121 161 -201.5t232 -80.5 q91 0 166.5 36.5t130.5 106.5q53 61 82 144t29 171q0 92 -32 175t-91 147q-59 66 -138 102.5t-165 36.5q-55 0 -117.5 -22.5t-118.5 -63.5q-127 -96 -139 -200v-351z" />
<glyph unicode="&#x441;" horiz-adv-x="1116" d="M86 537q0 110 39 211.5t108 175.5q74 76 170.5 117.5t206.5 41.5q145 0 256 -65.5t166 -181.5l-100 -33q-47 88 -134 138t-192 50q-86 0 -162.5 -34.5t-132.5 -96.5q-57 -63 -90 -147t-33 -176t34 -178.5t91 -149.5q55 -63 133 -100t162 -37q104 0 211 59q47 27 80 62.5 t45 74.5l100 -28q-43 -113 -162.5 -186.5t-269.5 -73.5q-109 0 -205 43t-169 122q-74 80 -113 180.5t-39 211.5z" />
<glyph unicode="&#x442;" horiz-adv-x="962" d="M43 975v90h877v-90h-388v-975h-100v975h-389z" />
<glyph unicode="&#x443;" horiz-adv-x="1105" d="M35 1065h106l424 -965l396 965h100l-526 -1268q-53 -133 -111.5 -191.5t-140.5 -58.5t-131 43l10 91q49 -43 114 -43q31 0 55.5 16t49.5 55q47 74 129 291z" />
<glyph unicode="&#x444;" horiz-adv-x="1388" d="M86 526q0 117 39 215.5t113 171.5q150 152 405 166v416h102v-416q254 -14 408 -166q150 -150 150 -387q0 -236 -154 -383q-74 -72 -177.5 -112.5t-226.5 -48.5v-418h-102v418q-123 6 -226.5 47t-176.5 112q-154 147 -154 385zM190 532q0 -199 124 -320.5t329 -133.5v901 q-207 -12 -330 -129q-59 -57 -91 -138t-32 -180zM745 78q205 12 329 134t124 320q0 197 -121 316t-332 131v-901z" />
<glyph unicode="&#x445;" horiz-adv-x="1015" d="M35 1065h112l345 -440l16 -29l16 29l342 440h115l-414 -535l412 -530h-113l-342 438l-16 27l-16 -27l-342 -438h-113l412 530z" />
<glyph unicode="&#x446;" horiz-adv-x="1148" d="M162 0v1065h100v-975h578v975h100v-975h164v-416h-90v326h-852z" />
<glyph unicode="&#x447;" horiz-adv-x="976" d="M90 784v281h100v-264q0 -158 62.5 -228.5t193.5 -70.5q80 0 152 17.5t115 45.5v500h102v-1065h-102v461q-63 -27 -128 -38t-151 -11q-178 0 -261 94t-83 278z" />
<glyph unicode="&#x448;" horiz-adv-x="1533" d="M162 0v1065h100v-975h453v975h102v-975h455v975h100v-1065h-1210z" />
<glyph unicode="&#x449;" horiz-adv-x="1581" d="M162 0v1065h100v-975h453v975h102v-975h455v975h100v-975h164v-416h-92v326h-1282z" />
<glyph unicode="&#x44a;" horiz-adv-x="1163" d="M41 975v90h451v-389h256q162 0 257 -89t95 -247q0 -154 -97.5 -247t-252.5 -93h-359v975h-350zM492 88h258q121 0 184 68.5t63 183.5q0 113 -64.5 180.5t-184.5 67.5h-256v-500z" />
<glyph unicode="&#x44b;" horiz-adv-x="1290" d="M162 0v1065h100v-389h258q160 0 255 -90t95 -246q0 -154 -97 -247t-253 -93h-358zM262 88h258q121 0 184.5 68.5t63.5 183.5t-63.5 181.5t-184.5 66.5h-258v-500zM1028 0v1065h100v-1065h-100z" />
<glyph unicode="&#x44c;" horiz-adv-x="933" d="M162 0v1065h100v-389h258q160 0 255 -90t95 -246q0 -154 -97 -247t-253 -93h-358zM262 88h258q121 0 184.5 68.5t63.5 183.5t-63.5 181.5t-184.5 66.5h-258v-500z" />
<glyph unicode="&#x44d;" horiz-adv-x="1105" d="M66 236l79 36q47 -98 146.5 -152t210.5 -54q84 0 157.5 32.5t131.5 94.5q121 127 131 309h-562v84h560q-8 82 -40 156.5t-85 129.5q-121 127 -293 127q-106 0 -196.5 -49t-145.5 -145l-74 39q59 113 163.5 176t248.5 63q117 0 216 -44t169 -126q68 -74 103.5 -173 t35.5 -203t-37 -204t-104 -177q-70 -82 -168.5 -128t-210.5 -46q-144 0 -265.5 68.5t-170.5 185.5z" />
<glyph unicode="&#x44e;" horiz-adv-x="1521" d="M162 0v1065h100v-485h203q12 223 147 368q63 66 147.5 101.5t182.5 35.5q109 0 199 -40.5t157 -116.5q66 -76 101 -178.5t35 -219.5q0 -248 -142 -401q-66 -72 -157 -110.5t-195 -38.5q-102 0 -187 36.5t-147 104.5q-131 139 -143 368h-201v-489h-100zM563 530 q0 -211 103.5 -334.5t275.5 -123.5q86 0 160 33.5t125 95.5q104 127 104 329q0 211 -108 338q-51 59 -124 91t-157 32t-155.5 -32.5t-120.5 -94.5q-102 -127 -103 -334z" />
<glyph unicode="&#x44f;" horiz-adv-x="1007" d="M68 0l311 432q-111 25 -175.5 105.5t-64.5 207.5q0 141 97 228q98 92 247 92h363v-1065h-101v420h-260l-299 -420h-118zM242 745q0 -104 59 -169.5t162 -65.5h282v465h-258q-104 0 -174.5 -65.5t-70.5 -164.5z" />
<glyph unicode="&#x450;" horiz-adv-x="1193" d="M86 537q0 109 40 210t110 177t166 117.5t204 41.5q109 0 205 -42t170 -119q70 -76 108.5 -176.5t38.5 -208.5v-25q0 -18 -2 -20h-933q12 -182 137 -308q57 -57 132 -90t154 -33q111 0 208.5 56.5t138.5 148.5l90 -24q-47 -117 -168 -189.5t-273 -72.5q-108 0 -204.5 43 t-169.5 122q-74 80 -113 180.5t-39 211.5zM190 573h840q-12 180 -133 308q-57 57 -132 87.5t-157 30.5q-168 0 -286 -118q-57 -57 -91 -136t-41 -172zM432 1495h117l127 -174l-70 -33z" />
<glyph unicode="&#x451;" horiz-adv-x="1193" d="M86 537q0 109 40 210t110 177t166 117.5t204 41.5q109 0 205 -42t170 -119q70 -76 108.5 -176.5t38.5 -208.5v-25q0 -18 -2 -20h-933q12 -182 137 -308q57 -57 132 -90t154 -33q111 0 208.5 56.5t138.5 148.5l90 -24q-47 -117 -168 -189.5t-273 -72.5q-108 0 -204.5 43 t-169.5 122q-74 80 -113 180.5t-39 211.5zM190 573h840q-12 180 -133 308q-57 57 -132 87.5t-157 30.5q-168 0 -286 -118q-57 -57 -91 -136t-41 -172zM420 1311v180h90v-180h-90zM698 1311v180h90v-180h-90z" />
<glyph unicode="&#x452;" horiz-adv-x="1183" d="M12 1221v82h150v192h102v-192h486v-82h-486v-521q53 147 165 232.5t255 85.5q178 0 263 -116t85 -353v-606q0 -127 -92 -219q-41 -41 -96.5 -63.5t-112.5 -22.5q-143 0 -219 75l55 68q53 -49 154 -49q37 0 76 16t69 45q63 57 64 146v591q0 199 -65.5 296.5t-207.5 97.5 q-139 0 -247.5 -107.5t-145.5 -275.5v-541h-102v1221h-150z" />
<glyph unicode="&#x453;" horiz-adv-x="833" d="M162 0v1065h624v-80h-524v-985h-100zM387 1321l125 174h119l-172 -207z" />
<glyph unicode="&#x454;" horiz-adv-x="1107" d="M86 537q0 106 35 204.5t102 171.5q70 82 169.5 126t217.5 44q143 0 247 -62.5t163 -176.5l-74 -39q-53 96 -144 145t-196 49q-86 0 -162.5 -32.5t-132.5 -94.5q-53 -55 -84.5 -129.5t-40.5 -156.5h559v-84h-561q12 -184 131 -309q127 -127 291 -127q111 0 209 54t146 152 l81 -36q-49 -117 -170.5 -185.5t-265.5 -68.5q-112 0 -210.5 46t-168.5 128q-68 78 -104.5 177t-36.5 204z" />
<glyph unicode="&#x455;" horiz-adv-x="985" d="M63 143l52 70q86 -78 178 -115t203 -37q141 0 225 59.5t84 162.5q0 49 -21.5 82.5t-64.5 58.5q-70 35 -254 80q-102 25 -163.5 45t-102.5 45q-43 31 -64.5 73t-21.5 101q0 150 109.5 232.5t281.5 82.5q119 0 216 -39.5t154 -109.5l-57 -55q-53 59 -137 90.5t-182 31.5 q-131 0 -209 -56t-78 -163q0 -47 15.5 -75.5t49.5 -49.5q29 -16 83.5 -32.5t129.5 -36.5q135 -33 200 -54.5t110 -48.5q55 -33 80.5 -79t25.5 -113q0 -143 -111.5 -228t-297.5 -85q-125 0 -237 41.5t-196 121.5z" />
<glyph unicode="&#x456;" horiz-adv-x="425" d="M162 0v1065h102v-1065h-102zM162 1307v188h102v-188h-102z" />
<glyph unicode="&#x457;" horiz-adv-x="425" d="M29 1311v180h90v-180h-90zM162 0v1065h102v-1065h-102zM307 1311v180h90v-180h-90z" />
<glyph unicode="&#x458;" horiz-adv-x="440" d="M-244 -287l56 68q59 -49 157 -49q80 0 143.5 61.5t63.5 145.5v1126h103v-1122q0 -131 -95 -219q-43 -41 -96 -63.5t-108 -22.5q-142 -1 -224 75zM176 1307v188h103v-188h-103z" />
<glyph unicode="&#x459;" horiz-adv-x="1617" d="M16 88q57 2 98.5 35t71.5 104q66 160 109 557l29 281h591v-440h306q150 0 236.5 -83t86.5 -229q0 -143 -89 -228t-234 -85h-408v981h-393l-29 -242q-27 -219 -58.5 -360t-74.5 -225q-43 -82 -97.5 -119t-129.5 -39zM915 88h306q109 0 165 61.5t56 163.5q0 104 -55.5 163 t-165.5 59h-306v-447z" />
<glyph unicode="&#x45a;" horiz-adv-x="1640" d="M162 0v1065h100v-440h563v440h101v-440h317q150 0 237 -83t87 -229q0 -141 -90.5 -227t-233.5 -86h-418v535h-563v-535h-100zM926 88h317q109 0 165 61.5t56 163.5q0 104 -55 163t-166 59h-317v-447z" />
<glyph unicode="&#x45b;" horiz-adv-x="1181" d="M10 1221v82h152v192h102v-192h486v-82h-486v-516q51 143 163 228t257 85q178 0 263 -115t85 -354v-549h-102v530q0 203 -66.5 298.5t-208.5 95.5q-139 0 -245 -107q-51 -51 -89 -122.5t-57 -151.5v-543h-102v1221h-152z" />
<glyph unicode="&#x45c;" horiz-adv-x="960" d="M162 0v1065h100v-477h170l352 477h119l-391 -512l430 -553h-117l-385 506h-178v-506h-100zM406 1321l124 174h119l-172 -207z" />
<glyph unicode="&#x45d;" horiz-adv-x="1173" d="M162 0v1065h100v-922l686 922h86v-1065h-102v905l-674 -905h-96zM406 1495h116l127 -174l-69 -33z" />
<glyph unicode="&#x45e;" horiz-adv-x="1105" d="M35 1065h106l424 -965l396 965h100l-586 -1401q-29 -68 -71 -92.5t-123 -26.5l-50 4v93l43 -4q39 0 55.5 6t32.5 28q18 25 56 101q35 74 92 227zM303 1440h68q2 -113 194 -113q98 0 141.5 25.5t51.5 87.5h67q-4 -82 -70.5 -126t-189.5 -44t-190.5 45t-71.5 125z" />
<glyph unicode="&#x45f;" horiz-adv-x="1103" d="M162 0v1067h100v-977h578v977h100v-1067h-340v-326h-100v326h-338z" />
<glyph unicode="&#x490;" horiz-adv-x="1073" d="M193 0v1454h745l12 361h80v-455h-733v-1360h-104z" />
<glyph unicode="&#x491;" horiz-adv-x="868" d="M162 0v1065h579l13 326h69v-410h-561v-981h-100z" />
<glyph unicode="&#x4b0;" horiz-adv-x="1282" d="M18 1454h117l506 -805l510 805h113l-572 -901v-57h291v-76h-291v-420h-104v420h-289v76h289v57z" />
<glyph unicode="&#x4b1;" horiz-adv-x="1132" d="M25 1065h116l424 -885l430 885h113l-492 -979v-8h256v-78h-256v-436h-104v436h-254v78h254v8z" />
<glyph unicode="&#x2000;" horiz-adv-x="940" />
<glyph unicode="&#x2001;" horiz-adv-x="1880" />
<glyph unicode="&#x2002;" horiz-adv-x="940" />
<glyph unicode="&#x2003;" horiz-adv-x="1880" />
<glyph unicode="&#x2004;" horiz-adv-x="626" />
<glyph unicode="&#x2005;" horiz-adv-x="470" />
<glyph unicode="&#x2006;" horiz-adv-x="313" />
<glyph unicode="&#x2007;" horiz-adv-x="313" />
<glyph unicode="&#x2008;" horiz-adv-x="235" />
<glyph unicode="&#x2009;" horiz-adv-x="376" />
<glyph unicode="&#x200a;" horiz-adv-x="104" />
<glyph unicode="&#x2010;" horiz-adv-x="864" d="M137 510v94h590v-94h-590z" />
<glyph unicode="&#x2011;" horiz-adv-x="864" d="M137 510v94h590v-94h-590z" />
<glyph unicode="&#x2012;" horiz-adv-x="864" d="M137 510v94h590v-94h-590z" />
<glyph unicode="&#x2013;" horiz-adv-x="1144" d="M137 510v94h871v-94h-871z" />
<glyph unicode="&#x2014;" horiz-adv-x="1826" d="M137 510v94h1553v-94h-1553z" />
<glyph unicode="&#x2018;" horiz-adv-x="378" d="M135 1106v186l43 203h55l-30 -203h39v-186h-107z" />
<glyph unicode="&#x2019;" horiz-adv-x="368" d="M137 1309v186h107v-186l-43 -203h-56l31 203h-39z" />
<glyph unicode="&#x201a;" horiz-adv-x="487" d="M193 0v188h104v-188l-43 -190h-55l30 190h-36z" />
<glyph unicode="&#x201c;" horiz-adv-x="595" d="M135 1106v186l43 203h55l-30 -203h39v-186h-107zM352 1106v186l43 203h56l-31 -203h39v-186h-107z" />
<glyph unicode="&#x201d;" horiz-adv-x="585" d="M137 1309v186h107v-186l-43 -203h-56l31 203h-39zM352 1309v186h107v-186l-43 -203h-56l31 203h-39z" />
<glyph unicode="&#x201e;" horiz-adv-x="692" d="M193 0v188h104v-188l-43 -190h-55l30 190h-36zM397 0v188h105v-188l-43 -190h-56l31 190h-37z" />
<glyph unicode="&#x2022;" horiz-adv-x="710" d="M180 707q0 70 52.5 122t123.5 52q72 0 125 -52q49 -51 49 -122q0 -74 -51 -125.5t-123 -51.5q-74 0 -125 51.5t-51 125.5z" />
<glyph unicode="&#x2026;" horiz-adv-x="851" d="M137 0v174h90v-174h-90zM383 0v174h88v-174h-88zM627 0v174h90v-174h-90z" />
<glyph unicode="&#x202f;" horiz-adv-x="376" />
<glyph unicode="&#x2039;" horiz-adv-x="718" d="M84 498v61l500 359v-93l-414 -295l414 -292v-93z" />
<glyph unicode="&#x203a;" horiz-adv-x="718" d="M133 145v93l416 292l-416 295v93l502 -359v-61z" />
<glyph unicode="&#x205f;" horiz-adv-x="470" />
<glyph unicode="&#x20ac;" horiz-adv-x="1652" d="M68 567l30 70h197q-6 49 -6 100v33h-154l31 70h129q16 123 70.5 234.5t140.5 197.5q92 92 211 141t260 49q186 0 326.5 -85t209.5 -232l-86 -49q-70 135 -191.5 202.5t-266.5 67.5q-233 0 -389 -162q-72 -72 -118 -167t-61 -197h736l-31 -70h-713v-39q0 -47 6 -94h662 l-33 -70h-616q49 -205 202 -342q76 -68 169.5 -104.5t191.5 -36.5q152 0 281.5 76t197.5 209l90 -43q-70 -156 -231.5 -247t-345.5 -91q-244 0 -430 174q-86 80 -144.5 184.5t-85.5 220.5h-239z" />
<glyph unicode="&#x2122;" horiz-adv-x="1427" d="M125 1380v78h465v-78h-195v-506h-76v506h-194zM684 874v580h102l189 -399l190 399h103v-580h-76v463l-184 -376h-64l-182 376v-463h-78z" />
<glyph unicode="&#x25fc;" horiz-adv-x="1064" d="M0 0v1065h1065v-1065h-1065z" />
</font>
</defs>
</svg>
