<?xml version="1.0" standalone="no"?>
<!DOCTYPE svg PUBLIC "-//W3C//DTD SVG 1.1//EN" "http://www.w3.org/Graphics/SVG/1.1/DTD/svg11.dtd" >
<svg xmlns="http://www.w3.org/2000/svg" xmlns:xlink="http://www.w3.org/1999/xlink" version="1.1">
<metadata></metadata>
<defs>
<font id="mysmskasemibold" horiz-adv-x="862" >
<font-face units-per-em="2048" ascent="1638" descent="-410" />
<missing-glyph horiz-adv-x="505" />
<glyph horiz-adv-x="0" />
<glyph unicode="&#xd;" horiz-adv-x="0" />
<glyph unicode=" "  horiz-adv-x="505" />
<glyph unicode="&#x09;" horiz-adv-x="505" />
<glyph unicode="&#xa0;" horiz-adv-x="505" />
<glyph unicode="!" horiz-adv-x="581" d="M178 0v281h225v-281h-225zM178 518v950h225v-950h-225z" />
<glyph unicode="&#x22;" horiz-adv-x="731" d="M131 1026v451h193v-451h-193zM408 1026v451h192v-451h-192z" />
<glyph unicode="#" horiz-adv-x="1445" d="M76 397v172h270l78 324h-256v160h297l96 401h184l-98 -401h295l98 401h185l-101 -401h246v-160h-285l-77 -324h270v-172h-311l-97 -397h-184l98 397h-297l-96 -397h-184l100 397h-231zM528 569h297l78 324h-297z" />
<glyph unicode="$" horiz-adv-x="1286" d="M72 182l104 197q57 -61 182 -116.5t252 -67.5v423l-24 9l-27 6q-121 33 -197.5 64.5t-125.5 72.5q-109 88 -109 252q0 188 128 306t341 134v207h106v-207q244 -16 445 -162l-105 -188q-47 53 -146 95t-210 50v-423l39 -9q125 -31 211 -63.5t139 -75.5q129 -100 129 -283 q0 -199 -137 -306t-365 -111v-215h-106v219q-303 20 -524 192zM367 1059q0 -80 55 -124t188 -81v403q-244 -12 -243 -198zM686 193q131 2 201.5 49t70.5 137q0 82 -62 129t-210 90v-405z" />
<glyph unicode="%" horiz-adv-x="1552" d="M74 1169q0 125 96 217q43 41 102.5 65t126.5 24q68 0 127.5 -24t104.5 -65q94 -94 94 -217q0 -61 -24.5 -116.5t-69.5 -98.5q-45 -41 -104.5 -64.5t-127.5 -23.5q-67 0 -126.5 23.5t-102.5 64.5q-45 43 -70.5 99.5t-25.5 115.5zM166 82l575 682l541 702l107 -92 l-566 -674l-553 -712zM233 1169q0 -78 49.5 -132t116.5 -54q66 0 116 55.5t50 130.5q0 80 -49 136q-23 25 -53.5 39t-63.5 14q-68 0 -117 -56.5t-49 -132.5zM827 285q0 59 26 115.5t71 99.5q43 41 102 64.5t127 23.5t127 -23.5t104 -64.5q45 -43 70 -98.5t25 -116.5 t-24.5 -116.5t-70.5 -98.5q-45 -43 -104 -66.5t-127 -23.5t-127 23.5t-102 66.5q-45 43 -71 99t-26 116zM987 285q0 -39 13.5 -74t35.5 -59q49 -55 117 -56q70 0 118 55.5t48 133.5t-49 133q-53 53 -117 53q-66 0 -116 -55.5t-50 -130.5z" />
<glyph unicode="&#x26;" horiz-adv-x="1425" d="M88 397q0 123 68.5 223.5t199.5 190.5q-90 96 -129 172t-39 152q0 72 30 135t81 108t123 70t151 25q74 0 141.5 -20.5t119.5 -59.5q51 -39 80.5 -98.5t29.5 -131.5q0 -104 -69.5 -196.5t-204.5 -182.5l327 -344q74 152 74 332h184q-4 -279 -127 -469l291 -303h-297 l-133 139q-184 -160 -422 -159q-102 0 -192 32.5t-154 89.5q-63 55 -98 132t-35 163zM305 395q0 -104 84 -170.5t203 -66.5q153 -1 276 110l-376 400q-94 -66 -140.5 -131.5t-46.5 -141.5zM395 1141q0 -37 29 -84q20 -35 111 -131q109 68 155.5 121t46.5 112q0 66 -45 106 t-119 40q-78 0 -128 -47.5t-50 -116.5z" />
<glyph unicode="'" horiz-adv-x="454" d="M131 1024v453h193v-453h-193z" />
<glyph unicode="(" horiz-adv-x="606" d="M78 709q0 176 73.5 374.5t223.5 452.5l174 -74q-96 -141 -178 -364.5t-82 -395.5q0 -305 254 -714l-164 -84q-301 449 -301 805z" />
<glyph unicode=")" horiz-adv-x="606" d="M57 1462l172 74q156 -264 226.5 -454.5t70.5 -372.5q0 -359 -299 -805l-166 84q256 416 256 714q0 172 -78.5 387.5t-181.5 372.5z" />
<glyph unicode="*" horiz-adv-x="690" d="M113 1268l32 102l146 -59l-8 155h125l-9 -155l146 59l30 -102l-141 -45l92 -138l-90 -61l-90 145l-92 -145l-90 61l92 138z" />
<glyph unicode="+" horiz-adv-x="858" d="M100 637v180h228v248h202v-248h228v-180h-228v-248h-202v248h-228z" />
<glyph unicode="," horiz-adv-x="452" d="M125 12v250h203v-250l-72 -211h-106l49 211h-74z" />
<glyph unicode="-" d="M125 459v203h612v-203h-612z" />
<glyph unicode="." horiz-adv-x="436" d="M125 0v262h186v-262h-186z" />
<glyph unicode="/" horiz-adv-x="1359" d="M55 0l998 1454h250l-998 -1454h-250z" />
<glyph unicode="0" horiz-adv-x="1257" d="M31 717q0 223 76.5 393t214.5 258q135 86 307 86q176 0 312 -88t210 -252q78 -174 78 -397t-77 -392t-214 -257t-309 -88q-174 0 -308.5 88t-211.5 254q-78 172 -78 395zM299 717q0 -246 87 -376t243 -130q157 0 244.5 131t87.5 375t-87.5 375t-244.5 131 q-156 0 -243 -130t-87 -376z" />
<glyph unicode="1" horiz-adv-x="964" d="M16 1210v224h570v-1434h-267v1210h-303z" />
<glyph unicode="2" horiz-adv-x="1124" d="M16 1217q84 113 226.5 175t318.5 62q233 0 372.5 -110.5t139.5 -301.5q0 -125 -52 -226t-185 -226l-383 -365h675v-225h-1056v178l569 541q90 86 127 154.5t37 142.5q0 100 -67.5 153.5t-198.5 53.5q-219 0 -336 -150z" />
<glyph unicode="3" horiz-adv-x="1124" d="M2 145l115 207q78 -66 189.5 -103.5t230.5 -37.5q141 0 222 58.5t81 158.5q0 104 -79 158.5t-233 54.5h-131v182l326 387h-651v224h977v-179l-349 -413q195 -25 301.5 -134.5t106.5 -277.5q0 -129 -65.5 -229.5t-188.5 -159.5q-129 -61 -313 -61q-154 0 -296.5 44 t-242.5 121z" />
<glyph unicode="4" horiz-adv-x="1155" d="M-41 326v184l707 924h284l-665 -883h469v289h250v-289h253v-225h-253v-326h-259v326h-786z" />
<glyph unicode="5" horiz-adv-x="1128" d="M27 145l112 207q80 -66 191.5 -103.5t230.5 -37.5q141 0 222 58.5t81 160.5q0 115 -92 169t-293 54h-346l74 781h842v-224h-617l-31 -331h138q293 0 443.5 -114t150.5 -325q0 -131 -66 -235.5t-188 -163.5q-125 -61 -314 -61q-154 0 -297 44t-241 121z" />
<glyph unicode="6" horiz-adv-x="1243" d="M47 692q0 236 87 409t249 265q156 88 367 88q111 0 208 -23.5t168 -68.5l-98 -201q-106 70 -272 70q-209 0 -325 -128t-116 -366v-2q63 74 161.5 112t221.5 38q142 0 254.5 -54.5t175.5 -154.5t64 -232q0 -137 -68.5 -243.5t-189.5 -163.5q-115 -57 -266 -57 q-297 0 -459 185t-162 527zM356 430q0 -106 81 -174t216 -68q125 0 203 67t78 177q0 113 -78 178.5t-209 65.5q-129 0 -210 -69.5t-81 -176.5z" />
<glyph unicode="7" horiz-adv-x="1122" d="M6 965v469h1114v-179l-557 -1255h-284l538 1208h-563v-243h-248z" />
<glyph unicode="8" horiz-adv-x="1230" d="M29 412q0 117 59 203.5t170 138.5q-86 47 -132 124.5t-46 176.5q0 121 65.5 211t188.5 139q121 49 278 49q160 0 281 -49t188 -139q68 -88 68 -211q0 -98 -47 -175t-135 -126q112 -52 172.5 -139t60.5 -203q0 -129 -71.5 -227.5t-206.5 -151.5q-137 -53 -310 -53 q-178 0 -310 52t-202 150q-72 102 -71 230zM297 420q0 -109 84 -170.5t231 -61.5q148 0 234 61.5t86 170.5q0 106 -86 167.5t-234 61.5q-147 0 -231 -61.5t-84 -167.5zM342 1042q0 -92 72.5 -146t197.5 -54q127 0 201 54t74 146q0 96 -73 149.5t-202 53.5q-125 0 -197.5 -53 t-72.5 -150z" />
<glyph unicode="9" horiz-adv-x="1206" d="M29 989q0 137 68.5 243.5t189.5 164.5q115 57 266 57q297 0 459 -185.5t162 -527.5q0 -236 -86.5 -407.5t-247.5 -263.5q-164 -90 -369 -90q-111 0 -208 23.5t-169 68.5l99 200q106 -70 272 -69q209 0 324.5 128t115.5 365v2q-63 -74 -161.5 -111.5t-221.5 -37.5 q-141 0 -253.5 54t-176.5 155q-63 100 -63 231zM287 1001q0 -113 77.5 -178t208.5 -65q129 0 210 69.5t81 176.5q0 106 -81 173.5t-216 67.5q-125 0 -202.5 -66.5t-77.5 -177.5z" />
<glyph unicode=":" horiz-adv-x="456" d="M135 0v262h187v-262h-187zM135 801v260h187v-260h-187z" />
<glyph unicode=";" horiz-adv-x="489" d="M143 12v250h203v-250l-72 -211h-106l49 211h-74zM145 801v260h185v-260h-185z" />
<glyph unicode="&#x3c;" horiz-adv-x="1048" d="M68 469v113l860 520v-240l-535 -332l535 -323v-250z" />
<glyph unicode="=" horiz-adv-x="897" d="M131 332v149h633v-149h-633zM131 649v150h633v-150h-633z" />
<glyph unicode="&#x3e;" horiz-adv-x="1048" d="M121 -43v250l534 323l-534 332v240l862 -520v-113z" />
<glyph unicode="?" horiz-adv-x="987" d="M70 1208q55 123 169.5 194t258.5 71q166 0 284 -95q131 -106 131 -305q0 -121 -58 -204t-179 -146q-61 -35 -92 -55.5t-56 -44.5q-68 -68 -67 -170h-189q0 115 39 194.5t131 134.5l19 13q10 4 22 12l41 22q109 55 164 142q29 47 29 110q0 92 -65.5 149.5t-159.5 57.5 q-84 0 -156 -49t-119 -131zM272 0v258h189v-258h-189z" />
<glyph unicode="@" horiz-adv-x="1726" d="M90 471q0 170 60.5 313.5t173.5 247.5q106 98 244.5 150.5t291.5 52.5q152 0 289 -53.5t242 -151.5q111 -104 170 -251.5t59 -323.5q0 -113 -23.5 -216.5t-78.5 -170.5q-80 -100 -209 -101q-92 0 -132 44t-55 132q-61 -68 -153 -105.5t-195 -37.5q-145 0 -228 77t-83 206 q0 76 31.5 134t91.5 95q98 61 258 61q133 0 243 -45q0 141 -55 210t-186 69q-166 0 -279 -92l-45 123q158 102 344 102q225 0 308 -141q31 -51 42 -120t11 -163v-221q0 -117 21.5 -169t80.5 -52q53 0 93 39t61 106q18 53 27.5 117.5t9.5 122.5q0 141 -49.5 267t-137.5 220 q-92 94 -215 144.5t-264 50.5q-139 0 -260 -48.5t-213 -140.5t-141.5 -216t-49.5 -265q0 -139 47.5 -262t133.5 -215q88 -94 207.5 -146.5t257.5 -52.5q86 0 156.5 18.5t160.5 59.5l33 -90q-166 -82 -352 -82q-154 0 -288 55.5t-237 159.5q-106 106 -162.5 248.5 t-56.5 306.5zM602 289q0 -74 50 -120t134 -46q90 0 185 43q114 55 114 174v78l-92 24q-66 18 -149 19q-113 0 -177.5 -43t-64.5 -129z" />
<glyph unicode="A" horiz-adv-x="1382" d="M14 0l578 1454h201l573 -1454h-242l-153 395h-561l-152 -395h-244zM451 565h475l-234 625z" />
<glyph unicode="B" horiz-adv-x="1382" d="M164 0v1454h749q74 0 135.5 -30.5t106.5 -86.5q43 -51 66.5 -118.5t23.5 -135.5q0 -111 -56 -203t-153 -135q125 -37 198 -134t73 -236q0 -84 -34 -154.5t-97 -120.5q-61 -49 -143.5 -74.5t-174.5 -25.5h-694zM393 199h465q90 0 151.5 63.5t61.5 155.5q0 43 -15.5 85 t-39.5 72q-27 31 -64 49.5t-80 18.5h-479v-444zM393 827h422q84 0 142.5 60.5t58.5 152.5q0 94 -53.5 154.5t-135.5 60.5h-434v-428z" />
<glyph unicode="C" horiz-adv-x="1400" d="M72 737q0 135 48 264t138 232q96 109 229.5 169t288.5 60q188 0 332.5 -85t220.5 -232l-180 -121q-57 119 -156.5 175t-224.5 56q-213 0 -344 -168q-57 -74 -88 -168t-31 -190q0 -104 35 -201.5t98 -171.5q63 -76 150.5 -118.5t185.5 -42.5q125 0 229.5 62t157.5 177 l191 -108q-68 -156 -242 -250q-80 -43 -169 -65.5t-175 -22.5q-145 0 -273 62.5t-227 174.5q-92 104 -143 238.5t-51 273.5z" />
<glyph unicode="D" horiz-adv-x="1466" d="M164 0v1454h516q340 0 530 -213q88 -96 133.5 -227t45.5 -285q0 -164 -49.5 -297t-143.5 -231t-226 -149.5t-290 -51.5h-516zM393 203h287q221 0 354 151q59 68 90 165t31 210q0 115 -31.5 211t-93.5 166q-63 70 -152.5 107.5t-197.5 37.5h-287v-1048z" />
<glyph unicode="E" horiz-adv-x="1234" d="M164 0v1454h979v-203h-750v-413h649v-191h-649v-444h768v-203h-997z" />
<glyph unicode="F" horiz-adv-x="1185" d="M164 0v1454h969v-203h-740v-434h619v-190h-619v-627h-229z" />
<glyph unicode="G" horiz-adv-x="1472" d="M74 733q0 145 51 279.5t145 234.5q94 104 222.5 160.5t273.5 56.5q199 0 342 -83t221 -234l-176 -127q-59 115 -161.5 176t-231.5 61q-98 0 -183 -41.5t-147 -117.5q-59 -74 -91 -170.5t-32 -200.5q0 -106 36 -202.5t99 -172.5q63 -74 149.5 -114.5t184.5 -40.5 q227 0 406 213v155h-305v170h497v-735h-192v180q-184 -190 -424 -190q-141 0 -267 58t-221 165q-94 104 -145 239.5t-51 280.5z" />
<glyph unicode="H" horiz-adv-x="1521" d="M164 0v1454h229v-608h733v608h232v-1454h-232v641h-733v-641h-229z" />
<glyph unicode="I" horiz-adv-x="557" d="M164 0v1454h229v-1454h-229z" />
<glyph unicode="J" horiz-adv-x="999" d="M20 68l56 188q43 -31 113.5 -51.5t146.5 -20.5q92 0 149.5 33t87.5 102q25 59 36.5 153.5t11.5 242.5v739h231v-739q0 -195 -19.5 -321t-66.5 -214q-55 -102 -160.5 -152.5t-269.5 -50.5q-182 0 -316 91z" />
<glyph unicode="K" horiz-adv-x="1351" d="M164 0v1452h229v-747l684 749h254l-573 -643l606 -811h-256l-492 670l-223 -232v-438h-229z" />
<glyph unicode="L" horiz-adv-x="1196" d="M164 0v1454h229v-1251h781v-203h-1010z" />
<glyph unicode="M" horiz-adv-x="1781" d="M164 0v1454h246l481 -889l481 889h246v-1454h-232v1047l-432 -793h-127l-434 793v-1047h-229z" />
<glyph unicode="N" horiz-adv-x="1570" d="M164 0v1454h180l832 -1048v1046h231v-1452h-190l-824 1024v-1024h-229z" />
<glyph unicode="O" horiz-adv-x="1540" d="M72 727q0 141 53 274.5t147 239.5t223.5 164.5t276.5 58.5t276.5 -61.5t227.5 -171.5q90 -104 140 -236.5t50 -269.5q0 -143 -52 -275.5t-146 -236.5q-98 -106 -227.5 -164.5t-272.5 -58.5q-152 0 -281 59.5t-223 169.5q-92 102 -142 235.5t-50 272.5zM305 727 q0 -102 33 -198.5t94 -170.5q63 -76 150.5 -118.5t187.5 -42.5q209 0 340 168q59 72 90 167t31 195q0 104 -33 199.5t-92 169.5q-63 76 -150.5 117.5t-185.5 41.5q-104 0 -191 -43t-151 -122q-59 -74 -91 -168.5t-32 -194.5z" />
<glyph unicode="P" horiz-adv-x="1275" d="M164 0v1454h610q92 0 177 -39t147 -108q59 -68 93 -153t34 -173q0 -90 -32 -174t-89 -154q-61 -72 -142 -109.5t-176 -37.5h-393v-506h-229zM393 709h379q96 0 157.5 77.5t61.5 194.5q0 119 -69 197q-33 35 -75 54t-87 19h-367v-542z" />
<glyph unicode="Q" horiz-adv-x="1536" d="M72 727q0 141 53 274.5t147 239.5t223.5 164.5t276.5 58.5t276.5 -61.5t227.5 -171.5q90 -104 140 -236.5t50 -269.5q0 -141 -50 -272t-144 -236l190 -217h-221l-94 106q-171 -116 -375 -116h-4q-145 0 -275.5 60.5t-228.5 168.5q-92 102 -142 235.5t-50 272.5zM305 727 q0 -102 33 -198.5t94 -170.5q63 -76 150.5 -118.5t187.5 -42.5h4q127 0 232 69l-207 240h221l104 -121q106 143 107 342q0 104 -33 199.5t-92 169.5q-66 78 -151 119.5t-185 41.5q-104 0 -191 -43t-151 -122q-59 -74 -91 -169.5t-32 -195.5z" />
<glyph unicode="R" horiz-adv-x="1353" d="M164 0v1454h633q92 0 177 -39t146 -108q59 -68 93 -153t34 -173q0 -145 -78 -266q-37 -57 -91 -99.5t-115 -62.5l342 -553h-261l-315 506h-336v-506h-229zM393 709h402q96 0 157.5 78.5t61.5 193.5q0 109 -70 190q-33 37 -75 58.5t-87 21.5h-389v-542z" />
<glyph unicode="S" horiz-adv-x="1251" d="M53 182l105 197q66 -66 194 -119q162 -67 301 -67h4q137 0 210 47t73 139q0 53 -25.5 91t-80.5 67q-41 23 -103.5 43t-189.5 53q-121 33 -198 64.5t-126 72.5q-108 87 -108 249q0 105 39.5 188t113.5 145q70 55 166 83.5t209 28.5q135 0 261 -44t230 -120l-104 -188 q-47 55 -160.5 101.5t-232.5 46.5q-141 0 -212 -51.5t-71 -149.5q0 -53 21.5 -87t66.5 -59q41 -23 95.5 -40t175.5 -48q125 -31 211 -63.5t139 -75.5q129 -100 129 -283q0 -213 -156 -319q-145 -98 -377 -98q-168 0 -322.5 50t-277.5 146z" />
<glyph unicode="T" horiz-adv-x="1261" d="M31 1251v203h1200v-203h-483v-1251h-232v1251h-485z" />
<glyph unicode="U" horiz-adv-x="1540" d="M143 717v737h230v-737q0 -236 98 -378t299 -142t299 140t98 380v737h232v-737q0 -322 -146 -512q-164 -215 -483 -215q-313 0 -470 199.5t-157 527.5z" />
<glyph unicode="V" horiz-adv-x="1388" d="M12 1454h244l438 -1165l436 1165h244l-581 -1454h-197z" />
<glyph unicode="W" horiz-adv-x="2152" d="M8 1454h250l455 -1188l217 535l-250 647h217l178 -494l180 494h215l-247 -647l217 -535l452 1188h252l-600 -1454h-196l-271 651l-272 -651h-197z" />
<glyph unicode="X" horiz-adv-x="1312" d="M0 1454h254l403 -573l404 573h252l-533 -737l516 -717h-252l-387 553l-387 -553h-254l519 717z" />
<glyph unicode="Y" horiz-adv-x="1345" d="M18 1454h252l402 -729l405 729h252l-543 -934v-520h-229v524z" />
<glyph unicode="Z" horiz-adv-x="1288" d="M63 0v176l883 1075h-862v203h1130v-176l-862 -1075h865v-203h-1154z" />
<glyph unicode="[" horiz-adv-x="598" d="M170 -82v1598h334v-183h-125v-1233h125v-182h-334z" />
<glyph unicode="\" horiz-adv-x="1253" d="M55 1454h252l891 -1454h-250z" />
<glyph unicode="]" horiz-adv-x="598" d="M94 -82v182h125v1233h-125v183h334v-1598h-334z" />
<glyph unicode="^" horiz-adv-x="1165" d="M84 621l405 833h189l403 -833h-188l-309 639l-316 -639h-184z" />
<glyph unicode="_" horiz-adv-x="1003" d="M121 0h762v-203h-762v203z" />
<glyph unicode="`" horiz-adv-x="497" d="M96 1495h215l117 -225l-143 -45z" />
<glyph unicode="a" horiz-adv-x="1155" d="M57 315q0 100 57.5 177t161 119t234.5 42q156 0 283 -49v74q0 119 -68 185.5t-195 66.5q-158 0 -340 -123l-69 143q207 139 430 140q221 0 344 -114t123 -323v-387q0 -70 59 -73v-193q-57 -10 -102 -10q-61 0 -99 30.5t-47 85.5l-6 68q-72 -94 -177 -144t-226 -50 q-74 0 -141.5 25.5t-116.5 70.5t-77 106.5t-28 132.5zM270 334q0 -80 59.5 -134.5t151.5 -54.5q82 0 155 30t114 83q43 37 43 78v141q-119 47 -248 47q-123 0 -199 -52t-76 -138z" />
<glyph unicode="b" horiz-adv-x="1286" d="M135 0v1495h225v-627q68 109 164.5 165.5t218.5 56.5q102 0 190.5 -43t156.5 -125q61 -78 95 -179.5t34 -212.5t-38 -212t-108 -177q-68 -76 -163 -118.5t-197 -42.5q-121 0 -221.5 57t-157.5 158v-195h-199zM360 383q23 -86 111 -148.5t182 -62.5q140 0 242 109 q43 49 67.5 113.5t24.5 135.5q0 72 -23.5 138.5t-64.5 117.5q-45 51 -104.5 81t-124.5 30q-98 0 -181 -63.5t-129 -167.5v-283z" />
<glyph unicode="c" horiz-adv-x="1144" d="M66 537q0 112 38.5 212.5t112.5 176.5q74 80 177.5 122t226.5 42q160 0 281.5 -71t182.5 -196l-219 -69q-39 68 -104.5 105.5t-145.5 37.5q-68 0 -126 -26.5t-101 -73.5q-92 -104 -92 -260q0 -152 96 -261q43 -49 101.5 -76.5t123.5 -27.5q84 0 157 43t97 104l222 -65 q-55 -127 -181.5 -200.5t-291.5 -73.5q-121 0 -224.5 44t-177.5 123q-74 78 -113.5 178.5t-39.5 211.5z" />
<glyph unicode="d" horiz-adv-x="1304" d="M68 539q0 111 35.5 211t101.5 176q141 164 342 164q123 0 223 -59.5t158 -162.5v627h225v-1229q0 -39 13.5 -55t47.5 -18v-193q-66 -10 -92 -10q-68 0 -110.5 34.5t-46.5 90.5l-4 80q-59 -100 -163 -157.5t-227 -57.5q-104 0 -197 41.5t-163 121.5q-68 76 -105.5 178.5 t-37.5 217.5zM301 532q0 -72 25.5 -138t70.5 -115q45 -51 104.5 -79t125.5 -28q100 0 188 61.5t113 151.5v281q-37 102 -127 166.5t-191 64.5q-129 0 -221 -113q-41 -51 -64.5 -116.5t-23.5 -135.5z" />
<glyph unicode="e" horiz-adv-x="1218" d="M66 532q0 113 39.5 214.5t113.5 179.5q74 80 177.5 122t226.5 42q119 0 220 -43t179 -121q72 -74 109.5 -173.5t37.5 -209.5q0 -27 -6 -82h-858q12 -139 107 -228q43 -43 99 -65.5t118 -22.5q92 0 168.5 45.5t111.5 118.5l193 -55q-57 -125 -186.5 -199.5t-294.5 -74.5 q-121 0 -224.5 41.5t-177.5 121.5q-74 76 -113.5 176.5t-39.5 212.5zM299 616h647q-12 135 -104 224q-43 41 -100.5 62.5t-120.5 21.5q-131 0 -220 -84q-90 -86 -102 -224z" />
<glyph unicode="f" horiz-adv-x="729" d="M53 870v174h144v43q0 199 92 314t250 115q129 0 249 -66l-49 -168q-31 18 -73.5 30.5t-79.5 12.5q-80 0 -122 -59.5t-42 -171.5v-50h274v-174h-274v-870h-225v870h-144z" />
<glyph unicode="g" horiz-adv-x="1288" d="M70 535q0 115 35.5 216t103.5 177q70 76 162 119t196 43q123 0 221.5 -58.5t165.5 -163.5v203h199v-1040q0 -229 -162 -359q-76 -63 -180 -96t-227 -33q-168 0 -288 57.5t-206 172.5l127 118q61 -84 157.5 -130t209.5 -46q154 0 249 81t95 235v164q-55 -96 -154.5 -150.5 t-214.5 -54.5q-104 0 -194.5 42t-157.5 122q-66 76 -101.5 174t-35.5 207zM299 528q0 -72 25.5 -135t70.5 -114t106.5 -79t131.5 -28q98 0 184 62.5t111 150.5v281q-41 102 -129 166.5t-183 64.5q-141 0 -231 -115q-41 -51 -63.5 -117.5t-22.5 -136.5z" />
<glyph unicode="h" horiz-adv-x="1222" d="M135 0v1495h225v-639q61 111 167 172.5t231 61.5q338 0 338 -437v-653h-226v600q0 289 -202 289q-98 0 -185.5 -70.5t-122.5 -181.5v-637h-225z" />
<glyph unicode="i" horiz-adv-x="495" d="M135 0v1071h225v-1071h-225zM135 1247v248h225v-248h-225z" />
<glyph unicode="j" horiz-adv-x="507" d="M-236 -299l101 152q51 -47 131 -48q61 0 106 45.5t45 110.5v1110h226v-1094q0 -160 -103 -266q-102 -102 -247 -102q-155 0 -259 92zM147 1247v248h226v-248h-226z" />
<glyph unicode="k" horiz-adv-x="1122" d="M135 0v1495h225v-948l492 522h246l-416 -448l438 -621h-239l-342 494l-179 -168v-326h-225z" />
<glyph unicode="l" horiz-adv-x="616" d="M137 227v1268h225v-1186q0 -59 31 -93t86 -34q47 0 109 27l33 -176q-47 -23 -114 -36t-124 -13q-117 0 -181.5 63.5t-64.5 179.5z" />
<glyph unicode="m" horiz-adv-x="1898" d="M135 0v1071h205v-215q63 113 166.5 173.5t236.5 60.5q127 0 207 -67t99 -177q68 119 171 181.5t232 62.5q322 0 322 -437v-653h-226v600q0 289 -192 289q-96 0 -175 -70.5t-114 -183.5v-635h-225v600q0 289 -191 289q-96 0 -176 -69.5t-115 -182.5v-637h-225z" />
<glyph unicode="n" horiz-adv-x="1222" d="M135 0v1071h205v-215q61 109 178 171.5t258 62.5q176 0 256 -129q63 -109 64 -308v-653h-226v600q0 147 -47 218t-143 71q-102 0 -192.5 -70.5t-127.5 -181.5v-637h-225z" />
<glyph unicode="o" horiz-adv-x="1232" d="M66 535q0 113 38.5 214t112.5 175q76 80 178.5 123t220.5 43q119 0 222.5 -43t179.5 -123q72 -76 110.5 -177.5t38.5 -211.5q0 -111 -38.5 -212.5t-110.5 -177.5q-76 -80 -179.5 -122.5t-222.5 -42.5q-120 0 -222.5 43t-178.5 122q-72 76 -110.5 177.5t-38.5 212.5z M297 532q0 -154 92 -256q43 -49 101.5 -76.5t125.5 -27.5q68 0 126.5 27.5t101.5 76.5q92 104 92 259q0 74 -24.5 141t-67.5 117q-43 49 -101.5 76.5t-126.5 27.5q-66 0 -124 -28.5t-101 -77.5q-45 -51 -69.5 -118t-24.5 -141z" />
<glyph unicode="p" horiz-adv-x="1286" d="M135 -436v1507h199v-192q63 100 161.5 155.5t217.5 55.5q104 0 198.5 -43t163.5 -123q68 -76 106 -176.5t38 -210.5q0 -115 -35 -217.5t-99 -176.5q-136 -163 -340 -163h-2q-122 0 -221.5 58t-161.5 163v-637h-225zM360 406q43 -100 130.5 -167t179.5 -67q137 0 231 113 q41 51 63.5 116.5t22.5 135.5q0 72 -24.5 137t-69.5 117q-45 51 -106.5 78.5t-133.5 27.5q-43 0 -90 -16.5t-88 -44.5q-94 -66 -115 -150v-280z" />
<glyph unicode="q" horiz-adv-x="1286" d="M70 537q0 115 37.5 215t105.5 176q70 78 162 120t198 42q117 0 216.5 -57.5t162.5 -155.5v194h199v-1231q0 -37 14.5 -53t51.5 -20v-193q-49 -8 -121 -8q-70 0 -120 48t-50 116v471q-131 -221 -383 -221q-103 0 -190 43t-150 122q-63 76 -98 178.5t-35 213.5zM299 530 q0 -72 24.5 -137t67.5 -114q94 -106 234 -107q184 0 301 205v282q-23 98 -113 168q-96 70 -188 70q-68 0 -128.5 -29.5t-105.5 -83.5q-43 -51 -67.5 -117.5t-24.5 -136.5z" />
<glyph unicode="r" horiz-adv-x="765" d="M135 0v1071h209v-240q55 111 144.5 177.5t191.5 72.5h35q18 0 22 -2v-202q-135 -4 -234.5 -61.5t-142.5 -160.5v-655h-225z" />
<glyph unicode="s" horiz-adv-x="1015" d="M47 141l90 144q201 -141 383 -142q100 0 158.5 39t58.5 111q0 68 -65 98q-63 29 -205 68q-117 31 -183.5 55.5t-105.5 52.5q-45 33 -65.5 76t-20.5 105q0 158 121 253q55 43 131 66t164 23q244 0 412 -144l-97 -135q-150 119 -317 119q-94 0 -148.5 -38t-54.5 -112 q0 -55 33 -81.5t94 -43.5q10 -4 107 -28q121 -31 196.5 -57.5t120.5 -57.5q51 -37 75.5 -85t24.5 -116q0 -154 -115.5 -242.5t-314.5 -88.5q-133 0 -260 41.5t-217 119.5z" />
<glyph unicode="t" horiz-adv-x="751" d="M49 897v174h141v352h226v-352h233v-174h-233v-598q4 -53 33.5 -81t80.5 -28q74 0 154 43l47 -178q-154 -71 -277 -71h-3q-117 0 -189 61t-72 182v670h-141z" />
<glyph unicode="u" horiz-adv-x="1247" d="M125 416v655h225v-610q0 -289 205 -289q100 0 184 61.5t131 169.5v668h226v-805q0 -39 13 -55t48 -18v-193q-66 -10 -100 -10q-61 0 -104.5 33.5t-45.5 87.5l-4 106q-72 -115 -185.5 -176t-252.5 -61q-168 0 -254 109.5t-86 326.5z" />
<glyph unicode="v" horiz-adv-x="1112" d="M27 1071h231l307 -881l309 881h213l-409 -1071h-242z" />
<glyph unicode="w" horiz-adv-x="1699" d="M12 1071h215l346 -854l156 397l-186 455h184l123 -336l121 336h184l-184 -455l155 -397l344 854h216l-451 -1071h-186l-199 498l-199 -498h-186z" />
<glyph unicode="x" horiz-adv-x="1069" d="M16 0l396 535l-392 536h234l262 -366l19 -35l18 35l260 366h236l-392 -536l396 -535h-236l-264 365l-18 32l-19 -32l-264 -365h-236z" />
<glyph unicode="y" horiz-adv-x="1120" d="M18 1071h232l332 -872l295 872h213l-486 -1319q-37 -100 -119 -158.5t-202 -58.5q-57 0 -111 16v197q66 -14 109 -14q27 0 47 11t39 40q31 45 92 215z" />
<glyph unicode="z" horiz-adv-x="1009" d="M57 0v141l643 770h-620v160h858v-141l-639 -770h645v-160h-887z" />
<glyph unicode="{" horiz-adv-x="600" d="M90 659v160q37 0 65.5 42t28.5 83v510q0 39 19 51q25 10 28 11h271v-183h-113v-459q0 -76 -65 -137q31 -29 48 -65.5t17 -71.5v-481h113v-182h-271q-18 0 -32.5 15t-14.5 46v532q0 49 -26.5 85t-67.5 44z" />
<glyph unicode="|" horiz-adv-x="524" d="M166 -266v1853h192v-1853h-192z" />
<glyph unicode="}" horiz-adv-x="600" d="M100 -63v182h113v481q0 78 63 137q-63 59 -63 137v459h-113v183h269q4 0 28 -11q18 -12 19 -51v-510q0 -45 27.5 -85t66.5 -40v-160q-41 -8 -67.5 -43.5t-26.5 -85.5v-532q0 -31 -13.5 -46t-33.5 -15h-269z" />
<glyph unicode="~" horiz-adv-x="1124" d="M125 475q0 20 16.5 61.5t40.5 77.5q80 111 203 111q43 0 85 -13.5t97 -41.5q66 -35 97.5 -46.5t68.5 -11.5q68 0 113 50q20 27 22 34l6 21h130q0 -6 -13 -47q-35 -92 -106.5 -143.5t-153.5 -51.5q-43 0 -83 13.5t-103 43.5q-59 31 -93 43.5t-69 12.5q-63 0 -104 -56 q-16 -23 -21 -36l-6 -21h-127z" />
<glyph unicode="&#xa2;" horiz-adv-x="1187" d="M84 528q0 104 33 198.5t94 170.5q131 162 354 190v234h107v-234q147 -4 257.5 -72.5t174.5 -191.5l-217 -69q-37 61 -92.5 96t-122.5 39v-711q78 10 140 49t81 92l219 -65q-55 -127 -194 -205q-133 -70 -246 -69v-226h-107v228q-100 8 -189 56t-157 128q-63 76 -99 171 t-36 191zM315 528q0 -59 18.5 -115.5t51.5 -101.5t80 -77.5t100 -45.5v693q-113 -20 -181.5 -119.5t-68.5 -233.5z" />
<glyph unicode="&#xa3;" horiz-adv-x="1081" d="M106 145q121 109 176.5 204t55.5 196l-4 57h-221v172h163q-8 20 -26 49q-51 98 -72.5 158.5t-21.5 124.5q0 72 31.5 138.5t86.5 115.5t129 76.5t158 27.5q117 0 224.5 -57t179.5 -158l-121 -139q-49 78 -128 124t-159 46q-86 0 -141.5 -55.5t-55.5 -139.5q0 -66 43 -151 l41 -78q4 -8 39 -82h373v-172h-326l5 -47q0 -96 -43 -183t-146 -196q90 23 154 23q78 0 145 -19q66 -18 137 -18q59 0 164 35l55 -168q-102 -59 -231 -60q-72 0 -180 29q-106 27 -184 27q-111 0 -246 -41z" />
<glyph unicode="&#xa5;" horiz-adv-x="1431" d="M59 1454h252l402 -729l405 729h252l-391 -657h158v-150h-238l-72 -127v-59h312v-150h-312v-311h-231v311h-307v150h307v63l-68 123h-239v150h162z" />
<glyph unicode="&#xa8;" horiz-adv-x="841" d="M145 1260v225h189v-225h-189zM508 1260v225h188v-225h-188z" />
<glyph unicode="&#xa9;" horiz-adv-x="1716" d="M92 727q0 154 56.5 290t160.5 236t244.5 155.5t300.5 55.5q162 0 304 -55t249 -156q104 -100 161.5 -236t57.5 -290q0 -158 -56.5 -293t-162.5 -235q-106 -102 -247.5 -157.5t-305.5 -55.5q-162 0 -302 55t-243 158q-104 100 -160.5 236t-56.5 292zM188 725 q0 -135 49.5 -254t141.5 -207q90 -90 213 -139t262 -49t263 47t216 133q94 88 144.5 208t50.5 259q0 137 -50.5 257t-142.5 208q-92 90 -215 138t-266 48q-139 0 -261 -49t-214 -137q-90 -88 -140.5 -208t-50.5 -255zM369 727q0 92 31.5 179t91.5 155q63 74 158 112.5 t212 38.5q152 0 265.5 -65.5t166.5 -183.5l-217 -70q-33 66 -91 95.5t-124 29.5q-121 0 -194 -88q-33 -39 -51.5 -93.5t-18.5 -109.5q0 -135 86 -215q39 -37 86 -56.5t96 -19.5q68 0 129.5 35t89.5 94l220 -65q-45 -109 -163 -182.5t-272 -73.5q-104 0 -197 35.5t-161 101.5 q-68 68 -105.5 156t-37.5 190z" />
<glyph unicode="&#xab;" horiz-adv-x="1271" d="M78 469v113l528 379v-187l-348 -244l348 -235v-184zM621 469v113l530 379v-187l-350 -244l350 -235v-184z" />
<glyph unicode="&#xad;" d="M125 459v203h612v-203h-612z" />
<glyph unicode="&#xae;" horiz-adv-x="1716" d="M92 727q0 156 56.5 291t160.5 235q106 100 246.5 155.5t300.5 55.5t302 -55t249 -156q104 -100 161.5 -236t57.5 -290q0 -158 -56.5 -293t-162.5 -235q-106 -104 -246.5 -158.5t-304.5 -54.5t-303 54t-244 159q-104 100 -160.5 235t-56.5 293zM193 727q0 -137 49 -257 t139 -208q94 -92 214 -140t261 -48q139 0 262 47t215 133q92 88 142.5 209t50.5 262q0 135 -49.5 255t-141.5 208q-94 88 -218 137t-261 49q-139 0 -260 -48t-215 -138q-90 -88 -139 -207t-49 -254zM532 272v910h396q59 0 111.5 -24.5t90.5 -67.5q37 -43 58.5 -96.5 t21.5 -108.5q0 -92 -50 -166t-132 -101l219 -346h-182l-201 318h-170v-318h-162zM694 731h224q61 0 97 42t36 112q0 68 -39 109.5t-101 41.5h-217v-305z" />
<glyph unicode="&#xb4;" horiz-adv-x="497" d="M96 1270l117 225h215l-184 -270z" />
<glyph unicode="&#xb8;" horiz-adv-x="634" d="M45 -346l47 88q27 -16 79 -28.5t101 -12.5q117 0 117 70q0 37 -26.5 53t-79.5 16q-66 0 -164 -24l123 233l92 -31l-72 -110q27 8 70 8q78 0 123 -35t45 -102q0 -76 -63.5 -121t-180.5 -45q-106 0 -211 41z" />
<glyph unicode="&#xbb;" horiz-adv-x="1271" d="M123 111v184l348 235l-348 244v187l528 -379v-113zM666 111v184l350 235l-350 244v187l528 -379v-113z" />
<glyph unicode="&#x2c6;" horiz-adv-x="727" d="M70 1300l213 195h161l213 -195l-120 -57l-175 129l-174 -129z" />
<glyph unicode="&#x2da;" horiz-adv-x="526" d="M82 1346q0 71 49 110t131 39q86 0 134 -39t48 -110q0 -68 -50 -109t-132 -41q-80 0 -130 41t-50 109zM180 1346q0 -31 23.5 -53.5t58.5 -22.5t59.5 21.5t24.5 54.5q0 35 -23.5 55t-60.5 20t-59.5 -20.5t-22.5 -54.5z" />
<glyph unicode="&#x2dc;" horiz-adv-x="872" d="M74 1249q0 25 12 64t35 71q61 100 172 101q37 0 68.5 -10.5t74.5 -34.5q47 -27 70.5 -36t54.5 -9q63 0 94 47q8 16 15 35l2 18h129q0 -18 -13.5 -57t-35.5 -74q-66 -104 -185 -104q-75 0 -145 45q-45 25 -68.5 34t-52.5 9q-57 0 -84 -45q-8 -18 -12 -35l-4 -19h-127z" />
<glyph unicode="&#x400;" horiz-adv-x="1239" d="M168 0v1454h979v-203h-750v-413h650v-191h-650v-444h768v-203h-997zM444 1878h215l117 -225l-143 -45z" />
<glyph unicode="&#x401;" horiz-adv-x="1239" d="M168 0v1454h979v-203h-750v-413h650v-191h-650v-444h768v-203h-997zM406 1642v226h188v-226h-188zM768 1642v226h188v-226h-188z" />
<glyph unicode="&#x402;" horiz-adv-x="1478" d="M31 1253v201h1143v-201h-564v-446q68 59 162 90t201 31q217 0 339 -126t122 -358q0 -223 -114 -343.5t-329 -120.5q-137 0 -252 45l66 192q55 -25 95 -35t81 -10q217 0 217 272q0 285 -250 285q-182 0 -338 -137v-592h-227v1253h-352z" />
<glyph unicode="&#x403;" horiz-adv-x="1060" d="M168 0v1454h862v-203h-631v-1251h-231zM508 1651l117 225h215l-185 -270z" />
<glyph unicode="&#x404;" horiz-adv-x="1431" d="M74 737q0 135 47 264t137 232q94 111 230.5 170t304.5 59q203 0 347 -83t222 -234l-180 -121q-57 121 -160.5 176t-237.5 55q-203 0 -325 -127q-55 -55 -91 -131.5t-49 -158.5h656v-191h-662q12 -92 50 -174t100 -143q63 -63 147 -99t181 -36q131 0 240.5 62t164.5 177 l190 -108q-68 -156 -232.5 -247t-371.5 -91q-152 0 -284.5 62.5t-231.5 174.5q-92 104 -142 238.5t-50 273.5z" />
<glyph unicode="&#x405;" horiz-adv-x="1251" d="M53 182l105 197q66 -66 194 -119q164 -68 305 -67q137 0 210 47t73 139q0 53 -25.5 91t-80.5 67q-41 23 -103.5 43t-189.5 53q-121 33 -198 64.5t-126 72.5q-109 88 -108 252q0 102 39.5 185t113.5 145q70 55 166 83.5t209 28.5q135 0 261 -44t230 -120l-104 -188 q-47 55 -160.5 101.5t-232.5 46.5q-141 0 -212 -51.5t-71 -149.5q0 -53 21.5 -87t66.5 -59q41 -23 95.5 -40t175.5 -48q125 -31 211 -63.5t139 -75.5q129 -100 129 -283q0 -213 -156 -319q-145 -98 -377 -98q-168 0 -322.5 50t-277.5 146z" />
<glyph unicode="&#x406;" horiz-adv-x="567" d="M168 0v1454h229v-1454h-229z" />
<glyph unicode="&#x407;" horiz-adv-x="567" d="M8 1642v226h189v-226h-189zM168 0v1454h229v-1454h-229zM371 1642v226h188v-226h-188z" />
<glyph unicode="&#x408;" horiz-adv-x="1003" d="M20 68l56 188q43 -31 113.5 -51.5t146.5 -20.5q92 0 149.5 33t87.5 102q25 59 36.5 153.5t11.5 242.5v739h231v-739q0 -195 -19.5 -321t-66.5 -214q-55 -102 -160.5 -152.5t-269.5 -50.5q-182 0 -316 91z" />
<glyph unicode="&#x409;" horiz-adv-x="2093" d="M16 199q80 6 130.5 39.5t84.5 115.5q41 92 71 258t52 439l35 403h823v-582h381q94 0 176 -28.5t142 -83.5q129 -119 129 -322q0 -209 -127 -325q-59 -55 -140 -84t-176 -29h-616v1251h-381l-18 -233q-25 -297 -64 -489.5t-98 -307.5q-61 -121 -153.5 -178t-223.5 -57z M1212 199h373q104 0 162.5 63.5t58.5 175.5q0 113 -58 177.5t-163 64.5h-373v-481z" />
<glyph unicode="&#x40a;" horiz-adv-x="2164" d="M168 0v1454h231v-586h654v586h229v-582h381q94 0 177 -28.5t142 -83.5q129 -119 129 -322q0 -135 -57 -234.5t-157.5 -151.5t-229.5 -52h-614v666h-654v-666h-231zM1282 199h373q109 0 166 61.5t57 173.5q0 113 -57.5 175.5t-165.5 62.5h-373v-473z" />
<glyph unicode="&#x40b;" horiz-adv-x="1484" d="M31 1253v201h1134v-201h-555v-438q72 53 169.5 83t207.5 30q201 0 310.5 -105.5t109.5 -310.5v-512h-225v444q0 147 -54.5 211t-181.5 64q-190 0 -336 -123v-596h-227v1253h-352z" />
<glyph unicode="&#x40c;" horiz-adv-x="1304" d="M168 0v1454h231v-616h152l461 616h262l-520 -702l567 -752h-262l-486 631h-174v-631h-231zM586 1651l116 225h216l-185 -270z" />
<glyph unicode="&#x40d;" horiz-adv-x="1503" d="M168 0v1454h231v-1100l793 1100h182v-1454h-231v1079l-781 -1079h-194zM535 1878h215l116 -225l-143 -45z" />
<glyph unicode="&#x40e;" horiz-adv-x="1288" d="M27 1454h247l390 -842l366 842h242l-512 -1106q-90 -201 -174 -278q-45 -45 -97.5 -64.5t-119.5 -19.5q-52 0 -104 11t-83 30l19 192q76 -33 149 -33q72 0 119 41t88 144zM324 1876h137q0 -55 58.5 -95t142.5 -40q80 0 135 38t65 97h135q-4 -121 -95 -190.5t-240 -69.5 q-150 0 -242 69.5t-96 190.5z" />
<glyph unicode="&#x40f;" horiz-adv-x="1439" d="M170 0v1454h229v-1251h641v1251h232v-1454h-441v-371h-223v371h-438z" />
<glyph unicode="&#x410;" horiz-adv-x="1382" d="M14 0l578 1454h201l573 -1454h-242l-153 395h-561l-152 -395h-244zM451 565h475l-234 625z" />
<glyph unicode="&#x411;" horiz-adv-x="1357" d="M168 0v1454h1042v-203h-811v-387h445q201 0 324.5 -114.5t123.5 -315.5q0 -203 -121.5 -318.5t-322.5 -115.5h-680zM399 199h437q109 0 166 61.5t57 173.5q0 113 -57.5 175.5t-165.5 62.5h-437v-473z" />
<glyph unicode="&#x412;" horiz-adv-x="1388" d="M137 0v1454h750q74 0 135 -30.5t106 -86.5q43 -51 67 -118.5t24 -135.5q0 -111 -56.5 -203t-152.5 -135q125 -37 197.5 -134t72.5 -236q0 -84 -34 -154.5t-97 -120.5q-61 -49 -143 -74.5t-175 -25.5h-694zM367 199h464q90 0 151.5 63.5t61.5 155.5q0 43 -15 85t-40 72 q-27 31 -63.5 49.5t-79.5 18.5h-479v-444zM367 827h421q84 0 142.5 60.5t58.5 152.5q0 94 -53 154.5t-135 60.5h-434v-428z" />
<glyph unicode="&#x413;" horiz-adv-x="1060" d="M168 0v1454h862v-203h-631v-1251h-231z" />
<glyph unicode="&#x414;" horiz-adv-x="1507" d="M37 203h33q70 4 119 41t83 121q41 90 70 251.5t51 434.5l33 403h823v-1251h221v-576h-213v373h-1009v-373h-211v576zM408 203h612v1048h-381l-21 -233q-29 -334 -79 -525.5t-131 -289.5z" />
<glyph unicode="&#x415;" horiz-adv-x="1239" d="M168 0v1454h979v-203h-750v-413h650v-191h-650v-444h768v-203h-997z" />
<glyph unicode="&#x416;" horiz-adv-x="2027" d="M-6 0l502 752l-455 702h262l389 -616h199v616h246v-616h200l387 616h265l-457 -702l504 -752h-262l-408 631h-229v-631h-246v631h-229l-408 -631h-260z" />
<glyph unicode="&#x417;" horiz-adv-x="1091" d="M41 207l156 151q57 -80 131.5 -119.5t173.5 -39.5q123 0 200 67q37 31 58.5 77t21.5 99q0 117 -90 183.5t-254 66.5h-131v187h123q143 0 222 55t79 153q0 86 -58.5 133.5t-162.5 47.5q-94 0 -169 -35t-124 -100l-139 143q80 96 185.5 142t250.5 46q211 0 324.5 -90 t113.5 -262q0 -123 -59 -210t-170 -118q135 -23 214 -114.5t79 -233.5q0 -96 -38 -178t-108 -143q-70 -59 -165 -92t-203 -33q-152 0 -268.5 56t-192.5 161z" />
<glyph unicode="&#x418;" horiz-adv-x="1542" d="M168 0v1454h231v-1100l793 1100h182v-1454h-231v1079l-781 -1079h-194z" />
<glyph unicode="&#x419;" horiz-adv-x="1542" d="M168 0v1454h231v-1100l793 1100h182v-1454h-231v1079l-781 -1079h-194zM469 1876h137q0 -55 58.5 -95t142.5 -40q78 0 133 38t66 97h135q-2 -121 -92.5 -190.5t-243.5 -69.5q-150 0 -242 69.5t-94 190.5z" />
<glyph unicode="&#x41a;" horiz-adv-x="1304" d="M168 0v1454h231v-616h152l461 616h262l-520 -702l567 -752h-262l-486 631h-174v-631h-231z" />
<glyph unicode="&#x41b;" horiz-adv-x="1380" d="M16 199q80 6 130.5 39.5t84.5 115.5q41 92 71 258t52 439l35 403h823v-1454h-231v1251h-381l-18 -233q-25 -295 -64 -487.5t-98 -307.5q-61 -123 -153.5 -180t-223.5 -57z" />
<glyph unicode="&#x41c;" horiz-adv-x="1792" d="M168 0v1454h246l481 -889l481 889h246v-1454h-231v1047l-433 -793h-127l-434 793v-1047h-229z" />
<glyph unicode="&#x41d;" horiz-adv-x="1531" d="M168 0v1454h229v-608h733v608h232v-1454h-232v641h-733v-641h-229z" />
<glyph unicode="&#x41e;" horiz-adv-x="1540" d="M74 727q0 141 53 274.5t147 239.5t223.5 164.5t276.5 58.5t276.5 -61.5t227.5 -171.5q90 -104 140 -236.5t50 -269.5q0 -143 -52 -275.5t-146 -236.5q-98 -106 -227.5 -164.5t-272.5 -58.5q-152 0 -281 59.5t-223 169.5q-92 102 -142 235.5t-50 272.5zM307 727 q0 -102 33 -198.5t94 -170.5q63 -76 150.5 -118.5t187.5 -42.5q209 0 340 168q59 72 90 167t31 195q0 104 -33 199.5t-92 169.5q-63 76 -150.5 117.5t-185.5 41.5q-104 0 -191 -43t-151 -122q-59 -74 -91 -168.5t-32 -194.5z" />
<glyph unicode="&#x41f;" horiz-adv-x="1515" d="M168 0v1454h1180v-1454h-232v1251h-717v-1251h-231z" />
<glyph unicode="&#x420;" horiz-adv-x="1280" d="M168 0v1454h610q92 0 177 -39t147 -108q59 -68 93 -153t34 -173q0 -90 -32 -174t-89 -154q-61 -72 -142 -109.5t-175 -37.5h-394v-506h-229zM397 709h379q96 0 157.5 77.5t61.5 194.5q0 119 -69 197q-33 35 -75 54t-87 19h-367v-542z" />
<glyph unicode="&#x421;" horiz-adv-x="1398" d="M72 737q0 135 48 264t138 232q96 109 229.5 169t288.5 60q188 0 332.5 -85t220.5 -232l-180 -121q-57 119 -156.5 175t-224.5 56q-213 0 -344 -168q-57 -74 -88 -168t-31 -190q0 -104 35 -201.5t98 -171.5q63 -76 150.5 -118.5t185.5 -42.5q125 0 229.5 62t157.5 177 l191 -108q-68 -156 -242 -250q-80 -43 -169 -65.5t-175 -22.5q-145 0 -273 62.5t-227 174.5q-92 104 -143 238.5t-51 273.5z" />
<glyph unicode="&#x422;" horiz-adv-x="1261" d="M31 1251v203h1200v-203h-483v-1251h-232v1251h-485z" />
<glyph unicode="&#x423;" horiz-adv-x="1288" d="M27 1454h247l390 -842l366 842h242l-512 -1106q-90 -201 -174 -278q-45 -45 -97.5 -64.5t-119.5 -19.5q-52 0 -104 11t-83 30l19 192q74 -33 149 -33q72 0 119 41t88 144z" />
<glyph unicode="&#x424;" horiz-adv-x="1564" d="M61 741q0 274 162 442.5t453 194.5v187h225v-187q285 -27 441.5 -194.5t156.5 -442.5q0 -276 -154.5 -439t-443.5 -189v-191h-225v189q-297 29 -456 192.5t-159 437.5zM291 748q0 -379 385 -426v843q-385 -43 -385 -417zM901 322q369 49 369 426q0 375 -369 417v-843z " />
<glyph unicode="&#x425;" horiz-adv-x="1312" d="M0 1454h254l403 -573l404 573h252l-533 -737l516 -717h-252l-387 553l-387 -553h-254l519 717z" />
<glyph unicode="&#x426;" horiz-adv-x="1523" d="M170 0v1454h231v-1251h635v1251h232v-1251h221v-576h-213v373h-1106z" />
<glyph unicode="&#x427;" horiz-adv-x="1277" d="M82 1038v416h231v-360q0 -186 62 -267q31 -43 85 -61t140 -18q96 0 169 17t112 48v641h229v-1454h-229v592q-70 -29 -147 -41t-193 -12q-233 0 -346 130t-113 369z" />
<glyph unicode="&#x428;" horiz-adv-x="1976" d="M168 0v1454h231v-1251h473v1251h232v-1251h473v1251h231v-1454h-1640z" />
<glyph unicode="&#x429;" horiz-adv-x="2066" d="M170 0v1454h231v-1251h473v1251h230v-1251h475v1251h229v-1251h220v-576h-211v373h-1647z" />
<glyph unicode="&#x42a;" horiz-adv-x="1546" d="M31 1255v199h669v-524h295q104 0 196.5 -31t160.5 -88q141 -125 141 -344t-141 -346q-68 -59 -157 -90t-194 -31h-532v1255h-438zM700 199h287q131 0 200.5 70.5t69.5 197.5q0 125 -71.5 197.5t-198.5 72.5h-287v-538z" />
<glyph unicode="&#x42b;" horiz-adv-x="1763" d="M168 0v1454h231v-524h295q104 0 196.5 -31t158.5 -88q141 -125 141 -344q0 -143 -63.5 -248.5t-175 -162t-253.5 -56.5h-530zM399 199h287q131 0 200.5 70.5t69.5 197.5q0 125 -71.5 197.5t-198.5 72.5h-287v-538zM1362 0v1452h231v-1452h-231z" />
<glyph unicode="&#x42c;" horiz-adv-x="1245" d="M168 0v1454h231v-524h295q104 0 196.5 -31t158.5 -88q141 -125 141 -344q0 -143 -63.5 -248.5t-175 -162t-253.5 -56.5h-530zM399 199h287q131 0 200.5 70.5t69.5 197.5q0 125 -71.5 197.5t-198.5 72.5h-287v-538z" />
<glyph unicode="&#x42d;" horiz-adv-x="1431" d="M47 326l191 108q57 -117 178 -182q100 -57 225 -57q96 0 180 35.5t148 99.5q125 125 149 317h-661v191h657q-14 82 -50 158.5t-91 131.5q-123 127 -326 127q-131 0 -237.5 -56t-159.5 -175l-180 121q78 152 222 234.5t347 82.5q168 0 303 -59.5t234 -169.5 q88 -102 135 -232.5t47 -263.5q0 -139 -50.5 -273t-142.5 -239q-98 -113 -231 -175t-285 -62q-207 0 -370.5 90t-231.5 248z" />
<glyph unicode="&#x42e;" horiz-adv-x="2039" d="M170 0v1454h231v-618h244q14 141 68.5 258.5t142.5 199.5q86 82 198.5 126t241.5 44q143 0 266.5 -54t215.5 -157q88 -100 136 -237t48 -291q0 -166 -49 -301t-141 -234q-92 -96 -216 -148t-266 -52q-268 0 -444 180q-86 86 -138.5 204t-64.5 259h-242v-633h-231z M872 727q0 -250 112 -390t308 -140q205 0 322 145q55 70 85 168t30 217q0 250 -119 389q-57 68 -138 103.5t-180 35.5q-96 0 -175 -36.5t-134 -106.5q-53 -70 -82 -168t-29 -217z" />
<glyph unicode="&#x42f;" horiz-adv-x="1327" d="M51 0l357 580q-129 51 -206 164.5t-77 259.5q0 86 34 167.5t93 145.5q63 63 147 100t176 37h584v-1454h-231v551h-285l-332 -551h-260zM358 1004q0 -106 65.5 -178t162.5 -72h342v499h-332q-100 0 -169 -72.5t-69 -176.5z" />
<glyph unicode="&#x430;" horiz-adv-x="1157" d="M57 315q0 100 57.5 177t161 119t234.5 42q156 0 283 -49v74q0 119 -68 185.5t-195 66.5q-158 0 -340 -123l-69 143q207 139 430 140q221 0 344 -114t123 -323v-387q0 -70 59 -73v-193q-57 -10 -102 -10q-61 0 -99 30.5t-47 85.5l-6 68q-72 -94 -177 -144t-226 -50 q-74 0 -141.5 25.5t-116.5 70.5t-77 106.5t-28 132.5zM270 334q0 -80 59.5 -134.5t151.5 -54.5q82 0 155 30t114 83q43 37 43 78v141q-119 47 -248 47q-123 0 -199 -52t-76 -138z" />
<glyph unicode="&#x431;" horiz-adv-x="1224" d="M100 645q0 342 136.5 533.5t414.5 255.5l367 84l24 -189l-383 -88q-145 -33 -228 -127t-112 -264q66 82 157 125t202 43q96 0 185 -40t153 -110q68 -74 102.5 -167t34.5 -201q0 -111 -38 -207t-105 -166q-70 -70 -170.5 -108.5t-218.5 -38.5q-256 0 -388.5 168.5 t-132.5 496.5zM332 510q0 -96 39 -175t107.5 -124t152.5 -45q61 0 116.5 24.5t94.5 67.5t60.5 105.5t21.5 134.5q0 145 -84 235t-217 90q-131 0 -211 -88t-80 -225z" />
<glyph unicode="&#x432;" horiz-adv-x="1107" d="M143 0v1071h584q55 0 106.5 -20.5t88.5 -55.5q76 -76 75 -190q0 -82 -38.5 -148.5t-114.5 -97.5q94 -27 145 -94.5t51 -169.5q0 -139 -96 -217t-262 -78h-539zM365 164h297q68 0 111.5 44t43.5 111q0 68 -42 111t-109 43h-301v-309zM365 618h264q70 0 108.5 38t38.5 110 q0 66 -34.5 103.5t-102.5 37.5h-274v-289z" />
<glyph unicode="&#x433;" horiz-adv-x="874" d="M139 0v1071h701v-178h-480v-893h-221z" />
<glyph unicode="&#x434;" horiz-adv-x="1249" d="M35 195h59q49 8 82 38.5t57 92.5q23 59 38.5 155.5t35.5 274.5l35 315h707v-876h135v-517h-197v322h-762v-322h-190v517zM379 195h448v692h-282l-27 -197q-27 -201 -58.5 -315.5t-80.5 -179.5z" />
<glyph unicode="&#x435;" horiz-adv-x="1218" d="M66 532q0 113 39.5 214.5t113.5 179.5q74 80 177.5 122t226.5 42q119 0 220 -43t179 -121q72 -74 109.5 -173.5t37.5 -209.5q0 -27 -6 -82h-858q12 -139 107 -228q43 -43 99 -65.5t118 -22.5q92 0 168.5 45.5t111.5 118.5l193 -55q-57 -125 -186.5 -199.5t-294.5 -74.5 q-121 0 -224.5 41.5t-177.5 121.5q-74 76 -113.5 176.5t-39.5 212.5zM299 616h647q-12 135 -104 224q-43 41 -100.5 62.5t-120.5 21.5q-131 0 -220 -84q-90 -86 -102 -224z" />
<glyph unicode="&#x436;" horiz-adv-x="1628" d="M12 0l359 551l-328 520h252l266 -450h139v450h230v-450h139l266 450h250l-328 -520l361 -551h-258l-266 442h-166v-442h-226v442h-163l-267 -442h-260z" />
<glyph unicode="&#x437;" horiz-adv-x="868" d="M45 135l113 150q84 -115 237 -115q92 0 142.5 40t50.5 118q0 178 -256 178h-76v147h76q98 0 153.5 41t55.5 109q0 55 -40 87t-108 32q-111 0 -213 -91l-102 127q137 131 336 132q147 0 237 -70q43 -37 67.5 -87t24.5 -112q0 -92 -49 -155.5t-133 -75.5q117 -18 180.5 -93 t63.5 -188q0 -96 -51.5 -172t-142.5 -116.5t-208 -40.5q-233 0 -358 155z" />
<glyph unicode="&#x438;" horiz-adv-x="1222" d="M139 0v1071h221v-752l549 752h172v-1071h-221v735l-538 -735h-183z" />
<glyph unicode="&#x439;" horiz-adv-x="1220" d="M139 0v1071h221v-752l549 752h172v-1071h-221v735l-538 -735h-183zM307 1495h129q4 -78 51.5 -111.5t145.5 -33.5q96 0 143 33.5t53 111.5h127q-4 -121 -90 -185.5t-233 -64.5t-233.5 64.5t-92.5 185.5z" />
<glyph unicode="&#x43a;" horiz-adv-x="1062" d="M139 0v1071h221v-446h84l342 446h246l-420 -520l451 -551h-252l-350 442h-101v-442h-221z" />
<glyph unicode="&#x43b;" horiz-adv-x="1150" d="M12 188q68 4 106 29t66 84q29 59 48.5 162.5t37.5 292.5l35 315h707v-1071h-224v887h-282l-27 -197q-31 -221 -63.5 -349t-79.5 -202q-49 -76 -120 -110.5t-181 -38.5z" />
<glyph unicode="&#x43c;" horiz-adv-x="1417" d="M139 0v1071h230l340 -627l342 627h227v-1071h-217v702l-293 -534h-117l-295 534v-702h-217z" />
<glyph unicode="&#x43d;" horiz-adv-x="1208" d="M139 0v1071h221v-426h488v426h221v-1071h-221v455h-488v-455h-221z" />
<glyph unicode="&#x43e;" horiz-adv-x="1232" d="M66 535q0 113 38.5 214t112.5 175q76 80 178.5 123t220.5 43q119 0 222.5 -43t179.5 -123q72 -76 110.5 -177.5t38.5 -211.5q0 -111 -38.5 -212.5t-110.5 -177.5q-76 -80 -179.5 -122.5t-222.5 -42.5q-120 0 -222.5 43t-178.5 122q-72 76 -110.5 177.5t-38.5 212.5z M297 532q0 -154 92 -256q43 -49 101.5 -76.5t125.5 -27.5q68 0 126.5 27.5t101.5 76.5q92 104 92 259q0 74 -24.5 141t-67.5 117q-43 49 -101.5 76.5t-126.5 27.5q-66 0 -124 -28.5t-101 -77.5q-45 -51 -69.5 -118t-24.5 -141z" />
<glyph unicode="&#x43f;" horiz-adv-x="1177" d="M139 0v1071h899v-1071h-221v877h-457v-877h-221z" />
<glyph unicode="&#x440;" horiz-adv-x="1290" d="M139 -436v1507h199v-192q63 100 161.5 155.5t217.5 55.5q104 0 198.5 -43t163.5 -123q68 -76 106 -176.5t38 -210.5q0 -115 -35 -217.5t-98 -176.5q-137 -164 -342 -163q-123 0 -222.5 58t-160.5 163v-637h-226zM365 406q43 -100 130 -167t179 -67q137 0 231 113 q41 51 63.5 116.5t22.5 135.5q0 72 -24.5 137t-69.5 117q-45 51 -106.5 78.5t-133.5 27.5q-43 0 -90 -16.5t-88 -44.5q-94 -66 -114 -150v-280z" />
<glyph unicode="&#x441;" horiz-adv-x="1144" d="M66 537q0 112 38.5 212.5t112.5 176.5q74 80 177.5 122t226.5 42q160 0 281.5 -71t182.5 -196l-219 -69q-39 68 -104.5 105.5t-145.5 37.5q-68 0 -126 -26.5t-101 -73.5q-92 -104 -92 -260q0 -152 96 -261q43 -49 101.5 -76.5t123.5 -27.5q84 0 157 43t97 104l222 -65 q-55 -127 -181.5 -200.5t-291.5 -73.5q-121 0 -224.5 44t-177.5 123q-74 78 -113.5 178.5t-39.5 211.5z" />
<glyph unicode="&#x442;" horiz-adv-x="995" d="M39 877v194h917v-194h-348v-877h-221v877h-348z" />
<glyph unicode="&#x443;" horiz-adv-x="1120" d="M18 1071h232l332 -872l295 872h213l-445 -1214q-66 -172 -144.5 -245t-197.5 -73q-51 0 -87 11.5t-66 35.5v195q66 -47 133 -47q53 0 96 59q39 57 80 207z" />
<glyph unicode="&#x444;" horiz-adv-x="1427" d="M66 530q0 229 141 377t397 176v412h225v-414q250 -27 390.5 -175t140.5 -376q0 -227 -139.5 -370.5t-391.5 -171.5v-424h-225v422q-256 27 -397 171t-141 373zM293 537q0 -311 311 -359v709q-311 -41 -311 -350zM829 180q305 47 306 357q0 301 -306 348v-705z" />
<glyph unicode="&#x445;" horiz-adv-x="1069" d="M16 0l396 535l-392 536h234l262 -366l19 -35l18 35l260 366h236l-392 -536l396 -535h-236l-264 365l-18 32l-19 -32l-264 -365h-236z" />
<glyph unicode="&#x446;" horiz-adv-x="1212" d="M139 0v1071h221v-876h412v876h223v-876h187v-517h-199v322h-844z" />
<glyph unicode="&#x447;" horiz-adv-x="1017" d="M76 748v323h219v-285q0 -121 45 -173t137 -52q127 0 180 45v465h222v-1071h-222v406q-51 -16 -100 -23.5t-133 -7.5q-168 0 -258 101.5t-90 271.5z" />
<glyph unicode="&#x448;" horiz-adv-x="1591" d="M139 0v1071h221v-876h324v876h223v-876h324v876h221v-1071h-1313z" />
<glyph unicode="&#x449;" horiz-adv-x="1669" d="M139 0v1071h221v-876h324v876h223v-876h324v876h221v-876h186v-517h-196v322h-1303z" />
<glyph unicode="&#x44a;" horiz-adv-x="1220" d="M39 881v190h536v-354h207q166 0 275 -90q117 -100 117 -271q0 -168 -109 -262t-279 -94h-432v881h-315zM575 182h197q82 0 129 44t47 128t-48 132.5t-126 48.5h-199v-353z" />
<glyph unicode="&#x44b;" horiz-adv-x="1417" d="M139 0v1071h221v-354h195q166 0 272 -90q117 -100 117 -271q0 -168 -108.5 -262t-278.5 -94h-418zM360 182h183q82 0 129 44t47 128t-48 132.5t-126 48.5h-185v-353zM1055 0v1071h223v-1071h-223z" />
<glyph unicode="&#x44c;" horiz-adv-x="1005" d="M139 0v1071h221v-354h207q166 0 275 -90q117 -100 116 -271q0 -172 -116 -268q-111 -88 -271 -88h-432zM360 182h197q82 0 129 45t47 127q0 84 -48 132.5t-126 48.5h-199v-353z" />
<glyph unicode="&#x44d;" horiz-adv-x="1118" d="M45 240l170 88q35 -72 120 -120t171 -48q119 0 207 81t110 220h-471v160h469q-27 131 -115 210.5t-208 79.5q-90 0 -164 -38.5t-121 -116.5l-152 94q57 111 172 176.5t267 65.5q123 0 226 -44t179 -126q72 -74 110 -175.5t38 -209.5q0 -109 -38 -209.5t-110 -173.5 q-78 -82 -180 -127t-223 -45q-158 0 -283 68.5t-174 189.5z" />
<glyph unicode="&#x44e;" horiz-adv-x="1564" d="M137 0v1071h223v-432h146q27 205 160 330t327 125q109 0 202 -41t163 -117q66 -76 101.5 -179.5t35.5 -224.5q0 -254 -143 -405q-68 -72 -161 -109.5t-202 -37.5q-98 0 -183 32.5t-149 93.5q-131 125 -155 338h-142v-444h-223zM717 535q0 -173 72.5 -266t201.5 -93 q135 0 209 94.5t74 266.5q0 170 -76 264t-207 94q-129 0 -201.5 -96.5t-72.5 -263.5z" />
<glyph unicode="&#x44f;" horiz-adv-x="1060" d="M47 0l266 412q-98 37 -152.5 114.5t-54.5 194.5q0 156 107 256q49 47 117.5 71.5t148.5 24.5h443v-1073h-224v375h-174l-229 -375h-248zM332 719q0 -74 46 -118t116 -44h204v330h-198q-70 0 -119 -46t-49 -122z" />
<glyph unicode="&#x450;" horiz-adv-x="1218" d="M66 532q0 113 39.5 214.5t113.5 179.5q74 80 177.5 122t226.5 42q119 0 220 -43t179 -121q72 -74 109.5 -173.5t37.5 -209.5q0 -27 -6 -82h-858q12 -139 107 -228q43 -43 99 -65.5t118 -22.5q92 0 168.5 45.5t111.5 118.5l193 -55q-57 -125 -186.5 -199.5t-294.5 -74.5 q-121 0 -224.5 41.5t-177.5 121.5q-74 76 -113.5 176.5t-39.5 212.5zM299 616h647q-12 135 -104 224q-43 41 -100.5 62.5t-120.5 21.5q-131 0 -220 -84q-90 -86 -102 -224zM379 1495h215l117 -225l-144 -45z" />
<glyph unicode="&#x451;" horiz-adv-x="1218" d="M66 532q0 113 39.5 214.5t113.5 179.5q74 80 177.5 122t226.5 42q119 0 220 -43t179 -121q72 -74 109.5 -173.5t37.5 -209.5q0 -27 -6 -82h-858q12 -139 107 -228q43 -43 99 -65.5t118 -22.5q92 0 168.5 45.5t111.5 118.5l193 -55q-57 -125 -186.5 -199.5t-294.5 -74.5 q-121 0 -224.5 41.5t-177.5 121.5q-74 76 -113.5 176.5t-39.5 212.5zM299 616h647q-12 135 -104 224q-43 41 -100.5 62.5t-120.5 21.5q-131 0 -220 -84q-90 -86 -102 -224zM340 1260v225h188v-225h-188zM702 1260v225h189v-225h-189z" />
<glyph unicode="&#x452;" horiz-adv-x="1230" d="M-12 1180v151h151v164h226v-164h452v-151h-452v-435q53 127 158.5 196t240.5 69q170 0 253 -111t83 -324v-598q0 -164 -101 -264q-49 -49 -115.5 -76.5t-140.5 -27.5q-72 0 -138 24.5t-113 67.5l100 152q47 -47 125 -48q68 0 112.5 45.5t44.5 110.5v559q0 141 -51 215 t-147 74q-104 0 -189.5 -82t-121.5 -221v-506h-226v1180h-151z" />
<glyph unicode="&#x453;" horiz-adv-x="878" d="M139 0v1071h701v-178h-480v-893h-221zM373 1270l116 225h216l-185 -270z" />
<glyph unicode="&#x454;" horiz-adv-x="1120" d="M66 537q0 111 37.5 212t109.5 175q76 82 179.5 125t225.5 43q152 0 266.5 -65.5t172.5 -176.5l-156 -102q-49 84 -127 126q-76 37 -158 37q-125 0 -209.5 -79.5t-111.5 -210.5h471v-160h-473q20 -135 109.5 -218t209.5 -83q88 0 169 46t118 124l174 -90 q-47 -121 -174 -189.5t-283 -68.5q-120 0 -224.5 44t-178.5 124q-72 74 -109.5 175t-37.5 212z" />
<glyph unicode="&#x455;" horiz-adv-x="1015" d="M47 141l90 144q201 -141 383 -142q100 0 158.5 39t58.5 111q0 68 -65 98q-63 29 -205 68q-117 31 -183.5 55.5t-105.5 52.5q-45 33 -65.5 76t-20.5 105q0 158 121 253q55 43 131 66t164 23q244 0 412 -144l-97 -135q-150 119 -317 119q-94 0 -148.5 -38t-54.5 -112 q0 -55 33 -81.5t94 -43.5q10 -4 107 -28q121 -31 196.5 -57.5t120.5 -57.5q51 -37 75.5 -85t24.5 -116q0 -154 -115.5 -242.5t-314.5 -88.5q-133 0 -260 41.5t-217 119.5z" />
<glyph unicode="&#x456;" horiz-adv-x="503" d="M139 0v1071h226v-1071h-226zM139 1247v248h226v-248h-226z" />
<glyph unicode="&#x457;" horiz-adv-x="503" d="M-23 1260v225h189v-225h-189zM139 0v1071h226v-1071h-226zM340 1260v225h188v-225h-188z" />
<glyph unicode="&#x458;" horiz-adv-x="516" d="M-233 -299l100 152q51 -47 131 -48q61 0 106.5 45.5t45.5 110.5v1110h225v-1094q0 -160 -103 -266q-102 -102 -247 -102q-154 0 -258 92zM150 1247v248h225v-248h-225z" />
<glyph unicode="&#x459;" horiz-adv-x="1675" d="M12 188q68 4 109 30t65 83q27 61 46.5 166.5t37.5 288.5l35 315h707v-397h264q68 0 130 -21.5t110 -62.5q102 -92 102 -254q0 -158 -93 -247t-245 -89h-489v887h-285l-25 -197q-27 -209 -60.5 -341t-82.5 -210q-49 -76 -120 -110.5t-181 -38.5zM1012 182h252q57 0 92 41 t35 113q0 74 -34 116t-91 42h-254v-312z" />
<glyph unicode="&#x45a;" horiz-adv-x="1679" d="M139 0v1071h221v-401h443v401h223v-397h254q68 0 130.5 -21.5t109.5 -62.5q102 -92 102 -254q0 -164 -100 -252q-43 -41 -106.5 -62.5t-133.5 -21.5h-479v475h-443v-475h-221zM1026 182h242q57 0 92 41t35 113q0 74 -34 116t-91 42h-244v-312z" />
<glyph unicode="&#x45b;" horiz-adv-x="1228" d="M-14 1180v151h153v164h226v-164h452v-151h-452v-428q49 121 154.5 189.5t242.5 68.5q170 0 254 -112t84 -323v-575h-226v520q0 289 -200 289q-106 0 -190.5 -81t-118.5 -216v-512h-226v1180h-153z" />
<glyph unicode="&#x45c;" horiz-adv-x="1062" d="M139 0v1071h221v-446h84l342 446h246l-420 -520l451 -551h-252l-350 442h-101v-442h-221zM453 1270l116 225h215l-184 -270z" />
<glyph unicode="&#x45d;" horiz-adv-x="1183" d="M139 0v1071h221v-752l549 752h172v-1071h-221v735l-538 -735h-183zM352 1495h215l117 -225l-143 -45z" />
<glyph unicode="&#x45e;" horiz-adv-x="1120" d="M18 1071h232l332 -872l295 872h213l-490 -1319q-41 -111 -111.5 -162t-181.5 -51q-66 0 -121 15v194q43 -14 105 -14q27 0 43 7t33 30q16 23 41 79q25 59 51 150zM256 1495h129q4 -78 51 -111.5t146 -33.5q96 0 143 33.5t53 111.5h127q-4 -121 -90 -185.5t-233 -64.5 t-233.5 64.5t-92.5 185.5z" />
<glyph unicode="&#x45f;" horiz-adv-x="1138" d="M139 0v1073h221v-878h418v878h221v-1073h-323v-322h-215v322h-322z" />
<glyph unicode="&#x490;" horiz-adv-x="1060" d="M170 0v1454h664l14 336h182v-539h-631v-1251h-229z" />
<glyph unicode="&#x491;" horiz-adv-x="876" d="M139 0v1071h520l17 322h164v-506h-480v-887h-221z" />
<glyph unicode="&#x4b0;" horiz-adv-x="1271" d="M-16 1454h254l401 -729l403 729h248l-538 -926v-55h313v-149h-313v-324h-232v324h-311v149h311v51z" />
<glyph unicode="&#x4b1;" horiz-adv-x="1107" d="M-2 1071h250l307 -719l315 719h240l-444 -913v-8h292v-150h-299v-436h-217v436h-295v150h289v8z" />
<glyph unicode="&#x2000;" horiz-adv-x="939" />
<glyph unicode="&#x2001;" horiz-adv-x="1878" />
<glyph unicode="&#x2002;" horiz-adv-x="939" />
<glyph unicode="&#x2003;" horiz-adv-x="1878" />
<glyph unicode="&#x2004;" horiz-adv-x="626" />
<glyph unicode="&#x2005;" horiz-adv-x="469" />
<glyph unicode="&#x2006;" horiz-adv-x="313" />
<glyph unicode="&#x2007;" horiz-adv-x="313" />
<glyph unicode="&#x2008;" horiz-adv-x="234" />
<glyph unicode="&#x2009;" horiz-adv-x="375" />
<glyph unicode="&#x200a;" horiz-adv-x="104" />
<glyph unicode="&#x2010;" d="M125 459v203h612v-203h-612z" />
<glyph unicode="&#x2011;" d="M125 459v203h612v-203h-612z" />
<glyph unicode="&#x2012;" d="M125 459v203h612v-203h-612z" />
<glyph unicode="&#x2013;" horiz-adv-x="1212" d="M125 459v203h962v-203h-962z" />
<glyph unicode="&#x2014;" horiz-adv-x="1882" d="M125 459v203h1632v-203h-1632z" />
<glyph unicode="&#x2018;" horiz-adv-x="462" d="M121 999v256l67 240h125l-43 -242h72v-254h-221z" />
<glyph unicode="&#x2019;" horiz-adv-x="446" d="M117 1247v254h221v-256l-68 -239h-125l43 241h-71z" />
<glyph unicode="&#x201a;" horiz-adv-x="471" d="M125 0v264h221v-266l-67 -250h-127l45 252h-72z" />
<glyph unicode="&#x201c;" horiz-adv-x="792" d="M121 999v256l67 240h125l-43 -242h72v-254h-221zM453 999v256l67 240h125l-43 -242h72v-254h-221z" />
<glyph unicode="&#x201d;" horiz-adv-x="778" d="M117 1247v254h221v-256l-68 -239h-125l43 241h-71zM449 1247v254h221v-256l-68 -239h-125l43 241h-71z" />
<glyph unicode="&#x201e;" horiz-adv-x="796" d="M125 0v264h221v-266l-67 -250h-127l45 252h-72zM451 0v264h221v-266l-68 -250h-125l43 252h-71z" />
<glyph unicode="&#x2022;" horiz-adv-x="735" d="M166 713q0 82 60.5 142t142.5 60q84 0 142 -58t58 -144t-58 -144.5t-142 -58.5q-82 0 -142.5 60.5t-60.5 142.5z" />
<glyph unicode="&#x2026;" horiz-adv-x="1126" d="M125 0v262h186v-262h-186zM471 0v262h184v-262h-184zM815 0v262h186v-262h-186z" />
<glyph unicode="&#x202f;" horiz-adv-x="375" />
<glyph unicode="&#x2039;" horiz-adv-x="729" d="M78 469v113l528 379v-187l-348 -244l348 -235v-184z" />
<glyph unicode="&#x203a;" horiz-adv-x="729" d="M123 111v184l348 235l-348 244v187l528 -379v-113z" />
<glyph unicode="&#x205f;" horiz-adv-x="469" />
<glyph unicode="&#x20ac;" horiz-adv-x="1632" d="M68 514l53 127h139q-6 47 -6 96v19h-148l54 127h108q25 117 82.5 221t141.5 182q94 84 211.5 130t254.5 46q188 0 333 -85t220 -232l-180 -121q-57 119 -156.5 175t-224.5 56q-166 0 -283.5 -103t-160.5 -269h588l-52 -127h-555v-27q0 -45 7 -88h532l-53 -127h-447 q55 -143 170 -231t260 -88q125 0 229.5 62t157.5 177l191 -108q-68 -156 -242 -250q-80 -43 -169 -65.5t-175 -22.5q-233 0 -420 157q-86 72 -147.5 167.5t-93.5 201.5h-219z" />
<glyph unicode="&#x2122;" horiz-adv-x="1624" d="M127 1309v149h539v-149h-195v-457h-149v457h-195zM760 852v602h217l139 -344l139 344h220v-602h-150v405l-147 -319h-121l-148 319v-405h-149z" />
<glyph unicode="&#x25fc;" horiz-adv-x="1075" d="M0 0v1075h1075v-1075h-1075z" />
</font>
</defs>
</svg>
