<svg width="15" height="16" viewBox="0 0 15 16" fill="none" xmlns="http://www.w3.org/2000/svg">
<path fill-rule="evenodd" clip-rule="evenodd" d="M11.094 8.799C11.66 7.879 12 6.739 12 5.5C12 2.462 9.98502 -0.000999451 7.50002 -0.000999451C5.01402 -0.000999451 2.99902 2.462 2.99902 5.5C2.99902 6.739 3.34002 7.879 3.90602 8.799C1.58002 9.903 -0.000976562 12.039 -0.000976562 14.5V15C-0.000976562 15.552 0.447024 16 1.00002 16H13.999C14.552 16 15 15.552 15 15V14.5C15 12.039 13.419 9.903 11.094 8.799ZM7.50002 1.5C9.12602 1.5 10.499 3.331 10.499 5.5C10.499 7.668 9.12602 9.5 7.50002 9.5C5.87302 9.5 4.50002 7.668 4.50002 5.5C4.50002 3.331 5.87302 1.5 7.50002 1.5ZM1.50002 14.5C1.50002 12.515 2.89502 10.8 4.91002 9.993C5.64302 10.625 6.53502 10.999 7.50002 10.999C8.46402 10.999 9.35702 10.625 10.09 9.993C12.105 10.8 13.5 12.515 13.5 14.5H1.50002Z" fill="#5D5E74"/>
</svg>
